SplineFontDB: 3.2
FontName: Samaano-Thin-Slanted
FullName: Samaano Thin
FamilyName: Samaano
Weight: Thin
Copyright: Copyright 2024 The Samaano Project Authors (https://github.com/mitradranirban/samaano-fonts)
UComments: "2024-8-27: Created with FontForge (http://fontforge.org)"
Version: 1.1
ItalicAngle: 0
UnderlinePosition: 0
UnderlineWidth: 102
Ascent: 1638
Descent: 410
InvalidEm: 0
UFOAscent: 1638
UFODescent: -410
LayerCount: 2
Layer: 0 0 "Back" 1
Layer: 1 0 "public.default" 0 "glyphs"
StyleMap: 0x0000
FSType: 256
OS2Version: 0
OS2_WeightWidthSlopeOnly: 0
OS2_UseTypoMetrics: 0
CreationTime: 1729151289
ModificationTime: 1729153998
PfmFamily: 16
TTFWeight: 100
TTFWidth: 5
LineGap: 0
VLineGap: 0
Panose: 2 7 2 9 2 2 2 2 4 4
OS2TypoAscent: 2457
OS2TypoAOffset: 0
OS2TypoDescent: -615
OS2TypoDOffset: 0
OS2TypoLinegap: 0
OS2WinAscent: 2476
OS2WinAOffset: 0
OS2WinDescent: 958
OS2WinDOffset: 0
HheadAscent: 2457
HheadAOffset: 0
HheadDescent: -615
HheadDOffset: 0
OS2CapHeight: 1548
OS2XHeight: 1023
OS2FamilyClass: 1031
OS2Vendor: 'anir'
MarkAttachClasses: 1
DEI: 91125
LangName: 1033 "Copyright 2024 The Samaano Project Authors (https://github.com/mitradranirban/samaano-fonts)" "" "" "" "" "Version 1.000" "" "" "Dr Anirban Mitra" "Dr Anirban Mitra" "A Monospace Variable Font Family in Latin and Devanagari created using mostly rectangular components" "https://fonts.atipra.in" "https://github.com/mitradranirban" "Copyright 2024 The Samaano Project Authors (https://github.com/mitradranirban/samaano-fonts)+AAoA +AAoA-This Font Software is licensed under the SIL Open Font License, Version 1.1.+AAoA-This license is available with a FAQ at: http://scripts.sil.org/OFL+AAoACgAA" "http://scripts.sil.org/OFL"
PickledDataWithLists: "(dp0
Vorg.unifiedfontobject.normalizer.modTimes
p1
Vversion: 0.6.1\\u000a1729145354.8 fontinfo.plist\\u000a1729145354.8 layercontents.plist\\u000a1729145354.8 metainfo.plist
p2
sVpublic.glyphOrder
p3
(lp4
V.notdef
p5
aVspace
p6
aVexclam
p7
aVquotedbl
p8

StartChar: .notdef
Encoding: 0 0 0
GlifName: _notdef
Width: 2048
VWidth: 0
Flags: HW
LayerCount: 2
Fore
SplineSet
226.543945312 -100 m 257
 1224.54394531 -100 l 257
 1821.45605469 1540 l 257
 823.456054688 1540 l 257
 226.543945312 -100 l 257
329.662109375 -20 m 257
 869.065429688 1462 l 257
 1000.37109375 743 l 257
 329.662109375 -20 l 257
421.662109375 -20 m 257
 1010.34570312 666 l 257
 1101.66210938 -20 l 257
 421.662109375 -20 l 257
993.43359375 1474 m 257
 1624.43359375 1474 l 257
 1070.21679688 825 l 257
 993.43359375 1474 l 257
1080.19140625 748 m 257
 1720.79785156 1475 l 257
 1176.66210938 -20 l 257
 1080.19140625 748 l 257
EndSplineSet
EndChar

StartChar: A
Encoding: 65 65 1
GlifName: A_
Width: 2048
VWidth: 0
Flags: HW
LayerCount: 2
Fore
SplineSet
334.2890625 16 m 257
 393.2890625 16 l 257
 952.7109375 1553 l 257
 893.7109375 1553 l 257
 334.2890625 16 l 257
930.509765625 1492 m 257
 1647.50976562 1492 l 257
 1669.7109375 1553 l 257
 952.7109375 1553 l 257
 930.509765625 1492 l 257
734.515625 970 m 257
 713.04296875 911 l 257
 1436.04296875 911 l 257
 1457.515625 970 l 257
 734.515625 970 l 257
1090.28515625 5 m 257
 1150.28515625 5 l 257
 1713.7109375 1553 l 257
 1653.7109375 1553 l 257
 1090.28515625 5 l 257
EndSplineSet
EndChar

StartChar: AE
Encoding: 198 198 2
GlifName: A_E_
Width: 2048
VWidth: 0
Flags: HW
LayerCount: 2
Fore
SplineSet
791.489257812 62 m 257
 768.922851562 0 l 257
 1188.92285156 0 l 257
 1211.48925781 62 l 257
 791.489257812 62 l 257
316.922851562 0 m 257
 378.922851562 0 l 257
 943.077148438 1550 l 257
 881.077148438 1550 l 257
 316.922851562 0 l 257
902.875 1489 m 257
 1708.875 1489 l 257
 1731.07714844 1550 l 257
 925.077148438 1550 l 257
 902.875 1489 l 257
737.264648438 1023 m 257
 715.790039062 964 l 257
 1465.79003906 964 l 257
 1487.26464844 1023 l 257
 737.264648438 1023 l 257
742.922851562 0 m 257
 802.922851562 0 l 257
 1367.07714844 1550 l 257
 1307.07714844 1550 l 257
 742.922851562 0 l 257
EndSplineSet
EndChar

StartChar: B
Encoding: 66 66 14
GlifName: B_
Width: 2048
VWidth: 0
Flags: HW
LayerCount: 2
Fore
SplineSet
359.7734375 0 m 257
 416.7734375 0 l 257
 982.01953125 1553 l 257
 925.01953125 1553 l 257
 359.7734375 0 l 257
999.544921875 1494 m 257
 1667.11523438 1023 l 257
 1688.2265625 1081 l 257
 1019.92773438 1550 l 257
 999.544921875 1494 l 257
773.953125 811 m 257
 1667.11523438 1023 l 257
 1687.49804688 1079 l 257
 795.427734375 870 l 257
 773.953125 811 l 257
483.33984375 62 m 257
 460.7734375 0 l 257
 1486.73632812 434 l 257
 1510.75976562 500 l 257
 483.33984375 62 l 257
745.294921875 746 m 257
 1486.28125 430 l 257
 1512.12304688 501 l 257
 767.861328125 808 l 257
 745.294921875 746 l 257
730.427734375 870 m 257
 708.953125 811 l 257
 773.953125 811 l 257
 795.427734375 870 l 257
 730.427734375 870 l 257
707.861328125 808 m 257
 686.0234375 748 l 257
 746.0234375 748 l 257
 767.861328125 808 l 257
 707.861328125 808 l 257
423.33984375 62 m 257
 400.7734375 0 l 257
 460.7734375 0 l 257
 483.33984375 62 l 257
 423.33984375 62 l 257
961.01953125 1553 m 257
 939.544921875 1494 l 257
 999.544921875 1494 l 257
 1021.01953125 1553 l 257
 961.01953125 1553 l 257
EndSplineSet
EndChar

StartChar: C
Encoding: 67 67 15
GlifName: C_
Width: 2048
VWidth: 0
Flags: HW
LayerCount: 2
Fore
SplineSet
865.623046875 1553 m 257
 300.376953125 0 l 257
 360.376953125 0 l 257
 925.623046875 1553 l 257
 865.623046875 1553 l 257
894.623046875 1553 m 257
 873.512695312 1495 l 257
 1726.51269531 1495 l 257
 1747.62304688 1553 l 257
 894.623046875 1553 l 257
355.487304688 58 m 257
 334.376953125 0 l 257
 1180.37695312 0 l 257
 1201.48730469 58 l 257
 355.487304688 58 l 257
EndSplineSet
EndChar

StartChar: D
Encoding: 68 68 21
GlifName: D_
Width: 2048
VWidth: 0
Flags: HW
LayerCount: 2
Fore
SplineSet
987.075195312 1553 m 257
 421.829101562 0 l 257
 481.829101562 0 l 257
 1047.07519531 1553 l 257
 987.075195312 1553 l 257
1125.98339844 1550 m 257
 1105.23632812 1493 l 257
 1601.60449219 961 l 257
 1624.17089844 1023 l 257
 1125.98339844 1550 l 257
582.939453125 58 m 257
 561.829101562 0 l 257
 1603.24023438 960 l 257
 1626.17089844 1023 l 257
 582.939453125 58 l 257
1047.07519531 1553 m 257
 1025.23632812 1493 l 257
 1105.23632812 1493 l 257
 1127.07519531 1553 l 257
 1047.07519531 1553 l 257
504.939453125 58 m 257
 483.829101562 0 l 257
 561.829101562 0 l 257
 582.939453125 58 l 257
 504.939453125 58 l 257
EndSplineSet
EndChar

StartChar: Dcroat
Encoding: 272 272 23
GlifName: D_croat
Width: 2048
VWidth: 0
Flags: HW
LayerCount: 2
Fore
SplineSet
669.141601562 935 m 257
 647.666992188 876 l 257
 1123.66699219 876 l 257
 1145.14160156 935 l 257
 669.141601562 935 l 257
998.983398438 1550 m 257
 434.829101562 0 l 257
 496.829101562 0 l 257
 1060.98339844 1550 l 257
 998.983398438 1550 l 257
1324.98339844 1550 m 257
 1302.41699219 1488 l 257
 1570.5859375 906 l 257
 1613.17089844 1023 l 257
 1324.98339844 1550 l 257
791.03125 61 m 257
 768.829101562 0 l 257
 1573.86230469 915 l 257
 1613.17089844 1023 l 257
 791.03125 61 l 257
1044.98339844 1550 m 257
 1022.41699219 1488 l 257
 1302.41699219 1488 l 257
 1324.98339844 1550 l 257
 1044.98339844 1550 l 257
499.03125 61 m 257
 476.829101562 0 l 257
 768.829101562 0 l 257
 791.03125 61 l 257
 499.03125 61 l 257
EndSplineSet
EndChar

StartChar: E
Encoding: 69 69 24
GlifName: E_
Width: 2048
VWidth: 0
Flags: HW
LayerCount: 2
Fore
SplineSet
907.03125 1550 m 257
 342.876953125 0 l 257
 401.876953125 0 l 257
 966.03125 1550 l 257
 907.03125 1550 l 257
944.123046875 1553 m 257
 928.192382812 1490 l 257
 1682.19238281 1490 l 257
 1705.12304688 1553 l 257
 944.123046875 1553 l 257
407.71484375 60 m 257
 385.876953125 0 l 257
 1154.87695312 0 l 257
 1176.71484375 60 l 257
 407.71484375 60 l 257
697.52734375 859 m 257
 675.325195312 798 l 257
 1199.32519531 798 l 257
 1221.52734375 859 l 257
 697.52734375 859 l 257
EndSplineSet
EndChar

StartChar: Eng
Encoding: 330 330 33
GlifName: E_ng
Width: 2048
VWidth: 0
Flags: HW
LayerCount: 2
Fore
SplineSet
677.625 -211 m 257
 605.922851562 -408 l 257
 992.922851562 -408 l 257
 1064.625 -211 l 257
 677.625 -211 l 257
884.73828125 1490 m 257
 342.422851562 0 l 257
 543.422851562 0 l 257
 1085.73828125 1490 l 257
 884.73828125 1490 l 257
1478.64257812 1476 m 257
 792.922851562 -408 l 257
 993.922851562 -408 l 257
 1679.64257812 1476 l 257
 1478.64257812 1476 l 257
906.577148438 1550 m 257
 834.875 1353 l 257
 1633.875 1353 l 257
 1705.57714844 1550 l 257
 906.577148438 1550 l 257
EndSplineSet
EndChar

StartChar: Eth
Encoding: 208 208 35
GlifName: E_th
Width: 2048
VWidth: 0
Flags: HW
LayerCount: 2
Fore
SplineSet
667.641601562 935 m 257
 645.075195312 873 l 257
 952.075195312 873 l 257
 974.641601562 935 l 257
 667.641601562 935 l 257
999.575195312 1553 m 257
 434.329101562 0 l 257
 495.329101562 0 l 257
 1060.57519531 1553 l 257
 999.575195312 1553 l 257
1325.57519531 1553 m 257
 1300.4609375 1484 l 257
 1592.19628906 964 l 257
 1613.67089844 1023 l 257
 1325.57519531 1553 l 257
790.166992188 60 m 257
 768.329101562 0 l 257
 1592.19628906 964 l 257
 1613.67089844 1023 l 257
 790.166992188 60 l 257
1039.57519531 1553 m 257
 1014.4609375 1484 l 257
 1300.4609375 1484 l 257
 1325.57519531 1553 l 257
 1039.57519531 1553 l 257
504.166992188 60 m 257
 482.329101562 0 l 257
 768.329101562 0 l 257
 790.166992188 60 l 257
 504.166992188 60 l 257
EndSplineSet
EndChar

StartChar: Euro
Encoding: 8364 8364 36
GlifName: E_uro
Width: 2048
VWidth: 0
Flags: HW
LayerCount: 2
Fore
SplineSet
533.239257812 520 m 257
 508.125 451 l 257
 1145.125 451 l 257
 1170.23925781 520 l 257
 533.239257812 520 l 257
667.533203125 856 m 257
 642.783203125 788 l 257
 1251.78320312 788 l 257
 1276.53320312 856 l 257
 667.533203125 856 l 257
984.31640625 1023 m 257
 677.125 179 l 257
 757.125 179 l 257
 1064.31640625 1023 l 257
 984.31640625 1023 l 257
1524.33789062 1633 m 257
 984.31640625 1023 l 257
 1064.31640625 1023 l 257
 1539.875 1607 l 257
 1524.33789062 1633 l 257
677.125 179 m 257
 808.203125 -406 l 257
 868.203125 -406 l 257
 757.125 179 l 257
 677.125 179 l 257
EndSplineSet
EndChar

StartChar: F
Encoding: 70 70 37
GlifName: F_
Width: 2048
VWidth: 0
Flags: HW
LayerCount: 2
Fore
SplineSet
900.623046875 1553 m 257
 335.376953125 0 l 257
 393.376953125 0 l 257
 958.623046875 1553 l 257
 900.623046875 1553 l 257
958.623046875 1553 m 257
 938.240234375 1497 l 257
 1692.24023438 1497 l 257
 1712.62304688 1553 l 257
 958.623046875 1553 l 257
699.84765625 864 m 257
 678.737304688 806 l 257
 1268.73730469 806 l 257
 1289.84765625 864 l 257
 699.84765625 864 l 257
EndSplineSet
EndChar

StartChar: G
Encoding: 71 71 38
GlifName: G_
Width: 2048
VWidth: 0
Flags: HW
LayerCount: 2
Fore
SplineSet
923.255859375 1529 m 257
 366.744140625 0 l 257
 425.744140625 0 l 257
 982.255859375 1529 l 257
 923.255859375 1529 l 257
976.255859375 1529 m 257
 954.416015625 1469 l 257
 1659.41601562 1469 l 257
 1681.25585938 1529 l 257
 976.255859375 1529 l 257
419.58203125 60 m 257
 397.744140625 0 l 257
 1160.74414062 0 l 257
 1182.58203125 60 l 257
 419.58203125 60 l 257
1303.93164062 561 m 257
 1106.296875 18 l 257
 1167.296875 18 l 257
 1364.93164062 561 l 257
 1303.93164062 561 l 257
EndSplineSet
EndChar

StartChar: H
Encoding: 72 72 43
GlifName: H_
Width: 2048
VWidth: 0
Flags: HW
LayerCount: 2
Fore
SplineSet
908.623046875 1553 m 257
 343.376953125 0 l 257
 402.376953125 0 l 257
 967.623046875 1553 l 257
 908.623046875 1553 l 257
1643.62304688 1553 m 257
 1078.37695312 0 l 257
 1139.37695312 0 l 257
 1704.62304688 1553 l 257
 1643.62304688 1553 l 257
721.321289062 923 m 257
 699.84765625 864 l 257
 1416.84765625 864 l 257
 1438.32128906 923 l 257
 721.321289062 923 l 257
EndSplineSet
EndChar

StartChar: Hbar
Encoding: 294 294 44
GlifName: H_bar
Width: 2048
VWidth: 0
Flags: HW
LayerCount: 2
Fore
SplineSet
891.547851562 1540 m 257
 331.033203125 0 l 257
 391.033203125 0 l 257
 951.547851562 1540 l 257
 891.547851562 1540 l 257
1627.54785156 1540 m 257
 1067.03320312 0 l 257
 1127.03320312 0 l 257
 1687.54785156 1540 l 257
 1627.54785156 1540 l 257
743.375 1023 m 257
 720.081054688 959 l 257
 1432.08105469 959 l 257
 1455.375 1023 l 257
 743.375 1023 l 257
792.966796875 1434 m 257
 771.127929688 1374 l 257
 1695.12792969 1374 l 257
 1716.96679688 1434 l 257
 792.966796875 1434 l 257
EndSplineSet
EndChar

StartChar: I
Encoding: 73 73 46
GlifName: I_
Width: 2048
VWidth: 0
Flags: HW
LayerCount: 2
Fore
SplineSet
964.485351562 1550 m 257
 942.283203125 1489 l 257
 1643.28320312 1489 l 257
 1665.48535156 1550 l 257
 964.485351562 1550 l 257
1275.74609375 1515 m 257
 736.706054688 34 l 257
 795.706054688 34 l 257
 1334.74609375 1515 l 257
 1275.74609375 1515 l 257
404.353515625 66 m 257
 382.514648438 6 l 257
 1138.51464844 6 l 257
 1160.35351562 66 l 257
 404.353515625 66 l 257
EndSplineSet
EndChar

StartChar: J
Encoding: 74 74 57
GlifName: J_
Width: 2048
VWidth: 0
Flags: HW
LayerCount: 2
Fore
SplineSet
1629.890625 1527 m 257
 1074.109375 0 l 257
 1134.109375 0 l 257
 1689.890625 1527 l 257
 1629.890625 1527 l 257
379.947265625 60 m 257
 358.109375 0 l 257
 1100.109375 0 l 257
 1121.94726562 60 l 257
 379.947265625 60 l 257
541.185546875 503 m 257
 367.935546875 27 l 257
 427.935546875 27 l 257
 601.185546875 503 l 257
 541.185546875 503 l 257
EndSplineSet
EndChar

StartChar: K
Encoding: 75 75 59
GlifName: K_
Width: 2048
VWidth: 0
Flags: HW
LayerCount: 2
Fore
SplineSet
983.258789062 1553 m 257
 419.833007812 5 l 257
 479.833007812 5 l 257
 1043.25878906 1553 l 257
 983.258789062 1553 l 257
845.442382812 1015 m 257
 819.600585938 944 l 257
 1628.16699219 1550 l 257
 1558.16699219 1550 l 257
 845.442382812 1015 l 257
815.9609375 934 m 257
 763.203125 844 l 257
 1048.01269531 0 l 257
 1098.01269531 0 l 257
 815.9609375 934 l 257
EndSplineSet
EndChar

StartChar: L
Encoding: 76 76 60
GlifName: L_
Width: 2048
VWidth: 0
Flags: HW
LayerCount: 2
Fore
SplineSet
1198.14453125 1553 m 257
 632.8984375 0 l 257
 692.8984375 0 l 257
 1258.14453125 1553 l 257
 1198.14453125 1553 l 257
670.1015625 61 m 257
 647.8984375 0 l 257
 1392.8984375 0 l 257
 1415.1015625 61 l 257
 670.1015625 61 l 257
EndSplineSet
EndChar

StartChar: Lcaron
Encoding: 317 317 62
GlifName: L_caron
Width: 2048
VWidth: 0
Flags: HW
LayerCount: 2
Fore
SplineSet
1095.9921875 1542 m 257
 534.75 0 l 257
 596.75 0 l 257
 1157.9921875 1542 l 257
 1095.9921875 1542 l 257
585.31640625 62 m 257
 562.75 0 l 257
 1370.75 0 l 257
 1393.31640625 62 l 257
 585.31640625 62 l 257
1473.25 1496 m 257
 1388.80859375 1264 l 257
 1428.80859375 1264 l 257
 1513.25 1496 l 257
 1473.25 1496 l 257
EndSplineSet
EndChar

StartChar: Lslash
Encoding: 321 321 64
GlifName: L_slash
Width: 2048
VWidth: 0
Flags: HW
LayerCount: 2
Fore
SplineSet
1156.09570312 1542 m 257
 594.853515625 0 l 257
 654.853515625 0 l 257
 1216.09570312 1542 l 257
 1156.09570312 1542 l 257
642.146484375 64 m 257
 618.853515625 0 l 257
 1429.85351562 0 l 257
 1453.14648438 64 l 257
 642.146484375 64 l 257
768.154296875 902 m 257
 835.05078125 866 l 257
 1342.57226562 1068 l 257
 1275.67578125 1104 l 257
 768.154296875 902 l 257
EndSplineSet
EndChar

StartChar: M
Encoding: 77 77 65
GlifName: M_
Width: 2048
VWidth: 0
Flags: HW
LayerCount: 2
Fore
SplineSet
894.623046875 1553 m 257
 329.376953125 0 l 257
 389.376953125 0 l 257
 954.623046875 1553 l 257
 894.623046875 1553 l 257
1656.62304688 1553 m 257
 1091.37695312 0 l 257
 1153.37695312 0 l 257
 1718.62304688 1553 l 257
 1656.62304688 1553 l 257
894.623046875 1553 m 257
 1081.35839844 1033 l 257
 1149.35839844 1033 l 257
 954.623046875 1553 l 257
 894.623046875 1553 l 257
1656.62304688 1553 m 257
 1081.35839844 1033 l 257
 1149.35839844 1033 l 257
 1718.62304688 1553 l 257
 1656.62304688 1553 l 257
EndSplineSet
EndChar

StartChar: N
Encoding: 78 78 66
GlifName: N_
Width: 2048
VWidth: 0
Flags: HW
LayerCount: 2
Fore
SplineSet
892.623046875 1553 m 257
 327.376953125 0 l 257
 387.376953125 0 l 257
 952.623046875 1553 l 257
 892.623046875 1553 l 257
1660.62304688 1553 m 257
 1095.37695312 0 l 257
 1155.37695312 0 l 257
 1720.62304688 1553 l 257
 1660.62304688 1553 l 257
892.623046875 1553 m 257
 1095.37695312 0 l 257
 1155.37695312 0 l 257
 952.623046875 1553 l 257
 892.623046875 1553 l 257
EndSplineSet
EndChar

StartChar: O
Encoding: 79 79 70
GlifName: O_
Width: 2048
VWidth: 0
Flags: HW
LayerCount: 2
Fore
SplineSet
906.623046875 1553 m 257
 341.376953125 0 l 257
 400.376953125 0 l 257
 965.623046875 1553 l 257
 906.623046875 1553 l 257
1647.62304688 1553 m 257
 1082.37695312 0 l 257
 1141.37695312 0 l 257
 1706.62304688 1553 l 257
 1647.62304688 1553 l 257
944.623046875 1553 m 257
 922.784179688 1493 l 257
 1654.78417969 1493 l 257
 1676.62304688 1553 l 257
 944.623046875 1553 l 257
403.579101562 61 m 257
 381.376953125 0 l 257
 1119.37695312 0 l 257
 1141.57910156 61 l 257
 403.579101562 61 l 257
EndSplineSet
EndChar

StartChar: OE
Encoding: 338 338 71
GlifName: O_E_
Width: 2048
VWidth: 0
Flags: HW
LayerCount: 2
Fore
SplineSet
921.623046875 1553 m 257
 356.376953125 0 l 257
 415.376953125 0 l 257
 980.623046875 1553 l 257
 921.623046875 1553 l 257
1385.62304688 1553 m 257
 820.376953125 0 l 257
 879.376953125 0 l 257
 1444.62304688 1553 l 257
 1385.62304688 1553 l 257
959.623046875 1553 m 257
 937.784179688 1493 l 257
 1669.78417969 1493 l 257
 1691.62304688 1553 l 257
 959.623046875 1553 l 257
418.579101562 61 m 257
 396.376953125 0 l 257
 1134.37695312 0 l 257
 1156.57910156 61 l 257
 418.579101562 61 l 257
1165.02734375 859 m 257
 1142.82519531 798 l 257
 1365.82519531 798 l 257
 1388.02734375 859 l 257
 1165.02734375 859 l 257
EndSplineSet
EndChar

StartChar: Oslash
Encoding: 216 216 80
GlifName: O_slash
Width: 2048
VWidth: 0
Flags: HW
LayerCount: 2
Fore
SplineSet
1724.01464844 1630 m 257
 283.272460938 -48 l 257
 313.4453125 -75 l 257
 1764.72753906 1588 l 257
 1724.01464844 1630 l 257
899.2578125 1540 m 257
 338.743164062 0 l 257
 398.743164062 0 l 257
 959.2578125 1540 l 257
 899.2578125 1540 l 257
1639.16503906 1537 m 257
 1079.74316406 0 l 257
 1138.74316406 0 l 257
 1698.16503906 1537 l 257
 1639.16503906 1537 l 257
928.529296875 1538 m 257
 906.69140625 1478 l 257
 1646.69140625 1478 l 257
 1668.52929688 1538 l 257
 928.529296875 1538 l 257
406.041015625 75 m 257
 378.743164062 0 l 257
 1079.74316406 0 l 257
 1107.04101562 75 l 257
 406.041015625 75 l 257
EndSplineSet
EndChar

StartChar: P
Encoding: 80 80 83
GlifName: P_
Width: 2048
VWidth: 0
Flags: HW
LayerCount: 2
Fore
SplineSet
920.6171875 1535 m 257
 361.922851562 0 l 257
 420.922851562 0 l 257
 979.6171875 1535 l 257
 920.6171875 1535 l 257
926.077148438 1550 m 257
 897.6875 1472 l 257
 1657.6875 1472 l 257
 1686.07714844 1550 l 257
 926.077148438 1550 l 257
1619.98144531 1536 m 257
 1378.3046875 872 l 257
 1439.3046875 872 l 257
 1680.98144531 1536 l 257
 1619.98144531 1536 l 257
745.779296875 931 m 257
 723.94140625 871 l 257
 1410.94140625 871 l 257
 1432.77929688 931 l 257
 745.779296875 931 l 257
EndSplineSet
EndChar

StartChar: Q
Encoding: 81 81 84
GlifName: Q_
Width: 2048
VWidth: 0
Flags: HW
LayerCount: 2
Fore
SplineSet
906.623046875 1553 m 257
 341.376953125 0 l 257
 399.376953125 0 l 257
 964.623046875 1553 l 257
 906.623046875 1553 l 257
1648.62304688 1553 m 257
 1083.37695312 0 l 257
 1141.37695312 0 l 257
 1706.62304688 1553 l 257
 1648.62304688 1553 l 257
946.623046875 1553 m 257
 925.875976562 1496 l 257
 1635.87597656 1496 l 257
 1656.62304688 1553 l 257
 946.623046875 1553 l 257
403.943359375 62 m 257
 381.376953125 0 l 257
 1093.37695312 0 l 257
 1115.94335938 62 l 257
 403.943359375 62 l 257
850.108398438 13 m 257
 877.126953125 -204 l 257
 953.322265625 -165 l 257
 912.303710938 52 l 257
 850.108398438 13 l 257
EndSplineSet
EndChar

StartChar: R
Encoding: 82 82 85
GlifName: R_
Width: 2048
VWidth: 0
Flags: HW
LayerCount: 2
Fore
SplineSet
925.077148438 1550 m 257
 360.922851562 0 l 257
 420.922851562 0 l 257
 985.077148438 1550 l 257
 925.077148438 1550 l 257
967.077148438 1550 m 257
 945.602539062 1491 l 257
 1637.60253906 1491 l 257
 1659.07714844 1550 l 257
 967.077148438 1550 l 257
1625.07714844 1550 m 257
 1378.3046875 872 l 257
 1440.3046875 872 l 257
 1687.07714844 1550 l 257
 1625.07714844 1550 l 257
729.05078125 929 m 257
 706.848632812 868 l 257
 1426.84863281 868 l 257
 1449.05078125 929 l 257
 729.05078125 929 l 257
971.396484375 875 m 257
 1084.92285156 0 l 257
 1140.92285156 0 l 257
 1029.39648438 875 l 257
 971.396484375 875 l 257
EndSplineSet
EndChar

StartChar: S
Encoding: 83 83 88
GlifName: S_
Width: 2048
VWidth: 0
Flags: HW
LayerCount: 2
Fore
SplineSet
993.623046875 1553 m 257
 972.1484375 1494 l 257
 1570.1484375 1494 l 257
 1591.62304688 1553 l 257
 993.623046875 1553 l 257
989.619140625 1542 m 257
 802.538085938 1028 l 257
 861.538085938 1028 l 257
 1048.61914062 1542 l 257
 989.619140625 1542 l 257
478.21484375 60 m 257
 456.376953125 0 l 257
 1164.37695312 0 l 257
 1186.21484375 60 l 257
 478.21484375 60 l 257
1141.37695312 0 m 257
 1200.37695312 0 l 257
 1329.5859375 355 l 257
 1270.5859375 355 l 257
 1141.37695312 0 l 257
802.538085938 1028 m 257
 1270.5859375 355 l 257
 1329.5859375 355 l 257
 861.538085938 1028 l 257
 802.538085938 1028 l 257
EndSplineSet
EndChar

StartChar: T
Encoding: 84 84 93
GlifName: T_
Width: 2048
VWidth: 0
Flags: HW
LayerCount: 2
Fore
SplineSet
730.439453125 1553 m 257
 708.96484375 1494 l 257
 1492.96484375 1494 l 257
 1514.43945312 1553 l 257
 730.439453125 1553 l 257
1079.51660156 1512 m 257
 533.560546875 12 l 257
 591.560546875 12 l 257
 1137.51660156 1512 l 257
 1079.51660156 1512 l 257
EndSplineSet
EndChar

StartChar: Thorn
Encoding: 222 222 95
GlifName: T_horn
Width: 2048
VWidth: 0
Flags: HW
LayerCount: 2
Fore
SplineSet
979.579101562 1542 m 257
 421.612304688 9 l 257
 481.612304688 9 l 257
 1039.57910156 1542 l 257
 979.579101562 1542 l 257
917.66015625 1240 m 257
 898.369140625 1187 l 257
 1586.36914062 1187 l 257
 1605.66015625 1240 l 257
 917.66015625 1240 l 257
1566.38769531 1242 m 257
 1307.60546875 531 l 257
 1367.60546875 531 l 257
 1626.38769531 1242 l 257
 1566.38769531 1242 l 257
684.336914062 544 m 257
 662.498046875 484 l 257
 1348.49804688 484 l 257
 1370.33691406 544 l 257
 684.336914062 544 l 257
EndSplineSet
EndChar

StartChar: U
Encoding: 85 85 96
GlifName: U_
Width: 2048
VWidth: 0
Flags: HW
LayerCount: 2
Fore
SplineSet
951.623046875 1553 m 257
 386.376953125 0 l 257
 448.376953125 0 l 257
 1013.62304688 1553 l 257
 951.623046875 1553 l 257
1601.62304688 1553 m 257
 1036.37695312 0 l 257
 1096.37695312 0 l 257
 1661.62304688 1553 l 257
 1601.62304688 1553 l 257
455.579101562 61 m 257
 433.376953125 0 l 257
 1053.37695312 0 l 257
 1075.57910156 61 l 257
 455.579101562 61 l 257
EndSplineSet
EndChar

StartChar: V
Encoding: 86 86 108
GlifName: V_
Width: 2048
VWidth: 0
Flags: HW
LayerCount: 2
Fore
SplineSet
696.623046875 1553 m 257
 539.376953125 0 l 257
 599.376953125 0 l 257
 760.623046875 1553 l 257
 696.623046875 1553 l 257
1438.62304688 1553 m 257
 539.376953125 0 l 257
 599.376953125 0 l 257
 1508.62304688 1553 l 257
 1438.62304688 1553 l 257
EndSplineSet
EndChar

StartChar: W
Encoding: 87 87 109
GlifName: W_
Width: 2048
VWidth: 0
Flags: HW
LayerCount: 2
Fore
SplineSet
900.170898438 1550 m 257
 336.016601562 0 l 257
 396.016601562 0 l 257
 960.170898438 1550 l 257
 900.170898438 1550 l 257
1651.98339844 1533 m 257
 1098.38378906 12 l 257
 1158.38378906 12 l 257
 1711.98339844 1533 l 257
 1651.98339844 1533 l 257
1089.17773438 1028 m 257
 715.016601562 0 l 257
 775.016601562 0 l 257
 1149.17773438 1028 l 257
 1089.17773438 1028 l 257
365.854492188 60 m 257
 344.016601562 0 l 257
 1154.01660156 0 l 257
 1175.85449219 60 l 257
 365.854492188 60 l 257
EndSplineSet
EndChar

StartChar: X
Encoding: 88 88 114
GlifName: X_
Width: 2048
VWidth: 0
Flags: HW
LayerCount: 2
Fore
SplineSet
888.623046875 1553 m 257
 1165.37695312 0 l 257
 1239.37695312 0 l 257
 960.623046875 1553 l 257
 888.623046875 1553 l 257
339.376953125 0 m 257
 397.376953125 0 l 257
 1708.62304688 1553 l 257
 1632.62304688 1553 l 257
 339.376953125 0 l 257
EndSplineSet
EndChar

StartChar: Y
Encoding: 89 89 115
GlifName: Y_
Width: 2048
VWidth: 0
Flags: HW
LayerCount: 2
Fore
SplineSet
883.723632812 895 m 257
 557.970703125 0 l 257
 616.970703125 0 l 257
 942.723632812 895 l 257
 883.723632812 895 l 257
813.125 1550 m 257
 561.62109375 859 l 257
 622.62109375 859 l 257
 874.125 1550 l 257
 813.125 1550 l 257
1430.02929688 1536 m 257
 1183.62109375 859 l 257
 1243.62109375 859 l 257
 1490.02929688 1536 l 257
 1430.02929688 1536 l 257
629.458984375 919 m 257
 607.62109375 859 l 257
 1216.62109375 859 l 257
 1238.45898438 919 l 257
 629.458984375 919 l 257
EndSplineSet
EndChar

StartChar: Z
Encoding: 90 90 120
GlifName: Z_
Width: 2048
VWidth: 0
Flags: HW
LayerCount: 2
Fore
SplineSet
891.577148438 1550 m 257
 870.102539062 1491 l 257
 1698.10253906 1491 l 257
 1719.57714844 1550 l 257
 891.577148438 1550 l 257
350.260742188 60 m 257
 328.422851562 0 l 257
 1155.42285156 0 l 257
 1177.26074219 60 l 257
 350.260742188 60 l 257
1638.10253906 1491 m 257
 350.260742188 60 l 257
 410.260742188 60 l 257
 1698.10253906 1491 l 257
 1638.10253906 1491 l 257
EndSplineSet
EndChar

StartChar: a
Encoding: 97 97 124
GlifName: a
Width: 2048
VWidth: 0
Flags: HW
LayerCount: 2
Fore
SplineSet
864.534179688 1024 m 257
 840.1484375 957 l 257
 1489.1484375 957 l 257
 1513.17089844 1023 l 257
 864.534179688 1024 l 257
1475.17089844 1023 m 257
 1102.82910156 0 l 257
 1179.82910156 0 l 257
 1552.17089844 1023 l 257
 1475.17089844 1023 l 257
713.2109375 600 m 257
 690.645507812 538 l 257
 1314.64550781 538 l 257
 1337.2109375 600 l 257
 713.2109375 600 l 257
705.83984375 577 m 257
 495.829101562 0 l 257
 566.829101562 0 l 257
 776.83984375 577 l 257
 705.83984375 577 l 257
531.762695312 74 m 257
 504.829101562 0 l 257
 1168.82910156 0 l 257
 1195.76269531 74 l 257
 531.762695312 74 l 257
EndSplineSet
EndChar

StartChar: acute
Encoding: 180 180 128
GlifName: acute
Width: 2048
VWidth: 0
Flags: HW
LayerCount: 2
Fore
SplineSet
1097.82226562 1553 m 257
 876.46484375 1302 l 257
 947.72265625 1256 l 257
 1171.53515625 1511 l 257
 1097.82226562 1553 l 257
EndSplineSet
EndChar

StartChar: acutecomb
Encoding: 769 769 129
GlifName: acutecomb
Width: 2048
VWidth: 0
Flags: HW
LayerCount: 2
Fore
SplineSet
1076.85546875 949 m 257
 930.51953125 764 l 257
 971.14453125 730 l 257
 1117.48046875 915 l 257
 1076.85546875 949 l 257
EndSplineSet
EndChar

StartChar: ae
Encoding: 230 230 131
GlifName: ae
Width: 2048
VWidth: 0
Flags: HW
LayerCount: 2
Fore
SplineSet
739.170898438 1023 m 257
 716.604492188 961 l 257
 1606.60449219 961 l 257
 1629.17089844 1023 l 257
 739.170898438 1023 l 257
1209.17089844 1023 m 257
 836.829101562 0 l 257
 896.829101562 0 l 257
 1269.17089844 1023 l 257
 1209.17089844 1023 l 257
608.84765625 599 m 257
 586.645507812 538 l 257
 1426.64550781 538 l 257
 1448.84765625 599 l 257
 608.84765625 599 l 257
600.112304688 575 m 257
 390.829101562 0 l 257
 450.829101562 0 l 257
 660.112304688 575 l 257
 600.112304688 575 l 257
411.03125 61 m 257
 388.829101562 0 l 257
 1308.82910156 0 l 257
 1331.03125 61 l 257
 411.03125 61 l 257
1597.17089844 1023 m 257
 1420.64550781 538 l 257
 1482.64550781 538 l 257
 1659.17089844 1023 l 257
 1597.17089844 1023 l 257
EndSplineSet
EndChar

StartChar: ampersand
Encoding: 38 38 135
GlifName: ampersand
Width: 2048
VWidth: 0
Flags: HW
LayerCount: 2
Fore
SplineSet
1105.70898438 1534 m 257
 1081.02929688 43 l 257
 1161.76171875 56 l 257
 1183.70898438 1534 l 257
 1105.70898438 1534 l 257
1625.32324219 1467 m 257
 1650.4375 1536 l 257
 1184.4375 1536 l 257
 1159.32324219 1467 l 257
 1625.32324219 1467 l 257
1573.875 1485 m 257
 1399.53320312 1006 l 257
 1457.53320312 1006 l 257
 1631.875 1485 l 257
 1573.875 1485 l 257
775.727539062 1045 m 257
 753.889648438 985 l 257
 1449.88964844 985 l 257
 1471.72753906 1045 l 257
 775.727539062 1045 l 257
775.727539062 1045 m 257
 404.114257812 24 l 257
 494.114257812 24 l 257
 865.727539062 1045 l 257
 775.727539062 1045 l 257
421.220703125 71 m 257
 397.5625 6 l 257
 1205.5625 6 l 257
 1229.22070312 71 l 257
 421.220703125 71 l 257
EndSplineSet
EndChar

StartChar: asciicircum
Encoding: 94 94 139
GlifName: asciicircum
Width: 2048
VWidth: 0
Flags: HW
LayerCount: 2
Fore
SplineSet
1247.48046875 1023 m 257
 1175.48046875 1023 l 257
 687.2734375 407 l 257
 728.8984375 373 l 257
 1247.48046875 1023 l 257
1184.02734375 1030 m 257
 1265.62304688 364 l 257
 1360.7265625 400 l 257
 1258.02734375 1030 l 257
 1184.02734375 1030 l 257
EndSplineSet
EndChar

StartChar: asciitilde
Encoding: 126 126 140
GlifName: asciitilde
Width: 2048
VWidth: 0
Flags: HW
LayerCount: 2
Fore
SplineSet
884.732421875 766 m 257
 866.53515625 716 l 257
 1190.69335938 645 l 257
 1208.890625 695 l 257
 884.732421875 766 l 257
624.3515625 710 m 257
 617.240234375 652 l 257
 866.53515625 716 l 257
 884.732421875 766 l 257
 624.3515625 710 l 257
1208.890625 695 m 257
 1190.69335938 645 l 257
 1427.65234375 796 l 257
 1430.75976562 843 l 257
 1208.890625 695 l 257
EndSplineSet
EndChar

StartChar: asterisk
Encoding: 42 42 141
GlifName: asterisk
Width: 2048
VWidth: 0
Flags: HW
LayerCount: 2
Fore
SplineSet
1201.98632812 1297 m 257
 835.10546875 289 l 257
 935.10546875 289 l 257
 1301.98632812 1297 l 257
 1201.98632812 1297 l 257
803.57421875 1153 m 257
 1262.24023438 424 l 257
 1356.44726562 496 l 257
 888.689453125 1222 l 257
 803.57421875 1153 l 257
1520.68164062 1200 m 257
 499.33984375 449 l 257
 537.142578125 399 l 257
 1548.66015625 1134 l 257
 1520.68164062 1200 l 257
EndSplineSet
EndChar

StartChar: at
Encoding: 64 64 142
GlifName: at
Width: 2048
VWidth: 0
Flags: HW
LayerCount: 2
Fore
SplineSet
825.302734375 1023 m 257
 800.916015625 956 l 257
 1698.91601562 956 l 257
 1723.30273438 1023 l 257
 825.302734375 1023 l 257
1328.61523438 598 m 257
 1110.9609375 0 l 257
 1178.9609375 0 l 257
 1396.61523438 598 l 257
 1328.61523438 598 l 257
909.70703125 601 m 257
 891.509765625 551 l 257
 1315.50976562 551 l 257
 1333.70703125 601 l 257
 909.70703125 601 l 257
901.33984375 589 m 257
 691.328125 12 l 257
 745.328125 12 l 257
 955.33984375 589 l 257
 901.33984375 589 l 257
712.623046875 76 m 257
 684.9609375 0 l 257
 1178.9609375 0 l 257
 1206.62304688 76 l 257
 712.623046875 76 l 257
771.302734375 1023 m 257
 317.796875 -223 l 257
 383.796875 -223 l 257
 837.302734375 1023 l 257
 771.302734375 1023 l 257
331.810546875 -179 m 257
 303.056640625 -258 l 257
 1251.05664062 -258 l 257
 1279.81054688 -179 l 257
 331.810546875 -179 l 257
1658.94335938 1033 m 257
 1282.9609375 0 l 257
 1368.9609375 0 l 257
 1744.94335938 1033 l 257
 1658.94335938 1033 l 257
1152.62304688 76 m 257
 1124.9609375 0 l 257
 1314.9609375 0 l 257
 1342.62304688 76 l 257
 1152.62304688 76 l 257
EndSplineSet
EndChar

StartChar: b
Encoding: 98 98 144
GlifName: b
Width: 2048
VWidth: 0
Flags: HW
LayerCount: 2
Fore
SplineSet
1018.06835938 1536 m 257
 459.009765625 0 l 257
 519.009765625 0 l 257
 1078.06835938 1536 l 257
 1018.06835938 1536 l 257
877.990234375 1033 m 257
 855.7890625 972 l 257
 1519.7890625 972 l 257
 1541.99023438 1033 l 257
 877.990234375 1033 l 257
1528.99023438 1033 m 257
 1153.00976562 0 l 257
 1213.00976562 0 l 257
 1588.99023438 1033 l 257
 1528.99023438 1033 l 257
515.84765625 60 m 257
 494.009765625 0 l 257
 1191.00976562 0 l 257
 1212.84765625 60 l 257
 515.84765625 60 l 257
EndSplineSet
EndChar

StartChar: backslash
Encoding: 92 92 145
GlifName: backslash
Width: 2048
VWidth: 0
Flags: HW
LayerCount: 2
Fore
SplineSet
986.577148438 1550 m 257
 978.422851562 0 l 257
 1056.42285156 0 l 257
 1069.57714844 1550 l 257
 986.577148438 1550 l 257
EndSplineSet
EndChar

StartChar: bar
Encoding: 124 124 146
GlifName: bar
Width: 2048
VWidth: 0
Flags: HW
LayerCount: 2
Fore
SplineSet
1261.52734375 1435 m 257
 706.47265625 -90 l 257
 786.47265625 -90 l 257
 1341.52734375 1435 l 257
 1261.52734375 1435 l 257
EndSplineSet
EndChar

StartChar: braceleft
Encoding: 123 123 147
GlifName: braceleft
Width: 2048
VWidth: 0
Flags: HW
LayerCount: 2
Fore
SplineSet
1203.79492188 1544 m 257
 946.83203125 838 l 257
 1030.83203125 838 l 257
 1287.79492188 1544 l 257
 1203.79492188 1544 l 257
808.1484375 424 m 257
 549.73046875 -286 l 257
 639.73046875 -286 l 257
 898.1484375 424 l 257
 808.1484375 424 l 257
603.96484375 690 m 257
 582.126953125 630 l 257
 1030.83203125 838 l 257
 946.83203125 838 l 257
 603.96484375 690 l 257
603.96484375 690 m 257
 582.126953125 630 l 257
 806.513671875 425 l 257
 899.513671875 425 l 257
 603.96484375 690 l 257
1226.26953125 1603 m 257
 1171.31054688 1452 l 257
 1483.71484375 1574 l 257
 1498.26953125 1603 l 257
 1226.26953125 1603 l 257
603.869140625 -140 m 257
 550.3671875 -287 l 257
 826.3671875 -287 l 257
 831.09765625 -274 l 257
 603.869140625 -140 l 257
EndSplineSet
EndChar

StartChar: braceright
Encoding: 125 125 148
GlifName: braceright
Width: 2048
VWidth: 0
Flags: HW
LayerCount: 2
Fore
SplineSet
1497.93164062 1544 m 257
 1397.93164062 1544 l 257
 1140.96875 838 l 257
 1240.96875 838 l 257
 1497.93164062 1544 l 257
1076.28515625 424 m 257
 983.28515625 424 l 257
 724.865234375 -286 l 257
 817.865234375 -286 l 257
 1076.28515625 424 l 257
1460.1015625 690 m 257
 1235.96875 838 l 257
 1136.96875 838 l 257
 1438.26171875 630 l 257
 1460.1015625 690 l 257
1460.1015625 690 m 257
 983.28515625 424 l 257
 1076.28515625 424 l 257
 1438.26171875 630 l 257
 1460.1015625 690 l 257
1520.40625 1603 m 257
 1245.40625 1603 l 257
 1238.84960938 1574 l 257
 1465.4453125 1452 l 257
 1520.40625 1603 l 257
856.005859375 -140 m 257
 531.234375 -274 l 257
 527.59375 -284 l 257
 803.59375 -284 l 257
 856.005859375 -140 l 257
EndSplineSet
EndChar

StartChar: bracketleft
Encoding: 91 91 149
GlifName: bracketleft
Width: 2048
VWidth: 0
Flags: HW
LayerCount: 2
Fore
SplineSet
1216.97949219 1542 m 257
 567.65625 -242 l 257
 624.65625 -242 l 257
 1273.97949219 1542 l 257
 1216.97949219 1542 l 257
1271.34375 1543 m 257
 1248.77734375 1481 l 257
 1457.77734375 1481 l 257
 1480.34375 1543 l 257
 1271.34375 1543 l 257
630.58984375 -168 m 257
 603.65625 -242 l 257
 835.65625 -242 l 257
 862.58984375 -168 l 257
 630.58984375 -168 l 257
EndSplineSet
EndChar

StartChar: bracketright
Encoding: 93 93 150
GlifName: bracketright
Width: 2048
VWidth: 0
Flags: HW
LayerCount: 2
Fore
SplineSet
1423.66210938 1542 m 257
 774.337890625 -242 l 257
 836.337890625 -242 l 257
 1485.66210938 1542 l 257
 1423.66210938 1542 l 257
1212.02539062 1543 m 257
 1188.3671875 1478 l 257
 1416.3671875 1478 l 257
 1440.02539062 1543 l 257
 1212.02539062 1543 l 257
590.365234375 -165 m 257
 562.337890625 -242 l 257
 801.337890625 -242 l 257
 829.365234375 -165 l 257
 590.365234375 -165 l 257
EndSplineSet
EndChar

StartChar: breve
Encoding: 728 728 151
GlifName: breve
Width: 2048
VWidth: 0
Flags: HW
LayerCount: 2
Fore
SplineSet
1171.7109375 1550 m 257
 1146.23242188 1480 l 257
 1336.7109375 1550 l 257
 1371.2890625 1645 l 257
 1171.7109375 1550 l 257
847.7109375 1550 m 257
 822.232421875 1480 l 257
 1146.23242188 1480 l 257
 1171.7109375 1550 l 257
 847.7109375 1550 l 257
705.828125 1630 m 257
 676.7109375 1550 l 257
 822.232421875 1480 l 257
 847.7109375 1550 l 257
 705.828125 1630 l 257
EndSplineSet
EndChar

StartChar: brokenbar
Encoding: 166 166 152
GlifName: brokenbar
Width: 2048
VWidth: 0
Flags: HW
LayerCount: 2
Fore
SplineSet
643.853515625 -332 m 257
 687.853515625 -332 l 257
 1056.91894531 682 l 257
 1012.91894531 682 l 257
 643.853515625 -332 l 257
1059.22753906 790 m 257
 1096.22753906 790 l 257
 1404.14648438 1636 l 257
 1367.14648438 1636 l 257
 1059.22753906 790 l 257
EndSplineSet
EndChar

StartChar: bullet
Encoding: 8226 8226 153
GlifName: bullet
Width: 2048
VWidth: 0
Flags: HW
LayerCount: 2
Fore
SplineSet
977.02734375 1009 m 257
 916.97265625 844 l 257
 1070.97265625 844 l 257
 1131.02734375 1009 l 257
 977.02734375 1009 l 257
EndSplineSet
EndChar

StartChar: c
Encoding: 99 99 154
GlifName: c
Width: 2048
VWidth: 0
Flags: HW
LayerCount: 2
Fore
SplineSet
861.170898438 1023 m 257
 840.788085938 967 l 257
 1536.78808594 967 l 257
 1557.17089844 1023 l 257
 861.170898438 1023 l 257
848.975585938 984 m 257
 490.829101562 0 l 257
 550.829101562 0 l 257
 908.975585938 984 l 257
 848.975585938 984 l 257
560.666992188 60 m 257
 538.829101562 0 l 257
 1178.82910156 0 l 257
 1200.66699219 60 l 257
 560.666992188 60 l 257
EndSplineSet
EndChar

StartChar: caron
Encoding: 711 711 156
GlifName: caron
Width: 2048
VWidth: 0
Flags: HW
LayerCount: 2
Fore
SplineSet
909.44140625 1068 m 257
 887.458984375 1395 l 257
 854.271484375 1378 l 257
 873.44140625 1068 l 257
 909.44140625 1068 l 257
876.078125 1067 m 257
 913.078125 1067 l 257
 1193.72851562 1382 l 257
 1159.27929688 1400 l 257
 876.078125 1067 l 257
EndSplineSet
EndChar

StartChar: cedilla
Encoding: 184 184 161
GlifName: cedilla
Width: 2048
VWidth: 0
Flags: HW
LayerCount: 2
Fore
SplineSet
934.764648438 236 m 257
 848.8671875 0 l 257
 906.8671875 0 l 257
 992.764648438 236 l 257
 934.764648438 236 l 257
748.952148438 -291 m 257
 726.75 -352 l 257
 1172.75 -352 l 257
 1194.95214844 -291 l 257
 748.952148438 -291 l 257
1262.25 56 m 257
 1126.85253906 -316 l 257
 1185.85253906 -316 l 257
 1321.25 56 l 257
 1262.25 56 l 257
875.25 56 m 257
 854.8671875 0 l 257
 1300.8671875 0 l 257
 1321.25 56 l 257
 875.25 56 l 257
EndSplineSet
EndChar

StartChar: cent
Encoding: 162 162 162
GlifName: cent
Width: 2048
VWidth: 0
Flags: HW
LayerCount: 2
Fore
SplineSet
1359.40625 1183 m 257
 1299.40625 1183 l 257
 837.52734375 -86 l 257
 897.52734375 -86 l 257
 1359.40625 1183 l 257
861.170898438 1023 m 257
 840.424804688 966 l 257
 1536.42480469 966 l 257
 1557.17089844 1023 l 257
 861.170898438 1023 l 257
848.975585938 984 m 257
 490.829101562 0 l 257
 555.829101562 0 l 257
 913.975585938 984 l 257
 848.975585938 984 l 257
562.03125 61 m 257
 539.829101562 0 l 257
 1178.82910156 0 l 257
 1201.03125 61 l 257
 562.03125 61 l 257
EndSplineSet
EndChar

StartChar: circumflex
Encoding: 710 710 163
GlifName: circumflex
Width: 2048
VWidth: 0
Flags: HW
LayerCount: 2
Fore
SplineSet
1136.55859375 2308 m 257
 1100.55859375 2308 l 257
 855.728515625 1998 l 257
 876.541015625 1981 l 257
 1136.55859375 2308 l 257
1104.28710938 2310 m 257
 1144.72070312 1976 l 257
 1192.27148438 1994 l 257
 1141.28710938 2310 l 257
 1104.28710938 2310 l 257
EndSplineSet
EndChar

StartChar: colon
Encoding: 58 58 164
GlifName: colon
Width: 2048
VWidth: 0
Flags: HW
LayerCount: 2
Fore
SplineSet
913.779296875 164 m 257
 856.63671875 7 l 257
 992.63671875 7 l 257
 1049.77929688 164 l 257
 913.779296875 164 l 257
1055.36328125 553 m 257
 998.220703125 396 l 257
 1134.22070312 396 l 257
 1191.36328125 553 l 257
 1055.36328125 553 l 257
EndSplineSet
EndChar

StartChar: comma
Encoding: 44 44 165
GlifName: comma
Width: 2048
VWidth: 0
Flags: HW
LayerCount: 2
Fore
SplineSet
984.571289062 165 m 257
 927.428710938 8 l 257
 1063.42871094 8 l 257
 1120.57128906 165 l 257
 984.571289062 165 l 257
1057.65234375 135 m 257
 930.483398438 -99 l 257
 962.649414062 -148 l 257
 1067.97949219 26 l 257
 1057.65234375 135 l 257
EndSplineSet
EndChar

StartChar: copyright
Encoding: 169 169 166
GlifName: copyright
Width: 2048
VWidth: 0
Flags: HW
LayerCount: 2
Fore
SplineSet
804.803710938 1540 m 257
 244.2890625 0 l 257
 304.2890625 0 l 257
 864.803710938 1540 l 257
 804.803710938 1540 l 257
1743.7109375 1537 m 257
 1184.2890625 0 l 257
 1244.2890625 0 l 257
 1803.7109375 1537 l 257
 1743.7109375 1537 l 257
856.075195312 1538 m 257
 833.508789062 1476 l 257
 1777.50878906 1476 l 257
 1800.07519531 1538 l 257
 856.075195312 1538 l 257
278.126953125 60 m 257
 256.2890625 0 l 257
 1226.2890625 0 l 257
 1248.12695312 60 l 257
 278.126953125 60 l 257
925.961914062 1197 m 257
 903.395507812 1135 l 257
 1337.39550781 1135 l 257
 1359.96191406 1197 l 257
 925.961914062 1197 l 257
910.310546875 1154 m 257
 614.0390625 340 l 257
 674.0390625 340 l 257
 970.310546875 1154 l 257
 910.310546875 1154 l 257
619.862304688 356 m 257
 597.295898438 294 l 257
 1037.29589844 294 l 257
 1059.86230469 356 l 257
 619.862304688 356 l 257
EndSplineSet
EndChar

StartChar: currency
Encoding: 164 164 167
GlifName: currency
Width: 2048
VWidth: 0
Flags: HW
LayerCount: 2
Fore
SplineSet
796.533203125 1182 m 257
 424.5546875 160 l 257
 484.5546875 160 l 257
 856.533203125 1182 l 257
 796.533203125 1182 l 257
1555.25976562 1184 m 257
 1182.5546875 160 l 257
 1242.5546875 160 l 257
 1615.25976562 1184 l 257
 1555.25976562 1184 l 257
860.3515625 1187 m 257
 838.513671875 1127 l 257
 1538.51367188 1127 l 257
 1560.3515625 1187 l 257
 860.3515625 1187 l 257
493.12109375 222 m 257
 470.5546875 160 l 257
 1190.5546875 160 l 257
 1213.12109375 222 l 257
 493.12109375 222 l 257
747.646484375 1251 m 257
 706.154296875 1137 l 257
 850.154296875 1137 l 257
 891.646484375 1251 l 257
 747.646484375 1251 l 257
1580.0078125 1241 m 257
 1538.51367188 1127 l 257
 1680.51367188 1127 l 257
 1722.0078125 1241 l 257
 1580.0078125 1241 l 257
367.484375 223 m 257
 325.9921875 109 l 257
 469.9921875 109 l 257
 511.484375 223 l 257
 367.484375 223 l 257
1210.39257812 220 m 257
 1168.90039062 106 l 257
 1312.90039062 106 l 257
 1354.39257812 220 l 257
 1210.39257812 220 l 257
EndSplineSet
EndChar

StartChar: d
Encoding: 100 100 168
GlifName: d
Width: 2048
VWidth: 0
Flags: HW
LayerCount: 2
Fore
SplineSet
1621.890625 1527 m 257
 1066.109375 0 l 257
 1126.109375 0 l 257
 1681.890625 1527 l 257
 1621.890625 1527 l 257
782.451171875 1023 m 257
 761.705078125 966 l 257
 1451.70507812 966 l 257
 1472.45117188 1023 l 257
 782.451171875 1023 l 257
738.451171875 1023 m 257
 366.109375 0 l 257
 426.109375 0 l 257
 798.451171875 1023 l 257
 738.451171875 1023 l 257
427.583984375 59 m 257
 406.109375 0 l 257
 1078.109375 0 l 257
 1099.58398438 59 l 257
 427.583984375 59 l 257
EndSplineSet
EndChar

StartChar: dagger
Encoding: 8224 8224 169
GlifName: dagger
Width: 2048
VWidth: 0
Flags: HW
LayerCount: 2
Fore
SplineSet
812.6640625 1251 m 257
 794.1015625 1200 l 257
 1400.1015625 1200 l 257
 1418.6640625 1251 l 257
 812.6640625 1251 l 257
1193.49023438 1550 m 257
 629.3359375 0 l 257
 695.3359375 0 l 257
 1259.49023438 1550 l 257
 1193.49023438 1550 l 257
EndSplineSet
EndChar

StartChar: daggerdbl
Encoding: 8225 8225 170
GlifName: daggerdbl
Width: 2048
VWidth: 0
Flags: HW
LayerCount: 2
Fore
SplineSet
652.391601562 823 m 257
 633.829101562 772 l 257
 1239.82910156 772 l 257
 1258.39160156 823 l 257
 652.391601562 823 l 257
808.170898438 1251 m 257
 789.608398438 1200 l 257
 1395.60839844 1200 l 257
 1414.17089844 1251 l 257
 808.170898438 1251 l 257
1197.99804688 1550 m 257
 633.84375 0 l 257
 695.84375 0 l 257
 1259.99804688 1550 l 257
 1197.99804688 1550 l 257
EndSplineSet
EndChar

StartChar: dcaron
Encoding: 271 271 171
GlifName: dcaron
Width: 2048
VWidth: 0
Flags: HW
LayerCount: 2
Fore
SplineSet
1553.53320312 1527 m 257
 997.75 0 l 257
 1057.75 0 l 257
 1613.53320312 1527 l 257
 1553.53320312 1527 l 257
714.091796875 1023 m 257
 691.890625 962 l 257
 1367.890625 962 l 257
 1390.09179688 1023 l 257
 714.091796875 1023 l 257
670.091796875 1023 m 257
 297.75 0 l 257
 355.75 0 l 257
 728.091796875 1023 l 257
 670.091796875 1023 l 257
335.587890625 60 m 257
 313.75 0 l 257
 1009.75 0 l 257
 1031.58789062 60 l 257
 335.587890625 60 l 257
1700.25 1496 m 257
 1615.80859375 1264 l 257
 1665.80859375 1264 l 257
 1750.25 1496 l 257
 1700.25 1496 l 257
EndSplineSet
EndChar

StartChar: dcroat
Encoding: 273 273 172
GlifName: dcroat
Width: 2048
VWidth: 0
Flags: HW
LayerCount: 2
Fore
SplineSet
1618.48046875 1527 m 257
 1062.69921875 0 l 257
 1122.69921875 0 l 257
 1678.48046875 1527 l 257
 1618.48046875 1527 l 257
765.041015625 1023 m 257
 742.837890625 962 l 257
 1434.83789062 962 l 257
 1457.04101562 1023 l 257
 765.041015625 1023 l 257
733.041015625 1023 m 257
 360.69921875 0 l 257
 420.69921875 0 l 257
 793.041015625 1023 l 257
 733.041015625 1023 l 257
430.900390625 61 m 257
 408.69921875 0 l 257
 1074.69921875 0 l 257
 1096.90039062 61 l 257
 430.900390625 61 l 257
1379.30078125 1260 m 257
 1358.19140625 1202 l 257
 1666.19140625 1202 l 257
 1687.30078125 1260 l 257
 1379.30078125 1260 l 257
EndSplineSet
EndChar

StartChar: degree
Encoding: 176 176 173
GlifName: degree
Width: 2048
VWidth: 0
Flags: HW
LayerCount: 2
Fore
SplineSet
941.3984375 1439 m 257
 1191.3984375 1439 l 257
 1115.69238281 1231 l 257
 865.692382812 1231 l 257
 941.3984375 1439 l 257
900.233398438 1488 m 257
 787.766601562 1179 l 257
 1147.76660156 1179 l 257
 1260.23339844 1488 l 257
 900.233398438 1488 l 257
EndSplineSet
EndChar

StartChar: dieresis
Encoding: 168 168 174
GlifName: dieresis
Width: 2048
VWidth: 0
Flags: HW
LayerCount: 2
Fore
SplineSet
865.19921875 1023 m 257
 828.80078125 923 l 257
 940.80078125 923 l 257
 977.19921875 1023 l 257
 865.19921875 1023 l 257
1107.19921875 1023 m 257
 1070.80078125 923 l 257
 1182.80078125 923 l 257
 1219.19921875 1023 l 257
 1107.19921875 1023 l 257
EndSplineSet
EndChar

StartChar: divide
Encoding: 247 247 175
GlifName: divide
Width: 2048
VWidth: 0
Flags: HW
LayerCount: 2
Fore
SplineSet
855.422851562 264 m 257
 832.493164062 201 l 257
 934.493164062 201 l 257
 957.422851562 264 l 257
 855.422851562 264 l 257
1152.70605469 1111 m 257
 1129.41210938 1047 l 257
 1220.41210938 1047 l 257
 1243.70605469 1111 l 257
 1152.70605469 1111 l 257
622.283203125 662 m 257
 599.716796875 600 l 257
 1425.71679688 600 l 257
 1448.28320312 662 l 257
 622.283203125 662 l 257
EndSplineSet
EndChar

StartChar: dollar
Encoding: 36 36 176
GlifName: dollar
Width: 2048
VWidth: 0
Flags: HW
LayerCount: 2
Fore
SplineSet
991.075195312 1539 m 257
 961.229492188 1457 l 257
 1559.22949219 1457 l 257
 1589.07519531 1539 l 257
 991.075195312 1539 l 257
992.166992188 1542 m 257
 805.0859375 1028 l 257
 889.0859375 1028 l 257
 1076.16699219 1542 l 257
 992.166992188 1542 l 257
484.0390625 69 m 257
 458.924804688 0 l 257
 1166.92480469 0 l 257
 1192.0390625 69 l 257
 484.0390625 69 l 257
1122.92480469 0 m 257
 1202.92480469 0 l 257
 1332.13378906 355 l 257
 1252.13378906 355 l 257
 1122.92480469 0 l 257
805.0859375 1028 m 257
 1251.13378906 355 l 257
 1332.13378906 355 l 257
 889.0859375 1028 l 257
 805.0859375 1028 l 257
1321.37988281 1636 m 257
 647.670898438 -215 l 257
 717.670898438 -215 l 257
 1391.37988281 1636 l 257
 1321.37988281 1636 l 257
EndSplineSet
EndChar

StartChar: dotaccent
Encoding: 729 729 177
GlifName: dotaccent
Width: 2048
VWidth: 0
Flags: HW
LayerCount: 2
Fore
SplineSet
986.380859375 1078 m 257
 949.619140625 977 l 257
 1061.61914062 977 l 257
 1098.38085938 1078 l 257
 986.380859375 1078 l 257
EndSplineSet
EndChar

StartChar: dotbelowcomb
Encoding: 803 803 178
GlifName: dotbelowcomb
Width: 2048
VWidth: 0
Flags: HW
LayerCount: 2
Fore
SplineSet
997.6484375 -290 m 257
 970.3515625 -365 l 257
 1050.3515625 -365 l 257
 1077.6484375 -290 l 257
 997.6484375 -290 l 257
EndSplineSet
EndChar

StartChar: dotlessi
Encoding: 305 305 179
GlifName: dotlessi
Width: 2048
VWidth: 0
Flags: HW
LayerCount: 2
Fore
SplineSet
1364.67089844 1023 m 257
 1011.25585938 52 l 257
 1071.25585938 52 l 257
 1424.67089844 1023 l 257
 1364.67089844 1023 l 257
645.166992188 60 m 257
 623.329101562 0 l 257
 1365.32910156 0 l 257
 1387.16699219 60 l 257
 645.166992188 60 l 257
1045.67089844 1023 m 257
 1023.46875 962 l 257
 1359.46875 962 l 257
 1381.67089844 1023 l 257
 1045.67089844 1023 l 257
EndSplineSet
EndChar

StartChar: e
Encoding: 101 101 180
GlifName: e
Width: 2048
VWidth: 0
Flags: HW
LayerCount: 2
Fore
SplineSet
916.170898438 1023 m 257
 883.608398438 972 l 257
 1522.60839844 972 l 257
 1555.17089844 1023 l 257
 916.170898438 1023 l 257
864.170898438 1023 m 257
 491.829101562 0 l 257
 549.829101562 0 l 257
 922.170898438 1023 l 257
 864.170898438 1023 l 257
556.03125 61 m 257
 533.829101562 0 l 257
 1178.82910156 0 l 257
 1201.03125 61 l 257
 556.03125 61 l 257
696.998046875 506 m 257
 683.16015625 446 l 257
 1312.16015625 446 l 257
 1333.99804688 506 l 257
 696.998046875 506 l 257
1497.17089844 1023 m 257
 1286.79589844 445 l 257
 1345.79589844 445 l 257
 1556.17089844 1023 l 257
 1497.17089844 1023 l 257
EndSplineSet
EndChar

StartChar: eight
Encoding: 56 56 188
GlifName: eight
Width: 2048
VWidth: 0
Flags: HW
LayerCount: 2
Fore
SplineSet
849.577148438 1550 m 257
 285.422851562 0 l 257
 1198.42285156 0 l 257
 1762.57714844 1550 l 257
 849.577148438 1550 l 257
1463.63183594 899 m 257
 1157.16894531 57 l 257
 369.168945312 57 l 257
 675.631835938 899 l 257
 1463.63183594 899 l 257
1486.47070312 959 m 257
 696.470703125 959 l 257
 889.375 1489 l 257
 1679.375 1489 l 257
 1486.47070312 959 l 257
EndSplineSet
EndChar

StartChar: ellipsis
Encoding: 8230 8230 189
GlifName: ellipsis
Width: 2048
VWidth: 0
Flags: HW
LayerCount: 2
Fore
SplineSet
712.74609375 114 m 257
 671.25390625 0 l 257
 813.25390625 0 l 257
 854.74609375 114 l 257
 712.74609375 114 l 257
968.74609375 114 m 257
 927.25390625 0 l 257
 1071.25390625 0 l 257
 1112.74609375 114 l 257
 968.74609375 114 l 257
1234.74609375 114 m 257
 1193.25390625 0 l 257
 1335.25390625 0 l 257
 1376.74609375 114 l 257
 1234.74609375 114 l 257
EndSplineSet
EndChar

StartChar: emdash
Encoding: 8212 8212 191
GlifName: emdash
Width: 2048
VWidth: 0
Flags: HW
LayerCount: 2
Fore
SplineSet
502.71875 600 m 257
 1526.71875 600 l 257
 1545.28125 651 l 257
 521.28125 651 l 257
 502.71875 600 l 257
EndSplineSet
EndChar

StartChar: endash
Encoding: 8211 8211 192
GlifName: endash
Width: 2048
VWidth: 0
Flags: HW
LayerCount: 2
Fore
SplineSet
596.44140625 600 m 257
 1422.44140625 600 l 257
 1451.55859375 680 l 257
 625.55859375 680 l 257
 596.44140625 600 l 257
EndSplineSet
EndChar

StartChar: eng
Encoding: 331 331 193
GlifName: eng
Width: 2048
VWidth: 0
Flags: HW
LayerCount: 2
Fore
SplineSet
673.53125 -211 m 257
 601.829101562 -408 l 257
 988.829101562 -408 l 257
 1060.53125 -211 l 257
 673.53125 -211 l 257
898.659179688 990 m 257
 538.329101562 0 l 257
 739.329101562 0 l 257
 1099.65917969 990 l 257
 898.659179688 990 l 257
1292.56445312 976 m 257
 788.829101562 -408 l 257
 989.829101562 -408 l 257
 1493.56445312 976 l 257
 1292.56445312 976 l 257
731.670898438 1023 m 257
 659.96875 826 l 257
 1437.96875 826 l 257
 1509.67089844 1023 l 257
 731.670898438 1023 l 257
EndSplineSet
EndChar

StartChar: equal
Encoding: 61 61 195
GlifName: equal
Width: 2048
VWidth: 0
Flags: HW
LayerCount: 2
Fore
SplineSet
684.0625 824 m 257
 647.666015625 724 l 257
 1463.66601562 724 l 257
 1500.0625 824 l 257
 684.0625 824 l 257
580.6953125 540 m 257
 547.9375 450 l 257
 1363.9375 450 l 257
 1396.6953125 540 l 257
 580.6953125 540 l 257
EndSplineSet
EndChar

StartChar: eth
Encoding: 240 240 196
GlifName: eth
Width: 2048
VWidth: 0
Flags: HW
LayerCount: 2
Fore
SplineSet
1252.46289062 1550 m 257
 1292.30859375 0 l 257
 1340.30859375 0 l 257
 1308.46289062 1550 l 257
 1252.46289062 1550 l 257
992.650390625 1023 m 257
 971.17578125 964 l 257
 1295.17578125 964 l 257
 1316.65039062 1023 l 257
 992.650390625 1023 l 257
952.650390625 1023 m 257
 580.30859375 0 l 257
 640.30859375 0 l 257
 1012.65039062 1023 l 257
 952.650390625 1023 l 257
647.783203125 59 m 257
 626.30859375 0 l 257
 1292.30859375 0 l 257
 1313.78320312 59 l 257
 647.783203125 59 l 257
1123.69140625 1416 m 257
 1100.03320312 1351 l 257
 1444.03320312 1351 l 257
 1467.69140625 1416 l 257
 1123.69140625 1416 l 257
EndSplineSet
EndChar

StartChar: exclam
Encoding: 33 33 197
GlifName: exclam
Width: 2048
VWidth: 0
Flags: HW
LayerCount: 2
Fore
SplineSet
742.7734375 9 m 257
 809.7734375 9 l 257
 845.443359375 107 l 257
 778.443359375 107 l 257
 742.7734375 9 l 257
862.705078125 344 m 257
 934.705078125 344 l 257
 1305.2265625 1362 l 257
 1233.2265625 1362 l 257
 862.705078125 344 l 257
EndSplineSet
EndChar

StartChar: exclamdown
Encoding: 161 161 198
GlifName: exclamdown
Width: 2048
VWidth: 0
Flags: HW
LayerCount: 2
Fore
SplineSet
1326.5234375 1520 m 257
 1266.5234375 1520 l 257
 1176.25878906 1272 l 257
 1236.25878906 1272 l 257
 1326.5234375 1520 l 257
1145.99804688 1035 m 257
 1091.99804688 1035 l 257
 721.4765625 17 l 257
 779.4765625 17 l 257
 1145.99804688 1035 l 257
EndSplineSet
EndChar

StartChar: f
Encoding: 102 102 199
GlifName: f
Width: 2048
VWidth: 0
Flags: HW
LayerCount: 2
Fore
SplineSet
1085.05664062 1023 m 257
 564.943359375 -406 l 257
 624.943359375 -406 l 257
 1145.05664062 1023 l 257
 1085.05664062 1023 l 257
1085.05664062 1023 m 257
 1063.21777344 963 l 257
 1461.21777344 963 l 257
 1483.05664062 1023 l 257
 1085.05664062 1023 l 257
670.869140625 462 m 257
 649.03125 402 l 257
 1127.03125 402 l 257
 1148.86914062 462 l 257
 670.869140625 462 l 257
EndSplineSet
EndChar

StartChar: five
Encoding: 53 53 200
GlifName: five
Width: 2048
VWidth: 0
Flags: HW
LayerCount: 2
Fore
SplineSet
1463.13183594 899 m 257
 1157.03320312 58 l 257
 299.033203125 58 l 257
 277.922851562 0 l 257
 1195.92285156 0 l 257
 1544.97070312 959 l 257
 687.970703125 959 l 257
 881.966796875 1492 l 257
 1748.96679688 1492 l 257
 1770.07714844 1550 l 257
 843.077148438 1550 l 257
 606.131835938 899 l 257
 1463.13183594 899 l 257
EndSplineSet
EndChar

StartChar: four
Encoding: 52 52 201
GlifName: four
Width: 2048
VWidth: 0
Flags: HW
LayerCount: 2
Fore
SplineSet
461.4140625 761 m 257
 1242.4140625 761 l 257
 967.98046875 7 l 257
 1024.98046875 7 l 257
 1586.5859375 1550 l 257
 1526.5859375 1550 l 257
 1261.25195312 821 l 257
 543.251953125 821 l 257
 808.5859375 1550 l 257
 748.5859375 1550 l 257
 461.4140625 761 l 257
EndSplineSet
EndChar

StartChar: g
Encoding: 103 103 202
GlifName: g
Width: 2048
VWidth: 0
Flags: HW
LayerCount: 2
Fore
SplineSet
976.330078125 1023 m 257
 603.98828125 0 l 257
 663.98828125 0 l 257
 1036.33007812 1023 l 257
 976.330078125 1023 l 257
1016.33007812 1023 m 257
 994.12890625 962 l 257
 1510.12890625 962 l 257
 1532.33007812 1023 l 257
 1016.33007812 1023 l 257
1494.33007812 1023 m 257
 972.396484375 -411 l 257
 1032.39648438 -411 l 257
 1554.33007812 1023 l 257
 1494.33007812 1023 l 257
688.099609375 58 m 257
 666.98828125 0 l 257
 1123.98828125 0 l 257
 1145.09960938 58 l 257
 688.099609375 58 l 257
515.142578125 -354 m 257
 493.669921875 -413 l 257
 982.669921875 -413 l 257
 1004.14257812 -354 l 257
 515.142578125 -354 l 257
EndSplineSet
EndChar

StartChar: germandbls
Encoding: 223 223 207
GlifName: germandbls
Width: 2048
VWidth: 0
Flags: HW
LayerCount: 2
Fore
SplineSet
608.466796875 1084 m 257
 586.264648438 1023 l 257
 837.264648438 1023 l 257
 859.466796875 1084 l 257
 608.466796875 1084 l 257
963.077148438 1550 m 257
 398.922851562 0 l 257
 462.922851562 0 l 257
 1027.07714844 1550 l 257
 963.077148438 1550 l 257
1015.07714844 1550 m 257
 992.510742188 1488 l 257
 1599.51074219 1488 l 257
 1622.07714844 1550 l 257
 1015.07714844 1550 l 257
1588.07714844 1550 m 257
 1396.26464844 1023 l 257
 1457.26464844 1023 l 257
 1649.07714844 1550 l 257
 1588.07714844 1550 l 257
1414.45898438 1062 m 257
 1176.45898438 1062 l 257
 1090.5625 826 l 257
 1328.5625 826 l 257
 1414.45898438 1062 l 257
1334.56933594 848 m 257
 1089.6171875 175 l 257
 1147.6171875 175 l 257
 1392.56933594 848 l 257
 1334.56933594 848 l 257
810.985351562 187 m 257
 790.602539062 131 l 257
 1133.60253906 131 l 257
 1153.98535156 187 l 257
 810.985351562 187 l 257
EndSplineSet
EndChar

StartChar: glyph094D
Encoding: 65536 -1 208
GlifName: glyph094D_
Width: 2048
VWidth: 0
Flags: HW
LayerCount: 2
Fore
SplineSet
771.295898438 -16 m 257
 749.09375 -77 l 257
 1093.09375 -77 l 257
 1115.29589844 -16 l 257
 771.295898438 -16 l 257
1066.27734375 -71 m 257
 1249.97949219 -418 l 257
 1298.90625 -366 l 257
 1115.65917969 -15 l 257
 1066.27734375 -71 l 257
EndSplineSet
EndChar

StartChar: grave
Encoding: 96 96 209
GlifName: grave
Width: 2048
VWidth: 0
Flags: HW
LayerCount: 2
Fore
SplineSet
969.665039062 1286 m 257
 970.31640625 1057 l 257
 1078.33496094 1112 l 257
 1069.31933594 1340 l 257
 969.665039062 1286 l 257
EndSplineSet
EndChar

StartChar: gravecomb
Encoding: 768 768 210
GlifName: gravecomb
Width: 2048
VWidth: 0
Flags: HW
LayerCount: 2
Fore
SplineSet
959.297851562 877 m 257
 1009.04785156 673 l 257
 1088.70214844 727 l 257
 1039.31640625 932 l 257
 959.297851562 877 l 257
EndSplineSet
EndChar

StartChar: greater
Encoding: 62 62 211
GlifName: greater
Width: 2048
VWidth: 0
Flags: HW
LayerCount: 2
Fore
SplineSet
1525.8125 632 m 257
 848.485351562 1013 l 257
 826.283203125 952 l 257
 1502.88183594 569 l 257
 1525.8125 632 l 257
1525.8125 632 m 257
 545.481445312 186 l 257
 522.1875 122 l 257
 1502.88183594 569 l 257
 1525.8125 632 l 257
EndSplineSet
EndChar

StartChar: guillemotleft
Encoding: 171 171 212
GlifName: guillemotleft
Width: 2048
VWidth: 0
Flags: HW
LayerCount: 2
Fore
SplineSet
559.58984375 509 m 257
 546.123046875 472 l 257
 1086.85449219 757 l 257
 1096.68164062 784 l 257
 559.58984375 509 l 257
559.58984375 509 m 257
 546.123046875 472 l 257
 786.733398438 122 l 257
 808.564453125 160 l 257
 559.58984375 509 l 257
984.141601562 527 m 257
 973.5859375 498 l 257
 1487.31738281 783 l 257
 1501.87695312 823 l 257
 984.141601562 527 l 257
983.141601562 527 m 257
 972.22265625 497 l 257
 1201.73339844 122 l 257
 1228.56054688 149 l 257
 983.141601562 527 l 257
EndSplineSet
EndChar

StartChar: guillemotright
Encoding: 187 187 213
GlifName: guillemotright
Width: 2048
VWidth: 0
Flags: HW
LayerCount: 2
Fore
SplineSet
1489.51464844 509 m 257
 1152.60644531 784 l 257
 1142.77929688 757 l 257
 1475.04785156 472 l 257
 1489.51464844 509 l 257
1489.51464844 509 m 257
 986.489257812 160 l 257
 980.658203125 122 l 257
 1475.04785156 472 l 257
 1489.51464844 509 l 257
1078.06640625 527 m 257
 775.801757812 823 l 257
 761.2421875 783 l 257
 1068.51074219 498 l 257
 1078.06640625 527 l 257
1079.06640625 527 m 257
 558.485351562 149 l 257
 565.658203125 122 l 257
 1068.14746094 497 l 257
 1079.06640625 527 l 257
EndSplineSet
EndChar

StartChar: guilsinglleft
Encoding: 8249 8249 214
GlifName: guilsinglleft
Width: 2048
VWidth: 0
Flags: HW
LayerCount: 2
Fore
SplineSet
564.408203125 652 m 257
 534.198242188 569 l 257
 1489.41503906 946 l 257
 1513.80175781 1013 l 257
 564.408203125 652 l 257
564.408203125 652 m 257
 534.198242188 569 l 257
 1183.50390625 122 l 257
 1211.52929688 199 l 257
 564.408203125 652 l 257
EndSplineSet
EndChar

StartChar: guilsinglright
Encoding: 8250 8250 215
GlifName: guilsinglright
Width: 2048
VWidth: 0
Flags: HW
LayerCount: 2
Fore
SplineSet
1525.8125 632 m 257
 848.485351562 1013 l 257
 826.283203125 952 l 257
 1502.88183594 569 l 257
 1525.8125 632 l 257
1525.8125 632 m 257
 545.481445312 186 l 257
 522.1875 122 l 257
 1502.88183594 569 l 257
 1525.8125 632 l 257
EndSplineSet
EndChar

StartChar: h
Encoding: 104 104 216
GlifName: h
Width: 2048
VWidth: 0
Flags: HW
LayerCount: 2
Fore
SplineSet
1052.8828125 1525 m 257
 500.01171875 6 l 257
 559.01171875 6 l 257
 1111.8828125 1525 l 257
 1052.8828125 1525 l 257
911.98828125 1028 m 257
 890.150390625 968 l 257
 1479.15039062 968 l 257
 1500.98828125 1028 l 257
 911.98828125 1028 l 257
1488.98828125 1028 m 257
 1114.828125 0 l 257
 1173.828125 0 l 257
 1547.98828125 1028 l 257
 1488.98828125 1028 l 257
EndSplineSet
EndChar

StartChar: hbar
Encoding: 295 295 217
GlifName: hbar
Width: 2048
VWidth: 0
Flags: HW
LayerCount: 2
Fore
SplineSet
1059.61523438 1541 m 257
 500.920898438 6 l 257
 560.920898438 6 l 257
 1119.61523438 1541 l 257
 1059.61523438 1541 l 257
905.079101562 1023 m 257
 884.333007812 966 l 257
 1518.33300781 966 l 257
 1539.07910156 1023 l 257
 905.079101562 1023 l 257
1488.07910156 1023 m 257
 1115.73730469 0 l 257
 1174.73730469 0 l 257
 1547.07910156 1023 l 257
 1488.07910156 1023 l 257
882.850585938 1429 m 257
 861.012695312 1369 l 257
 1317.01269531 1369 l 257
 1338.85058594 1429 l 257
 882.850585938 1429 l 257
EndSplineSet
EndChar

StartChar: hungarumlaut
Encoding: 733 733 219
GlifName: hungarumlaut
Width: 2048
VWidth: 0
Flags: HW
LayerCount: 2
Fore
SplineSet
747.3671875 122 m 257
 812.3671875 122 l 257
 902.6328125 370 l 257
 837.6328125 370 l 257
 747.3671875 122 l 257
1150.3671875 122 m 257
 1210.3671875 122 l 257
 1300.6328125 370 l 257
 1240.6328125 370 l 257
 1150.3671875 122 l 257
EndSplineSet
EndChar

StartChar: hyphen
Encoding: 45 45 220
GlifName: hyphen
Width: 2048
VWidth: 0
Flags: HW
LayerCount: 2
Fore
SplineSet
628.833984375 793 m 257
 593.166015625 695 l 257
 1419.16601562 695 l 257
 1454.83398438 793 l 257
 628.833984375 793 l 257
EndSplineSet
EndChar

StartChar: i
Encoding: 105 105 221
GlifName: i
Width: 2048
VWidth: 0
Flags: HW
LayerCount: 2
Fore
SplineSet
1364.67089844 1023 m 257
 1011.25585938 52 l 257
 1071.25585938 52 l 257
 1424.67089844 1023 l 257
 1364.67089844 1023 l 257
645.166992188 60 m 257
 623.329101562 0 l 257
 1365.32910156 0 l 257
 1387.16699219 60 l 257
 645.166992188 60 l 257
1276.57910156 1292 m 257
 1233.62988281 1174 l 257
 1346.62988281 1174 l 257
 1389.57910156 1292 l 257
 1276.57910156 1292 l 257
1045.67089844 1023 m 257
 1023.46875 962 l 257
 1359.46875 962 l 257
 1381.67089844 1023 l 257
 1045.67089844 1023 l 257
EndSplineSet
EndChar

StartChar: j
Encoding: 106 106 231
GlifName: j
Width: 2048
VWidth: 0
Flags: HW
LayerCount: 2
Fore
SplineSet
1507.6640625 1023 m 257
 985.73046875 -411 l 257
 1043.73046875 -411 l 257
 1565.6640625 1023 l 257
 1507.6640625 1023 l 257
438.66015625 -348 m 257
 417.55078125 -406 l 257
 1007.55078125 -406 l 257
 1028.66015625 -348 l 257
 438.66015625 -348 l 257
563.138671875 -6 m 257
 427.740234375 -378 l 257
 487.740234375 -378 l 257
 623.138671875 -6 l 257
 563.138671875 -6 l 257
1570.44921875 1201 m 257
 1548.9765625 1142 l 257
 1608.9765625 1142 l 257
 1630.44921875 1201 l 257
 1570.44921875 1201 l 257
EndSplineSet
EndChar

StartChar: k
Encoding: 107 107 233
GlifName: k
Width: 2048
VWidth: 0
Flags: HW
LayerCount: 2
Fore
SplineSet
1042.61328125 1535 m 257
 485.739257812 5 l 257
 545.739257812 5 l 257
 1102.61328125 1535 l 257
 1042.61328125 1535 l 257
686.150390625 421 m 257
 661.036132812 352 l 257
 1562.26074219 1023 l 257
 1502.26074219 1023 l 257
 686.150390625 421 l 257
1002.66894531 612 m 257
 945.017578125 569 l 257
 1294.91894531 0 l 257
 1355.91894531 0 l 257
 1002.66894531 612 l 257
EndSplineSet
EndChar

StartChar: l
Encoding: 108 108 234
GlifName: l
Width: 2048
VWidth: 0
Flags: HW
LayerCount: 2
Fore
SplineSet
594.083007812 72 m 257
 567.876953125 0 l 257
 1201.87695312 0 l 257
 1228.08300781 72 l 257
 594.083007812 72 l 257
1420.12304688 1553 m 257
 875.623046875 57 l 257
 935.623046875 57 l 257
 1480.12304688 1553 l 257
 1420.12304688 1553 l 257
1194.12304688 1553 m 257
 1172.6484375 1494 l 257
 1407.6484375 1494 l 257
 1429.12304688 1553 l 257
 1194.12304688 1553 l 257
EndSplineSet
EndChar

StartChar: lcaron
Encoding: 318 318 236
GlifName: lcaron
Width: 2048
VWidth: 0
Flags: HW
LayerCount: 2
Fore
SplineSet
531.31640625 62 m 257
 508.75 0 l 257
 1142.75 0 l 257
 1165.31640625 62 l 257
 531.31640625 62 l 257
1368.90429688 1550 m 257
 821.4921875 46 l 257
 879.4921875 46 l 257
 1426.90429688 1550 l 257
 1368.90429688 1550 l 257
1070.90429688 1550 m 257
 1048.703125 1489 l 257
 1360.703125 1489 l 257
 1382.90429688 1550 l 257
 1070.90429688 1550 l 257
1487.25 1496 m 257
 1402.80859375 1264 l 257
 1454.80859375 1264 l 257
 1539.25 1496 l 257
 1487.25 1496 l 257
EndSplineSet
EndChar

StartChar: less
Encoding: 60 60 238
GlifName: less
Width: 2048
VWidth: 0
Flags: HW
LayerCount: 2
Fore
SplineSet
564.408203125 652 m 257
 534.198242188 569 l 257
 1489.41503906 946 l 257
 1513.80175781 1013 l 257
 564.408203125 652 l 257
564.408203125 652 m 257
 534.198242188 569 l 257
 1183.50390625 122 l 257
 1211.52929688 199 l 257
 564.408203125 652 l 257
EndSplineSet
EndChar

StartChar: logicalnot
Encoding: 172 172 239
GlifName: logicalnot
Width: 2048
VWidth: 0
Flags: HW
LayerCount: 2
Fore
SplineSet
1251.91992188 935 m 257
 1144.54882812 640 l 257
 1197.54882812 640 l 257
 1304.91992188 935 l 257
 1251.91992188 935 l 257
764.919921875 935 m 257
 743.080078125 875 l 257
 1277.08007812 875 l 257
 1298.91992188 935 l 257
 764.919921875 935 l 257
EndSplineSet
EndChar

StartChar: lslash
Encoding: 322 322 240
GlifName: lslash
Width: 2048
VWidth: 0
Flags: HW
LayerCount: 2
Fore
SplineSet
495.755859375 60 m 257
 473.91796875 0 l 257
 1107.91796875 0 l 257
 1129.75585938 60 l 257
 495.755859375 60 l 257
1396.1640625 1553 m 257
 838.92578125 22 l 257
 898.92578125 22 l 257
 1456.1640625 1553 l 257
 1396.1640625 1553 l 257
1100.1640625 1553 m 257
 1078.32421875 1493 l 257
 1400.32421875 1493 l 257
 1422.1640625 1553 l 257
 1100.1640625 1553 l 257
1472.08203125 1039 m 257
 770.423828125 702 l 257
 872.423828125 702 l 257
 1574.08203125 1039 l 257
 1472.08203125 1039 l 257
EndSplineSet
EndChar

StartChar: m
Encoding: 109 109 241
GlifName: m
Width: 2048
VWidth: 0
Flags: HW
LayerCount: 2
Fore
SplineSet
784.251953125 993 m 257
 422.829101562 0 l 257
 482.829101562 0 l 257
 844.251953125 993 l 257
 784.251953125 993 l 257
1160.60839844 972 m 257
 806.829101562 0 l 257
 866.829101562 0 l 257
 1220.60839844 972 l 257
 1160.60839844 972 l 257
1548.06445312 976 m 257
 1192.82910156 0 l 257
 1252.82910156 0 l 257
 1608.06445312 976 l 257
 1548.06445312 976 l 257
721.170898438 1023 m 257
 700.424804688 966 l 257
 1604.42480469 966 l 257
 1625.17089844 1023 l 257
 721.170898438 1023 l 257
EndSplineSet
EndChar

StartChar: macron
Encoding: 175 175 242
GlifName: macron
Width: 2048
VWidth: 0
Flags: HW
LayerCount: 2
Fore
SplineSet
752.189453125 1015 m 257
 735.810546875 970 l 257
 1295.81054688 970 l 257
 1312.18945312 1015 l 257
 752.189453125 1015 l 257
EndSplineSet
EndChar

StartChar: mu
Encoding: 181 181 244
GlifName: mu
Width: 2048
VWidth: 0
Flags: HW
LayerCount: 2
Fore
SplineSet
1534.41015625 935 m 257
 1194.09765625 0 l 257
 1254.09765625 0 l 257
 1594.41015625 935 l 257
 1534.41015625 935 l 257
677.935546875 60 m 257
 656.09765625 0 l 257
 1224.09765625 0 l 257
 1245.93554688 60 l 257
 677.935546875 60 l 257
950.41015625 935 m 257
 453.58984375 -430 l 257
 515.58984375 -430 l 257
 1012.41015625 935 l 257
 950.41015625 935 l 257
EndSplineSet
EndChar

StartChar: multiply
Encoding: 215 215 245
GlifName: multiply
Width: 2048
VWidth: 0
Flags: HW
LayerCount: 2
Fore
SplineSet
424.919921875 295 m 257
 520.919921875 295 l 257
 1623.08007812 1323 l 257
 1541.08007812 1323 l 257
 424.919921875 295 l 257
796.716796875 1322 m 257
 1168.37109375 288 l 257
 1256.37109375 288 l 257
 880.716796875 1322 l 257
 796.716796875 1322 l 257
EndSplineSet
EndChar

StartChar: n
Encoding: 110 110 246
GlifName: n
Width: 2048
VWidth: 0
Flags: HW
LayerCount: 2
Fore
SplineSet
899.159179688 990 m 257
 538.829101562 0 l 257
 599.829101562 0 l 257
 960.159179688 990 l 257
 899.159179688 990 l 257
1434.06445312 976 m 257
 1078.82910156 0 l 257
 1138.82910156 0 l 257
 1494.06445312 976 l 257
 1434.06445312 976 l 257
731.170898438 1023 m 257
 710.788085938 967 l 257
 1488.78808594 967 l 257
 1509.17089844 1023 l 257
 731.170898438 1023 l 257
EndSplineSet
EndChar

StartChar: nine
Encoding: 57 57 249
GlifName: nine
Width: 2048
VWidth: 0
Flags: HW
LayerCount: 2
Fore
SplineSet
1410.62988281 759 m 257
 1155.8515625 59 l 257
 313.8515625 59 l 257
 292.376953125 0 l 257
 1190.37695312 0 l 257
 1755.62304688 1553 l 257
 835.623046875 1553 l 257
 831.254882812 1541 l 257
 546.629882812 759 l 257
 1410.62988281 759 l 257
1429.10449219 818 m 257
 628.104492188 818 l 257
 874.512695312 1495 l 257
 1675.51269531 1495 l 257
 1429.10449219 818 l 257
EndSplineSet
EndChar

StartChar: numbersign
Encoding: 35 35 251
GlifName: numbersign
Width: 2048
VWidth: 0
Flags: HW
LayerCount: 2
Fore
SplineSet
919.477539062 1184 m 257
 524.5703125 99 l 257
 583.5703125 99 l 257
 978.477539062 1184 l 257
 919.477539062 1184 l 257
1417.38964844 1192 m 257
 1018.11425781 95 l 257
 1089.11425781 95 l 257
 1488.38964844 1192 l 257
 1417.38964844 1192 l 257
726.6875 995 m 257
 705.577148438 937 l 257
 1506.57714844 937 l 257
 1527.6875 995 l 257
 726.6875 995 l 257
547.974609375 493 m 257
 520.3125 417 l 257
 1330.3125 417 l 257
 1357.97460938 493 l 257
 547.974609375 493 l 257
EndSplineSet
EndChar

StartChar: o
Encoding: 111 111 252
GlifName: o
Width: 2048
VWidth: 0
Flags: HW
LayerCount: 2
Fore
SplineSet
801.170898438 1023 m 257
 428.829101562 0 l 257
 487.829101562 0 l 257
 860.170898438 1023 l 257
 801.170898438 1023 l 257
1558.17089844 1023 m 257
 1185.82910156 0 l 257
 1246.82910156 0 l 257
 1619.17089844 1023 l 257
 1558.17089844 1023 l 257
862.170898438 1023 m 257
 841.788085938 967 l 257
 1542.78808594 967 l 257
 1563.17089844 1023 l 257
 862.170898438 1023 l 257
497.395507812 62 m 257
 474.829101562 0 l 257
 1193.82910156 0 l 257
 1216.39550781 62 l 257
 497.395507812 62 l 257
EndSplineSet
EndChar

StartChar: oe
Encoding: 339 339 257
GlifName: oe
Width: 2048
VWidth: 0
Flags: HW
LayerCount: 2
Fore
SplineSet
1101.49804688 506 m 257
 1079.66015625 446 l 257
 1379.66015625 446 l 257
 1401.49804688 506 l 257
 1101.49804688 506 l 257
1564.67089844 1023 m 257
 1354.29589844 445 l 257
 1413.29589844 445 l 257
 1623.67089844 1023 l 257
 1564.67089844 1023 l 257
795.670898438 1023 m 257
 423.329101562 0 l 257
 482.329101562 0 l 257
 854.670898438 1023 l 257
 795.670898438 1023 l 257
1250.67089844 1023 m 257
 878.329101562 0 l 257
 939.329101562 0 l 257
 1311.67089844 1023 l 257
 1250.67089844 1023 l 257
850.670898438 1023 m 257
 829.196289062 964 l 257
 1603.19628906 964 l 257
 1624.67089844 1023 l 257
 850.670898438 1023 l 257
491.895507812 62 m 257
 469.329101562 0 l 257
 1261.32910156 0 l 257
 1283.89550781 62 l 257
 491.895507812 62 l 257
EndSplineSet
EndChar

StartChar: ogonek
Encoding: 731 731 258
GlifName: ogonek
Width: 2048
VWidth: 0
Flags: HW
LayerCount: 2
Fore
SplineSet
700.041992188 -300 m 257
 678.204101562 -360 l 257
 1219.20410156 -360 l 257
 1241.04199219 -300 l 257
 700.041992188 -300 l 257
827.795898438 51 m 257
 678.204101562 -360 l 257
 738.204101562 -360 l 257
 887.795898438 51 l 257
 827.795898438 51 l 257
827.795898438 51 m 257
 806.321289062 -8 l 257
 1348.32128906 -8 l 257
 1369.79589844 51 l 257
 827.795898438 51 l 257
EndSplineSet
EndChar

StartChar: one
Encoding: 49 49 263
GlifName: one
Width: 2048
VWidth: 0
Flags: HW
LayerCount: 2
Fore
SplineSet
711.922851562 0 m 257
 771.922851562 0 l 257
 1336.07714844 1550 l 257
 1276.07714844 1550 l 257
 711.922851562 0 l 257
1276.07714844 1550 m 257
 1111.94433594 1426 l 257
 1152.75292969 1398 l 257
 1336.07714844 1550 l 257
 1276.07714844 1550 l 257
EndSplineSet
EndChar

StartChar: onehalf
Encoding: 189 189 264
GlifName: onehalf
Width: 2048
VWidth: 0
Flags: HW
LayerCount: 2
Fore
SplineSet
1533.51757812 1480 m 257
 411.482421875 10 l 257
 514.482421875 10 l 257
 1636.51757812 1480 l 257
 1533.51757812 1480 l 257
978 1017 m 257
 1042 1017 l 257
 1235.99609375 1550 l 257
 1171.99609375 1550 l 257
 978 1017 l 257
1171.99609375 1550 m 257
 1029.70898438 1508 l 257
 1080.0703125 1498 l 257
 1235.99609375 1550 l 257
 1171.99609375 1550 l 257
1142.59570312 623 m 257
 1432.59570312 623 l 257
 1344.515625 381 l 257
 1057.515625 381 l 257
 918.841796875 0 l 257
 1223.84179688 0 l 257
 1232.94140625 25 l 257
 950.94140625 25 l 257
 1071.41601562 356 l 257
 1358.41601562 356 l 257
 1464.6953125 648 l 257
 1151.6953125 648 l 257
 1142.59570312 623 l 257
EndSplineSet
EndChar

StartChar: onequarter
Encoding: 188 188 265
GlifName: onequarter
Width: 2048
VWidth: 0
Flags: HW
LayerCount: 2
Fore
SplineSet
1533.51757812 1480 m 257
 411.482421875 10 l 257
 514.482421875 10 l 257
 1636.51757812 1480 l 257
 1533.51757812 1480 l 257
1016.19140625 1045 m 257
 1070.19140625 1045 l 257
 1253.99609375 1550 l 257
 1199.99609375 1550 l 257
 1016.19140625 1045 l 257
1204.99609375 1550 m 257
 1050.59179688 1428 l 257
 1057.125 1391 l 257
 1230.72070312 1541 l 257
 1204.99609375 1550 l 257
1034.78710938 379 m 257
 1373.78710938 379 l 257
 1238.390625 7 l 257
 1263.390625 7 l 257
 1540.37109375 768 l 257
 1514.37109375 768 l 257
 1383.70703125 409 l 257
 1071.70703125 409 l 257
 1203.09960938 770 l 257
 1177.09960938 770 l 257
 1034.78710938 379 l 257
EndSplineSet
EndChar

StartChar: ordfeminine
Encoding: 170 170 266
GlifName: ordfeminine
Width: 2048
VWidth: 0
Flags: HW
LayerCount: 2
Fore
SplineSet
971.357421875 1319 m 257
 946.970703125 1252 l 257
 1595.97070312 1252 l 257
 1620.35742188 1319 l 257
 971.357421875 1319 l 257
1582.72070312 1320 m 257
 1210.015625 296 l 257
 1287.015625 296 l 257
 1659.72070312 1320 l 257
 1582.72070312 1320 l 257
820.033203125 895 m 257
 797.466796875 833 l 257
 1421.46679688 833 l 257
 1444.03320312 895 l 257
 820.033203125 895 l 257
812.662109375 872 m 257
 602.287109375 294 l 257
 673.287109375 294 l 257
 883.662109375 872 l 257
 812.662109375 872 l 257
638.583984375 369 m 257
 611.287109375 294 l 257
 1275.28710938 294 l 257
 1302.58398438 369 l 257
 638.583984375 369 l 257
412.666015625 67 m 257
 388.279296875 0 l 257
 1256.27929688 0 l 257
 1280.66601562 67 l 257
 412.666015625 67 l 257
EndSplineSet
EndChar

StartChar: ordmasculine
Encoding: 186 186 267
GlifName: ordmasculine
Width: 2048
VWidth: 0
Flags: HW
LayerCount: 2
Fore
SplineSet
879.920898438 1023 m 257
 507.579101562 0 l 257
 566.579101562 0 l 257
 938.920898438 1023 l 257
 879.920898438 1023 l 257
1636.92089844 1023 m 257
 1264.57910156 0 l 257
 1325.57910156 0 l 257
 1697.92089844 1023 l 257
 1636.92089844 1023 l 257
940.920898438 1023 m 257
 920.538085938 967 l 257
 1621.53808594 967 l 257
 1641.92089844 1023 l 257
 940.920898438 1023 l 257
576.145507812 62 m 257
 553.579101562 0 l 257
 1272.57910156 0 l 257
 1295.14550781 62 l 257
 576.145507812 62 l 257
374.1015625 -70 m 257
 350.079101562 -136 l 257
 1374.07910156 -136 l 257
 1398.1015625 -70 l 257
 374.1015625 -70 l 257
EndSplineSet
EndChar

StartChar: oslash
Encoding: 248 248 268
GlifName: oslash
Width: 2048
VWidth: 0
Flags: HW
LayerCount: 2
Fore
SplineSet
1648.74804688 1125 m 257
 376.178710938 -36 l 257
 403.803710938 -70 l 257
 1671.82128906 1073 l 257
 1648.74804688 1125 l 257
795.623046875 1023 m 257
 423.28125 0 l 257
 483.28125 0 l 257
 855.623046875 1023 l 257
 795.623046875 1023 l 257
1551.62304688 1023 m 257
 1179.28125 0 l 257
 1239.28125 0 l 257
 1611.62304688 1023 l 257
 1551.62304688 1023 l 257
837.623046875 1023 m 257
 815.784179688 963 l 257
 1561.78417969 963 l 257
 1583.62304688 1023 l 257
 837.623046875 1023 l 257
490.2109375 63 m 257
 467.28125 0 l 257
 1215.28125 0 l 257
 1238.2109375 63 l 257
 490.2109375 63 l 257
EndSplineSet
EndChar

StartChar: p
Encoding: 112 112 271
GlifName: p
Width: 2048
VWidth: 0
Flags: HW
LayerCount: 2
Fore
SplineSet
1021.56347656 1181 m 257
 443.943359375 -406 l 257
 503.943359375 -406 l 257
 1081.56347656 1181 l 257
 1021.56347656 1181 l 257
1008.05664062 1023 m 257
 986.58203125 964 l 257
 1572.58203125 964 l 257
 1594.05664062 1023 l 257
 1008.05664062 1023 l 257
659.916992188 61 m 257
 637.71484375 0 l 257
 1233.71484375 0 l 257
 1255.91699219 61 l 257
 659.916992188 61 l 257
1546.05664062 1023 m 257
 1173.71484375 0 l 257
 1231.71484375 0 l 257
 1604.05664062 1023 l 257
 1546.05664062 1023 l 257
EndSplineSet
EndChar

StartChar: paragraph
Encoding: 182 182 272
GlifName: paragraph
Width: 2048
VWidth: 0
Flags: HW
LayerCount: 2
Fore
SplineSet
520.65234375 1044 m 257
 499.177734375 985 l 257
 1063.17773438 985 l 257
 1084.65234375 1044 l 257
 520.65234375 1044 l 257
704.822265625 1550 m 257
 504.638671875 1000 l 257
 566.638671875 1000 l 257
 766.822265625 1550 l 257
 704.822265625 1550 l 257
704.822265625 1550 m 257
 684.07421875 1493 l 257
 1504.07421875 1493 l 257
 1524.82226562 1550 l 257
 704.822265625 1550 l 257
1254.82226562 1550 m 257
 690.66796875 0 l 257
 754.66796875 0 l 257
 1318.82226562 1550 l 257
 1254.82226562 1550 l 257
1486.82226562 1550 m 257
 922.66796875 0 l 257
 984.66796875 0 l 257
 1548.82226562 1550 l 257
 1486.82226562 1550 l 257
EndSplineSet
EndChar

StartChar: parenleft
Encoding: 40 40 273
GlifName: parenleft
Width: 2048
VWidth: 0
Flags: HW
LayerCount: 2
Fore
SplineSet
870.584960938 1023 m 257
 563.393554688 179 l 257
 691.393554688 179 l 257
 998.584960938 1023 l 257
 870.584960938 1023 l 257
1457.69824219 1636 m 257
 870.584960938 1023 l 257
 998.584960938 1023 l 257
 1484.60644531 1633 l 257
 1457.69824219 1636 l 257
563.393554688 179 m 257
 723.776367188 -309 l 257
 751.776367188 -309 l 257
 691.393554688 179 l 257
 563.393554688 179 l 257
EndSplineSet
EndChar

StartChar: parenright
Encoding: 41 41 274
GlifName: parenright
Width: 2048
VWidth: 0
Flags: HW
LayerCount: 2
Fore
SplineSet
1304.40429688 1023 m 257
 997.212890625 179 l 257
 1125.21289062 179 l 257
 1432.40429688 1023 l 257
 1304.40429688 1023 l 257
1323.15429688 1635 m 257
 1304.40429688 1023 l 257
 1432.40429688 1023 l 257
 1361.15429688 1635 l 257
 1323.15429688 1635 l 257
997.212890625 179 m 257
 615.595703125 -309 l 257
 643.595703125 -309 l 257
 1125.21289062 179 l 257
 997.212890625 179 l 257
EndSplineSet
EndChar

StartChar: percent
Encoding: 37 37 275
GlifName: percent
Width: 2048
VWidth: 0
Flags: HW
LayerCount: 2
Fore
SplineSet
575.762695312 444 m 257
 594.935546875 417 l 257
 1472.23730469 775 l 257
 1462.70019531 801 l 257
 575.762695312 444 l 257
937.998046875 1148 m 257
 812.428710938 803 l 257
 843.428710938 803 l 257
 968.998046875 1148 l 257
 937.998046875 1148 l 257
939.454101562 1152 m 257
 929.990234375 1126 l 257
 1276.99023438 1126 l 257
 1286.45410156 1152 l 257
 939.454101562 1152 l 257
820.799804688 826 m 257
 807.333007812 789 l 257
 1151.33300781 789 l 257
 1164.79980469 826 l 257
 820.799804688 826 l 257
1250.45410156 1152 m 257
 1119.06054688 791 l 257
 1155.06054688 791 l 257
 1286.45410156 1152 l 257
 1250.45410156 1152 l 257
1005.8515625 436 m 257
 881.373046875 94 l 257
 924.373046875 94 l 257
 1048.8515625 436 l 257
 1005.8515625 436 l 257
1007.30664062 440 m 257
 991.65625 397 l 257
 1338.65625 397 l 257
 1354.30664062 440 l 257
 1007.30664062 440 l 257
886.833007812 109 m 257
 875.185546875 77 l 257
 1219.18554688 77 l 257
 1230.83300781 109 l 257
 886.833007812 109 l 257
1320.30664062 440 m 257
 1188.9140625 79 l 257
 1222.9140625 79 l 257
 1354.30664062 440 l 257
 1320.30664062 440 l 257
EndSplineSet
EndChar

StartChar: period
Encoding: 46 46 276
GlifName: period
Width: 2048
VWidth: 0
Flags: HW
LayerCount: 2
Fore
SplineSet
972.564453125 113 m 257
 931.435546875 0 l 257
 1075.43554688 0 l 257
 1116.56445312 113 l 257
 972.564453125 113 l 257
EndSplineSet
EndChar

StartChar: periodcentered
Encoding: 183 183 277
GlifName: periodcentered
Width: 2048
VWidth: 0
Flags: HW
LayerCount: 2
Fore
SplineSet
994.380859375 1056 m 257
 957.619140625 955 l 257
 1053.61914062 955 l 257
 1090.38085938 1056 l 257
 994.380859375 1056 l 257
EndSplineSet
EndChar

StartChar: perthousand
Encoding: 8240 8240 278
GlifName: perthousand
Width: 2048
VWidth: 0
Flags: HW
LayerCount: 2
Fore
SplineSet
1154.74316406 436 m 257
 1036.08886719 110 l 257
 1080.08886719 110 l 257
 1198.74316406 436 l 257
 1154.74316406 436 l 257
1156.19824219 440 m 257
 1136.54394531 386 l 257
 1482.54394531 386 l 257
 1502.19824219 440 l 257
 1156.19824219 440 l 257
1041.54785156 125 m 257
 1024.07714844 77 l 257
 1368.07714844 77 l 257
 1385.54785156 125 l 257
 1041.54785156 125 l 257
1454.19824219 440 m 257
 1322.80566406 79 l 257
 1370.80566406 79 l 257
 1502.19824219 440 l 257
 1454.19824219 440 l 257
540.043945312 522 m 257
 560.5703125 463 l 257
 1507.95605469 802 l 257
 1485.06640625 860 l 257
 540.043945312 522 l 257
907.889648438 1148 m 257
 789.235351562 822 l 257
 833.235351562 822 l 257
 951.889648438 1148 l 257
 907.889648438 1148 l 257
909.345703125 1152 m 257
 887.506835938 1092 l 257
 1233.50683594 1092 l 257
 1255.34570312 1152 l 257
 909.345703125 1152 l 257
794.6953125 837 m 257
 777.224609375 789 l 257
 1121.22460938 789 l 257
 1138.6953125 837 l 257
 794.6953125 837 l 257
1209.34570312 1152 m 257
 1077.95214844 791 l 257
 1123.95214844 791 l 257
 1255.34570312 1152 l 257
 1209.34570312 1152 l 257
752.743164062 436 m 257
 634.088867188 110 l 257
 680.088867188 110 l 257
 798.743164062 436 l 257
 752.743164062 436 l 257
754.198242188 440 m 257
 734.543945312 386 l 257
 1082.54394531 386 l 257
 1102.19824219 440 l 257
 754.198242188 440 l 257
639.547851562 125 m 257
 622.077148438 77 l 257
 966.077148438 77 l 257
 983.547851562 125 l 257
 639.547851562 125 l 257
1054.19824219 440 m 257
 922.805664062 79 l 257
 970.805664062 79 l 257
 1102.19824219 440 l 257
 1054.19824219 440 l 257
EndSplineSet
EndChar

StartChar: plus
Encoding: 43 43 279
GlifName: plus
Width: 2048
VWidth: 0
Flags: HW
LayerCount: 2
Fore
SplineSet
1119.43164062 1221 m 257
 735.078125 165 l 257
 845.078125 165 l 257
 1229.43164062 1221 l 257
 1119.43164062 1221 l 257
591.744140625 796 m 257
 554.255859375 693 l 257
 1456.25585938 693 l 257
 1493.74414062 796 l 257
 591.744140625 796 l 257
EndSplineSet
EndChar

StartChar: plusminus
Encoding: 177 177 280
GlifName: plusminus
Width: 2048
VWidth: 0
Flags: HW
LayerCount: 2
Fore
SplineSet
487.904296875 110 m 257
 465.337890625 48 l 257
 1291.33789062 48 l 257
 1313.90429688 110 l 257
 487.904296875 110 l 257
1259.27539062 1221 m 257
 897.853515625 228 l 257
 958.853515625 228 l 257
 1320.27539062 1221 l 257
 1259.27539062 1221 l 257
680.662109375 744 m 257
 659.55078125 686 l 257
 1561.55078125 686 l 257
 1582.66210938 744 l 257
 680.662109375 744 l 257
EndSplineSet
EndChar

StartChar: q
Encoding: 113 113 281
GlifName: q
Width: 2048
VWidth: 0
Flags: HW
LayerCount: 2
Fore
SplineSet
1516.19824219 1188 m 257
 936.030273438 -406 l 257
 996.030273438 -406 l 257
 1576.19824219 1188 l 257
 1516.19824219 1188 l 257
852.143554688 1023 m 257
 829.577148438 961 l 257
 1477.57714844 961 l 257
 1500.14355469 1023 l 257
 852.143554688 1023 l 257
506.547851562 57 m 257
 485.801757812 0 l 257
 1101.80175781 0 l 257
 1122.54785156 57 l 257
 506.547851562 57 l 257
844.143554688 1023 m 257
 471.801757812 0 l 257
 529.801757812 0 l 257
 902.143554688 1023 l 257
 844.143554688 1023 l 257
962.595703125 -344 m 257
 940.030273438 -406 l 257
 1072.03027344 -406 l 257
 1094.59570312 -344 l 257
 962.595703125 -344 l 257
EndSplineSet
EndChar

StartChar: question
Encoding: 63 63 282
GlifName: question
Width: 2048
VWidth: 0
Flags: HW
LayerCount: 2
Fore
SplineSet
565.247070312 134 m 257
 516.474609375 0 l 257
 628.474609375 0 l 257
 677.247070312 134 l 257
 565.247070312 134 l 257
893.345703125 1519 m 257
 859.49609375 1426 l 257
 1495.49609375 1426 l 257
 1529.34570312 1519 l 257
 893.345703125 1519 l 257
1445.52539062 1514 m 257
 1246.0703125 966 l 257
 1332.0703125 966 l 257
 1531.52539062 1514 l 257
 1445.52539062 1514 l 257
885.904296875 1015 m 257
 861.518554688 948 l 257
 1325.51855469 948 l 257
 1349.90429688 1015 l 257
 885.904296875 1015 l 257
884.448242188 1011 m 257
 659.151367188 392 l 257
 755.151367188 392 l 257
 980.448242188 1011 l 257
 884.448242188 1011 l 257
EndSplineSet
EndChar

StartChar: questiondown
Encoding: 191 191 283
GlifName: questiondown
Width: 2048
VWidth: 0
Flags: HW
LayerCount: 2
Fore
SplineSet
1441.98828125 1273 m 257
 1531.52539062 1519 l 257
 1473.52539062 1519 l 257
 1383.62402344 1272 l 257
 1441.98828125 1273 l 257
1154.65429688 0 m 257
 1176.85644531 61 l 257
 540.856445312 61 l 257
 518.654296875 0 l 257
 1154.65429688 0 l 257
576.474609375 5 m 257
 775.9296875 553 l 257
 715.9296875 553 l 257
 516.474609375 5 l 257
 576.474609375 5 l 257
1162.09570312 504 m 257
 1184.66113281 566 l 257
 720.661132812 566 l 257
 698.095703125 504 l 257
 1162.09570312 504 l 257
1163.55078125 508 m 257
 1388.84863281 1127 l 257
 1330.84863281 1127 l 257
 1105.55078125 508 l 257
 1163.55078125 508 l 257
EndSplineSet
EndChar

StartChar: quotedbl
Encoding: 34 34 284
GlifName: quotedbl
Width: 2048
VWidth: 0
Flags: HW
LayerCount: 2
Fore
SplineSet
746.868164062 1326 m 257
 812.868164062 1326 l 257
 903.131835938 1574 l 257
 837.131835938 1574 l 257
 746.868164062 1326 l 257
1150.86816406 1326 m 257
 1210.86816406 1326 l 257
 1301.13183594 1574 l 257
 1241.13183594 1574 l 257
 1150.86816406 1326 l 257
EndSplineSet
EndChar

StartChar: quotedblbase
Encoding: 8222 8222 285
GlifName: quotedblbase
Width: 2048
VWidth: 0
Flags: HW
LayerCount: 2
Fore
SplineSet
936.404296875 126 m 257
 893.456054688 8 l 257
 1002.45605469 8 l 257
 1045.40429688 126 l 257
 936.404296875 126 l 257
893.456054688 8 m 257
 777.595703125 -118 l 257
 827.591796875 -129 l 257
 1002.45605469 8 l 257
 893.456054688 8 l 257
1161.40429688 126 m 257
 1118.45605469 8 l 257
 1227.45605469 8 l 257
 1270.40429688 126 l 257
 1161.40429688 126 l 257
1118.45605469 8 m 257
 1002.59570312 -118 l 257
 1052.59179688 -129 l 257
 1227.45605469 8 l 257
 1118.45605469 8 l 257
EndSplineSet
EndChar

StartChar: quotedblleft
Encoding: 8220 8220 286
GlifName: quotedblleft
Width: 2048
VWidth: 0
Flags: HW
LayerCount: 2
Fore
SplineSet
962.240234375 1953 m 257
 1003.73242188 2067 l 257
 879.732421875 2067 l 257
 838.240234375 1953 l 257
 962.240234375 1953 l 257
931.802734375 2004 m 257
 1041.75976562 2144 l 257
 980.677734375 2174 l 257
 881.4609375 2069 l 257
 931.802734375 2004 l 257
1130.24023438 1953 m 257
 1171.73242188 2067 l 257
 1047.73242188 2067 l 257
 1006.24023438 1953 l 257
 1130.24023438 1953 l 257
1099.80273438 2004 m 257
 1209.75976562 2144 l 257
 1148.67773438 2174 l 257
 1049.4609375 2069 l 257
 1099.80273438 2004 l 257
EndSplineSet
EndChar

StartChar: quotedblright
Encoding: 8221 8221 287
GlifName: quotedblright
Width: 2048
VWidth: 0
Flags: HW
LayerCount: 2
Fore
SplineSet
1080.75976562 2174 m 257
 1039.265625 2060 l 257
 1163.265625 2060 l 257
 1204.75976562 2174 l 257
 1080.75976562 2174 l 257
1112.19726562 2123 m 257
 1002.24023438 1983 l 257
 1062.32226562 1953 l 257
 1161.5390625 2058 l 257
 1112.19726562 2123 l 257
921.759765625 2174 m 257
 880.265625 2060 l 257
 1004.265625 2060 l 257
 1045.75976562 2174 l 257
 921.759765625 2174 l 257
953.197265625 2123 m 257
 843.240234375 1983 l 257
 903.322265625 1953 l 257
 1002.5390625 2058 l 257
 953.197265625 2123 l 257
EndSplineSet
EndChar

StartChar: quoteleft
Encoding: 8216 8216 288
GlifName: quoteleft
Width: 2048
VWidth: 0
Flags: HW
LayerCount: 2
Fore
SplineSet
1007.89453125 1913 m 257
 1067.94921875 2078 l 257
 935.94921875 2078 l 257
 877.349609375 1917 l 257
 1007.89453125 1913 l 257
1028.58203125 2066 m 257
 1170.65039062 2275 l 257
 1104.29101562 2285 l 257
 934.212890625 2054 l 257
 1028.58203125 2066 l 257
EndSplineSet
EndChar

StartChar: quoteright
Encoding: 8217 8217 289
GlifName: quoteright
Width: 2048
VWidth: 0
Flags: HW
LayerCount: 2
Fore
SplineSet
1002.85839844 2168 m 257
 962.09375 2056 l 257
 1078.09375 2056 l 257
 1118.85839844 2168 l 257
 1002.85839844 2168 l 257
1051.66699219 2140 m 257
 929.141601562 1927 l 257
 966.762695312 1882 l 257
 1078.09375 2056 l 257
 1051.66699219 2140 l 257
EndSplineSet
EndChar

StartChar: quotesinglbase
Encoding: 8218 8218 290
GlifName: quotesinglbase
Width: 2048
VWidth: 0
Flags: HW
LayerCount: 2
Fore
SplineSet
1048.90429688 126 m 257
 1005.95605469 8 l 257
 1114.95605469 8 l 257
 1157.90429688 126 l 257
 1048.90429688 126 l 257
1005.95605469 8 m 257
 890.095703125 -118 l 257
 940.091796875 -129 l 257
 1114.95605469 8 l 257
 1005.95605469 8 l 257
EndSplineSet
EndChar

StartChar: quotesingle
Encoding: 39 39 291
GlifName: quotesingle
Width: 2048
VWidth: 0
Flags: HW
LayerCount: 2
Fore
SplineSet
1024.57519531 1496 m 257
 959.424804688 1317 l 257
 1023.42480469 1317 l 257
 1088.57519531 1496 l 257
 1024.57519531 1496 l 257
EndSplineSet
EndChar

StartChar: r
Encoding: 114 114 292
GlifName: r
Width: 2048
VWidth: 0
Flags: HW
LayerCount: 2
Fore
SplineSet
737.170898438 1023 m 257
 714.604492188 961 l 257
 1446.60449219 961 l 257
 1469.17089844 1023 l 257
 737.170898438 1023 l 257
938.795898438 989 m 257
 578.829101562 0 l 257
 638.829101562 0 l 257
 998.795898438 989 l 257
 938.795898438 989 l 257
1392.06445312 976 m 257
 1273.41015625 650 l 257
 1333.41015625 650 l 257
 1452.06445312 976 l 257
 1392.06445312 976 l 257
EndSplineSet
EndChar

StartChar: registered
Encoding: 174 174 295
GlifName: registered
Width: 2048
VWidth: 0
Flags: HW
LayerCount: 2
Fore
SplineSet
1004.90625 1032 m 257
 811.637695312 501 l 257
 848.637695312 501 l 257
 1041.90625 1032 l 257
 1004.90625 1032 l 257
1029.90625 1032 m 257
 1016.07519531 994 l 257
 1245.07519531 994 l 257
 1258.90625 1032 l 257
 1029.90625 1032 l 257
1229.90625 1032 m 257
 1146.19335938 802 l 257
 1184.19335938 802 l 257
 1267.90625 1032 l 257
 1229.90625 1032 l 257
958.935546875 848 m 257
 941.829101562 801 l 257
 1179.82910156 801 l 257
 1196.93554688 848 l 257
 958.935546875 848 l 257
991.741210938 809 m 257
 1078.27441406 500 l 257
 1121.27441406 500 l 257
 1026.74121094 809 l 257
 991.741210938 809 l 257
833.803710938 1540 m 257
 273.2890625 0 l 257
 335.2890625 0 l 257
 895.803710938 1540 l 257
 833.803710938 1540 l 257
1712.7109375 1537 m 257
 1153.2890625 0 l 257
 1215.2890625 0 l 257
 1774.7109375 1537 l 257
 1712.7109375 1537 l 257
872.075195312 1538 m 257
 850.237304688 1478 l 257
 1722.23730469 1478 l 257
 1744.07519531 1538 l 257
 872.075195312 1538 l 257
330.491210938 61 m 257
 308.2890625 0 l 257
 1200.2890625 0 l 257
 1222.49121094 61 l 257
 330.491210938 61 l 257
EndSplineSet
EndChar

StartChar: ring
Encoding: 730 730 296
GlifName: ring
Width: 2048
VWidth: 0
Flags: HW
LayerCount: 2
Fore
SplineSet
923.49609375 1302 m 257
 1213.49609375 1302 l 257
 1121.41210938 1049 l 257
 831.412109375 1049 l 257
 923.49609375 1302 l 257
900.05078125 1331 m 257
 787.94921875 1023 l 257
 1147.94921875 1023 l 257
 1260.05078125 1331 l 257
 900.05078125 1331 l 257
EndSplineSet
EndChar

StartChar: s
Encoding: 115 115 297
GlifName: s
Width: 2048
VWidth: 0
Flags: HW
LayerCount: 2
Fore
SplineSet
906.170898438 1023 m 257
 884.696289062 964 l 257
 1492.69628906 964 l 257
 1514.17089844 1023 l 257
 906.170898438 1023 l 257
906.170898438 1023 m 257
 801.7109375 736 l 257
 861.7109375 736 l 257
 966.170898438 1023 l 257
 906.170898438 1023 l 257
555.303710938 59 m 257
 533.829101562 0 l 257
 1139.82910156 0 l 257
 1161.30371094 59 l 257
 555.303710938 59 l 257
1186.65625 299 m 257
 1082.19628906 12 l 257
 1144.19628906 12 l 257
 1248.65625 299 l 257
 1186.65625 299 l 257
801.7109375 736 m 257
 1186.65625 299 l 257
 1248.65625 299 l 257
 861.7109375 736 l 257
 801.7109375 736 l 257
EndSplineSet
EndChar

StartChar: section
Encoding: 167 167 302
GlifName: section
Width: 2048
VWidth: 0
Flags: HW
LayerCount: 2
Fore
SplineSet
908.139648438 1237 m 257
 886.665039062 1178 l 257
 1484.66503906 1178 l 257
 1506.13964844 1237 l 257
 908.139648438 1237 l 257
908.139648438 1237 m 257
 678.110351562 605 l 257
 741.110351562 605 l 257
 971.139648438 1237 l 257
 908.139648438 1237 l 257
422.114257812 -200 m 257
 400.276367188 -260 l 257
 1108.27636719 -260 l 257
 1130.11425781 -200 l 257
 422.114257812 -200 l 257
1075.63964844 -259 m 257
 1135.63964844 -259 l 257
 1264.48535156 95 l 257
 1204.48535156 95 l 257
 1075.63964844 -259 l 257
678.474609375 606 m 257
 1200.9375 88 l 257
 1261.9375 88 l 257
 736.474609375 606 l 257
 678.474609375 606 l 257
1049.72363281 1626 m 257
 1027.88574219 1566 l 257
 1625.88574219 1566 l 257
 1647.72363281 1626 l 257
 1049.72363281 1626 l 257
1050.81542969 1629 m 257
 908.139648438 1237 l 257
 971.139648438 1237 l 257
 1113.81542969 1629 l 257
 1050.81542969 1629 l 257
517.9375 88 m 257
 500.103515625 39 l 257
 1208.10351562 39 l 257
 1225.9375 88 l 257
 517.9375 88 l 257
1200.9375 88 m 257
 1261.9375 88 l 257
 1390.78320312 442 l 257
 1329.78320312 442 l 257
 1200.9375 88 l 257
908.139648438 1237 m 257
 1330.78320312 442 l 257
 1390.78320312 442 l 257
 971.139648438 1237 l 257
 908.139648438 1237 l 257
EndSplineSet
EndChar

StartChar: semicolon
Encoding: 59 59 303
GlifName: semicolon
Width: 2048
VWidth: 0
Flags: HW
LayerCount: 2
Fore
SplineSet
922.87890625 164 m 257
 865.735351562 7 l 257
 1001.73535156 7 l 257
 1058.87890625 164 l 257
 922.87890625 164 l 257
996.323242188 135 m 257
 869.154296875 -99 l 257
 901.3203125 -148 l 257
 1006.65039062 26 l 257
 996.323242188 135 l 257
1046.26464844 503 m 257
 989.12109375 346 l 257
 1125.12109375 346 l 257
 1182.26464844 503 l 257
 1046.26464844 503 l 257
EndSplineSet
EndChar

StartChar: seven
Encoding: 55 55 304
GlifName: seven
Width: 2048
VWidth: 0
Flags: HW
LayerCount: 2
Fore
SplineSet
556.9453125 1495 m 257
 1407.9453125 1495 l 257
 863.80859375 0 l 257
 925.80859375 0 l 257
 1491.0546875 1553 l 257
 578.0546875 1553 l 257
 556.9453125 1495 l 257
EndSplineSet
EndChar

StartChar: six
Encoding: 54 54 305
GlifName: six
Width: 2048
VWidth: 0
Flags: HW
LayerCount: 2
Fore
SplineSet
834.077148438 1550 m 257
 343.081054688 201 l 257
 269.922851562 0 l 257
 1208.92285156 0 l 257
 1507.01464844 819 l 257
 630.014648438 819 l 257
 873.510742188 1488 l 257
 1755.51074219 1488 l 257
 1778.07714844 1550 l 257
 834.077148438 1550 l 257
1423.17578125 759 m 257
 1169.85253906 63 l 257
 360.852539062 63 l 257
 614.17578125 759 l 257
 1423.17578125 759 l 257
EndSplineSet
EndChar

StartChar: slash
Encoding: 47 47 306
GlifName: slash
Width: 2048
VWidth: 0
Flags: HW
LayerCount: 2
Fore
SplineSet
1533.51757812 1480 m 257
 411.482421875 10 l 257
 514.482421875 10 l 257
 1636.51757812 1480 l 257
 1533.51757812 1480 l 257
EndSplineSet
EndChar

StartChar: sterling
Encoding: 163 163 308
GlifName: sterling
Width: 2048
VWidth: 0
Flags: HW
LayerCount: 2
Fore
SplineSet
1327.30273438 1543 m 257
 1305.1015625 1482 l 257
 1494.1015625 1482 l 257
 1516.30273438 1543 l 257
 1327.30273438 1543 l 257
707.953125 770 m 257
 684.294921875 705 l 257
 1410.29492188 705 l 257
 1433.953125 770 l 257
 707.953125 770 l 257
1302.93945312 1542 m 257
 741.697265625 0 l 257
 817.697265625 0 l 257
 1378.93945312 1542 l 257
 1302.93945312 1542 l 257
557.90234375 72 m 257
 531.697265625 0 l 257
 1257.69726562 0 l 257
 1283.90234375 72 l 257
 557.90234375 72 l 257
EndSplineSet
EndChar

StartChar: t
Encoding: 116 116 309
GlifName: t
Width: 2048
VWidth: 0
Flags: HW
LayerCount: 2
Fore
SplineSet
1211.33984375 1529 m 257
 654.829101562 0 l 257
 714.829101562 0 l 257
 1271.33984375 1529 l 257
 1211.33984375 1529 l 257
688.666992188 60 m 257
 666.829101562 0 l 257
 1058.82910156 0 l 257
 1080.66699219 60 l 257
 688.666992188 60 l 257
719.170898438 1023 m 257
 698.060546875 965 l 257
 1372.06054688 965 l 257
 1393.17089844 1023 l 257
 719.170898438 1023 l 257
EndSplineSet
EndChar

StartChar: tcaron
Encoding: 357 357 310
GlifName: tcaron
Width: 2048
VWidth: 0
Flags: HW
LayerCount: 2
Fore
SplineSet
1182.26171875 1529 m 257
 625.75 0 l 257
 685.75 0 l 257
 1242.26171875 1529 l 257
 1182.26171875 1529 l 257
659.587890625 60 m 257
 637.75 0 l 257
 1029.75 0 l 257
 1051.58789062 60 l 257
 659.587890625 60 l 257
690.091796875 1023 m 257
 668.982421875 965 l 257
 1342.98242188 965 l 257
 1364.09179688 1023 l 257
 690.091796875 1023 l 257
1360.25 1496 m 257
 1295.09960938 1317 l 257
 1357.09960938 1317 l 257
 1422.25 1496 l 257
 1360.25 1496 l 257
EndSplineSet
EndChar

StartChar: thorn
Encoding: 254 254 311
GlifName: thorn
Width: 2048
VWidth: 0
Flags: HW
LayerCount: 2
Fore
SplineSet
982.84765625 1034 m 257
 458.73046875 -406 l 257
 516.73046875 -406 l 257
 1040.84765625 1034 l 257
 982.84765625 1034 l 257
901.26953125 667 m 257
 878.703125 605 l 257
 1566.703125 605 l 257
 1589.26953125 667 l 257
 901.26953125 667 l 257
595.365234375 -135 m 257
 573.52734375 -195 l 257
 1275.52734375 -195 l 257
 1297.36523438 -135 l 257
 595.365234375 -135 l 257
1521.62695312 646 m 257
 1224.62695312 -170 l 257
 1284.62695312 -170 l 257
 1581.62695312 646 l 257
 1521.62695312 646 l 257
EndSplineSet
EndChar

StartChar: three
Encoding: 51 51 312
GlifName: three
Width: 2048
VWidth: 0
Flags: HW
LayerCount: 2
Fore
SplineSet
596.760742188 736 m 257
 1398.76074219 736 l 257
 1149.80566406 52 l 257
 305.805664062 52 l 257
 292.966796875 -8 l 257
 1187.96679688 -8 l 257
 1755.03320312 1550 l 257
 881.033203125 1550 l 257
 860.286132812 1493 l 257
 1672.28613281 1493 l 257
 1418.59960938 796 l 257
 618.599609375 796 l 257
 596.760742188 736 l 257
EndSplineSet
EndChar

StartChar: threequarters
Encoding: 190 190 313
GlifName: threequarters
Width: 2048
VWidth: 0
Flags: HW
LayerCount: 2
Fore
SplineSet
1569.57617188 1483 m 257
 461.9921875 6 l 257
 478.423828125 -67 l 257
 1586.0078125 1410 l 257
 1569.57617188 1483 l 257
866.779296875 1272 m 257
 1184.77929688 1272 l 257
 1116.35351562 1084 l 257
 780.353515625 1084 l 257
 755.23828125 1015 l 257
 1137.23828125 1015 l 257
 1333.0546875 1553 l 257
 964.0546875 1553 l 257
 938.94140625 1484 l 257
 1260.94140625 1484 l 257
 1208.52929688 1340 l 257
 891.529296875 1340 l 257
 866.779296875 1272 l 257
1093.55859375 340 m 257
 1396.55859375 340 l 257
 1275.35742188 7 l 257
 1318.35742188 7 l 257
 1565.85742188 687 l 257
 1521.85742188 687 l 257
 1412.30078125 386 l 257
 1157.30078125 386 l 257
 1267.58398438 689 l 257
 1220.58398438 689 l 257
 1093.55859375 340 l 257
EndSplineSet
EndChar

StartChar: tilde
Encoding: 732 732 314
GlifName: tilde
Width: 2048
VWidth: 0
Flags: HW
LayerCount: 2
Fore
SplineSet
884.734375 279 m 257
 866.53515625 229 l 257
 1190.69335938 158 l 257
 1208.89257812 208 l 257
 884.734375 279 l 257
624.3515625 223 m 257
 617.240234375 165 l 257
 866.53515625 229 l 257
 884.734375 279 l 257
 624.3515625 223 l 257
1208.89257812 208 m 257
 1190.69335938 158 l 257
 1427.65234375 309 l 257
 1430.75976562 356 l 257
 1208.89257812 208 l 257
EndSplineSet
EndChar

StartChar: tildecomb
Encoding: 771 771 315
GlifName: tildecomb
Width: 2048
VWidth: 0
Flags: HW
LayerCount: 2
Fore
SplineSet
884.733398438 1966 m 257
 866.53515625 1916 l 257
 1190.69335938 1845 l 257
 1208.89160156 1895 l 257
 884.733398438 1966 l 257
624.3515625 1910 m 257
 617.241210938 1852 l 257
 866.53515625 1916 l 257
 884.733398438 1966 l 257
 624.3515625 1910 l 257
1208.89160156 1895 m 257
 1190.69335938 1845 l 257
 1427.65234375 1996 l 257
 1430.75878906 2043 l 257
 1208.89160156 1895 l 257
EndSplineSet
EndChar

StartChar: two
Encoding: 50 50 317
GlifName: two
Width: 2048
VWidth: 0
Flags: HW
LayerCount: 2
Fore
SplineSet
882.646484375 1484 m 257
 1616.64648438 1484 l 257
 1407 908 l 257
 680 908 l 257
 349.515625 0 l 257
 1122.515625 0 l 257
 1143.99023438 59 l 257
 430.990234375 59 l 257
 718.525390625 849 l 257
 1445.52539062 849 l 257
 1698.484375 1544 l 257
 904.484375 1544 l 257
 882.646484375 1484 l 257
EndSplineSet
EndChar

StartChar: u
Encoding: 117 117 318
GlifName: u
Width: 2048
VWidth: 0
Flags: HW
LayerCount: 2
Fore
SplineSet
896.35546875 1034 m 257
 520.009765625 0 l 257
 580.009765625 0 l 257
 956.35546875 1034 l 257
 896.35546875 1034 l 257
1469.99023438 1033 m 257
 1094.00976562 0 l 257
 1152.00976562 0 l 257
 1527.99023438 1033 l 257
 1469.99023438 1033 l 257
588.2109375 61 m 257
 566.009765625 0 l 257
 1268.00976562 0 l 257
 1290.2109375 61 l 257
 588.2109375 61 l 257
EndSplineSet
EndChar

StartChar: underscore
Encoding: 95 95 327
GlifName: underscore
Width: 2048
VWidth: 0
Flags: HW
LayerCount: 2
Fore
SplineSet
519.279296875 0 m 257
 504.720703125 -40 l 257
 1528.72070312 -40 l 257
 1543.27929688 0 l 257
 519.279296875 0 l 257
EndSplineSet
EndChar

StartChar: uni00B2
Encoding: 178 178 329
GlifName: uni00B_2
Width: 2048
VWidth: 0
Flags: HW
LayerCount: 2
Fore
SplineSet
928.134765625 1522 m 257
 1281.13476562 1522 l 257
 1202.88085938 1307 l 257
 852.880859375 1307 l 257
 729.859375 969 l 257
 1101.859375 969 l 257
 1109.86523438 991 l 257
 766.865234375 991 l 257
 873.873046875 1285 l 257
 1223.87304688 1285 l 257
 1318.140625 1544 l 257
 936.140625 1544 l 257
 928.134765625 1522 l 257
EndSplineSet
EndChar

StartChar: uni00B3
Encoding: 179 179 330
GlifName: uni00B_3
Width: 2048
VWidth: 0
Flags: HW
LayerCount: 2
Fore
SplineSet
783.450195312 1246 m 257
 1240.45019531 1246 l 257
 1146.91015625 989 l 257
 664.91015625 989 l 257
 662.90234375 967 l 257
 1172.90234375 967 l 257
 1385.09765625 1550 l 257
 886.09765625 1550 l 257
 878.454101562 1529 l 257
 1341.45410156 1529 l 257
 1246.45800781 1268 l 257
 791.458007812 1268 l 257
 783.450195312 1246 l 257
EndSplineSet
EndChar

StartChar: uni00B9
Encoding: 185 185 331
GlifName: uni00B_9
Width: 2048
VWidth: 0
Flags: HW
LayerCount: 2
Fore
SplineSet
867.9609375 887.5 m 257
 897.9609375 887.5 l 257
 1180.0390625 1662.5 l 257
 1150.0390625 1662.5 l 257
 867.9609375 887.5 l 257
1150.0390625 1662.5 m 257
 1067.97265625 1600.5 l 257
 1088.37695312 1586.5 l 257
 1180.0390625 1662.5 l 257
 1150.0390625 1662.5 l 257
EndSplineSet
EndChar

StartChar: uni0123
Encoding: 291 291 333
GlifName: uni0123
Width: 2048
VWidth: 0
Flags: HW
LayerCount: 2
Fore
SplineSet
999.330078125 1023 m 257
 626.98828125 0 l 257
 685.98828125 0 l 257
 1058.33007812 1023 l 257
 999.330078125 1023 l 257
1039.33007812 1023 m 257
 1017.85546875 964 l 257
 1533.85546875 964 l 257
 1555.33007812 1023 l 257
 1039.33007812 1023 l 257
1516.33007812 1023 m 257
 994.396484375 -411 l 257
 1055.39648438 -411 l 257
 1577.33007812 1023 l 257
 1516.33007812 1023 l 257
712.19140625 61 m 257
 689.98828125 0 l 257
 1146.98828125 0 l 257
 1169.19140625 61 l 257
 712.19140625 61 l 257
492.142578125 -354 m 257
 470.669921875 -413 l 257
 1005.66992188 -413 l 257
 1027.14257812 -354 l 257
 492.142578125 -354 l 257
1355.18359375 1399 m 257
 1282.02539062 1198 l 257
 1343.02539062 1198 l 257
 1416.18359375 1399 l 257
 1355.18359375 1399 l 257
EndSplineSet
EndChar

StartChar: uni0192
Encoding: 402 402 344
GlifName: uni0192
Width: 2048
VWidth: 0
Flags: HW
LayerCount: 2
Fore
SplineSet
1207.05664062 1023 m 257
 686.943359375 -406 l 257
 747.943359375 -406 l 257
 1268.05664062 1023 l 257
 1207.05664062 1023 l 257
1234.05664062 1023 m 257
 1213.31054688 966 l 257
 1658.31054688 966 l 257
 1679.05664062 1023 l 257
 1234.05664062 1023 l 257
782.173828125 559 m 257
 760.700195312 500 l 257
 1391.70019531 500 l 257
 1413.17382812 559 l 257
 782.173828125 559 l 257
391.145507812 -345 m 257
 368.943359375 -406 l 257
 740.943359375 -406 l 257
 763.145507812 -345 l 257
 391.145507812 -345 l 257
EndSplineSet
EndChar

StartChar: uni0237
Encoding: 567 567 383
GlifName: uni0237
Width: 2048
VWidth: 0
Flags: HW
LayerCount: 2
Fore
SplineSet
1540.05664062 1023 m 257
 1018.12304688 -411 l 257
 1076.12304688 -411 l 257
 1598.05664062 1023 l 257
 1540.05664062 1023 l 257
471.052734375 -348 m 257
 449.943359375 -406 l 257
 1039.94335938 -406 l 257
 1061.05273438 -348 l 257
 471.052734375 -348 l 257
595.53125 -6 m 257
 460.133789062 -378 l 257
 520.133789062 -378 l 257
 655.53125 -6 l 257
 595.53125 -6 l 257
EndSplineSet
EndChar

StartChar: uni02C9
Encoding: 713 713 387
GlifName: uni02C_9
Width: 2048
VWidth: 0
Flags: HW
LayerCount: 2
Fore
SplineSet
758.55859375 1630 m 257
 729.44140625 1550 l 257
 1289.44140625 1550 l 257
 1318.55859375 1630 l 257
 758.55859375 1630 l 257
EndSplineSet
EndChar

StartChar: uni02CA
Encoding: 714 714 388
GlifName: uni02C_A_
Width: 2048
VWidth: 0
Flags: HW
LayerCount: 2
Fore
SplineSet
1076.85546875 949 m 257
 930.51953125 764 l 257
 971.14453125 730 l 257
 1117.48046875 915 l 257
 1076.85546875 949 l 257
EndSplineSet
EndChar

StartChar: uni02CB
Encoding: 715 715 389
GlifName: uni02C_B_
Width: 2048
VWidth: 0
Flags: HW
LayerCount: 2
Fore
SplineSet
959.297851562 877 m 257
 1009.04785156 673 l 257
 1088.70214844 727 l 257
 1039.31640625 932 l 257
 959.297851562 877 l 257
EndSplineSet
EndChar

StartChar: uni0302
Encoding: 770 770 390
GlifName: uni0302
Width: 2048
VWidth: 0
Flags: HW
LayerCount: 2
Fore
SplineSet
1136.55859375 2308 m 257
 1100.55859375 2308 l 257
 855.728515625 1998 l 257
 876.541015625 1981 l 257
 1136.55859375 2308 l 257
1104.28710938 2310 m 257
 1144.72070312 1976 l 257
 1192.27148438 1994 l 257
 1141.28710938 2310 l 257
 1104.28710938 2310 l 257
EndSplineSet
EndChar

StartChar: uni0304
Encoding: 772 772 391
GlifName: uni0304
Width: 2048
VWidth: 0
Flags: HW
LayerCount: 2
Fore
SplineSet
753.462890625 1602 m 257
 734.537109375 1550 l 257
 1294.53710938 1550 l 257
 1313.46289062 1602 l 257
 753.462890625 1602 l 257
EndSplineSet
EndChar

StartChar: uni0306
Encoding: 774 774 392
GlifName: uni0306
Width: 2048
VWidth: 0
Flags: HW
LayerCount: 2
Fore
SplineSet
1171.7109375 1550 m 257
 1146.23242188 1480 l 257
 1336.7109375 1550 l 257
 1371.2890625 1645 l 257
 1171.7109375 1550 l 257
847.7109375 1550 m 257
 822.232421875 1480 l 257
 1146.23242188 1480 l 257
 1171.7109375 1550 l 257
 847.7109375 1550 l 257
705.828125 1630 m 257
 676.7109375 1550 l 257
 822.232421875 1480 l 257
 847.7109375 1550 l 257
 705.828125 1630 l 257
EndSplineSet
EndChar

StartChar: uni0307
Encoding: 775 775 393
GlifName: uni0307
Width: 2048
VWidth: 0
Flags: HW
LayerCount: 2
Fore
SplineSet
986.380859375 1738 m 257
 949.619140625 1637 l 257
 1061.61914062 1637 l 257
 1098.38085938 1738 l 257
 986.380859375 1738 l 257
EndSplineSet
EndChar

StartChar: uni0308
Encoding: 776 776 394
GlifName: uni0308
Width: 2048
VWidth: 0
Flags: HW
LayerCount: 2
Fore
SplineSet
865.380859375 1738 m 257
 828.619140625 1637 l 257
 940.619140625 1637 l 257
 977.380859375 1738 l 257
 865.380859375 1738 l 257
1107.38085938 1738 m 257
 1070.61914062 1637 l 257
 1182.61914062 1637 l 257
 1219.38085938 1738 l 257
 1107.38085938 1738 l 257
EndSplineSet
EndChar

StartChar: uni030A
Encoding: 778 778 395
GlifName: uni030A_
Width: 2048
VWidth: 0
Flags: HW
LayerCount: 2
Fore
SplineSet
923.678710938 1818 m 257
 1213.67871094 1818 l 257
 1121.59375 1565 l 257
 831.59375 1565 l 257
 923.678710938 1818 l 257
900.233398438 1847 m 257
 787.766601562 1538 l 257
 1147.76660156 1538 l 257
 1260.23339844 1847 l 257
 900.233398438 1847 l 257
EndSplineSet
EndChar

StartChar: uni030C
Encoding: 780 780 397
GlifName: uni030C_
Width: 2048
VWidth: 0
Flags: HW
LayerCount: 2
Fore
SplineSet
909.44140625 1286 m 257
 887.458984375 1613 l 257
 854.271484375 1596 l 257
 873.44140625 1286 l 257
 909.44140625 1286 l 257
876.078125 1285 m 257
 913.078125 1285 l 257
 1193.72851562 1600 l 257
 1159.27929688 1618 l 257
 876.078125 1285 l 257
EndSplineSet
EndChar

StartChar: uni0326
Encoding: 806 806 398
GlifName: uni0326
Width: 2048
VWidth: 0
Flags: HW
LayerCount: 2
Fore
SplineSet
1034.76855469 0 m 257
 986.724609375 -132 l 257
 1098.72460938 -132 l 257
 1146.76855469 0 l 257
 1034.76855469 0 l 257
986.724609375 -132 m 257
 901.231445312 -246 l 257
 955.404296875 -273 l 257
 1098.72460938 -132 l 257
 986.724609375 -132 l 257
EndSplineSet
EndChar

StartChar: uni0327
Encoding: 807 807 399
GlifName: uni0327
Width: 2048
VWidth: 0
Flags: HW
LayerCount: 2
Fore
SplineSet
934.400390625 180 m 257
 847.047851562 -60 l 257
 905.047851562 -60 l 257
 992.400390625 180 l 257
 934.400390625 180 l 257
748.587890625 -347 m 257
 727.114257812 -406 l 257
 1173.11425781 -406 l 257
 1194.58789062 -347 l 257
 748.587890625 -347 l 257
1261.88574219 0 m 257
 1126.48925781 -372 l 257
 1185.48925781 -372 l 257
 1320.88574219 0 l 257
 1261.88574219 0 l 257
874.885742188 0 m 257
 853.047851562 -60 l 257
 1299.04785156 -60 l 257
 1320.88574219 0 l 257
 874.885742188 0 l 257
EndSplineSet
EndChar

StartChar: uni0328
Encoding: 808 808 400
GlifName: uni0328
Width: 2048
VWidth: 0
Flags: HW
LayerCount: 2
Fore
SplineSet
700.041992188 -351 m 257
 678.204101562 -411 l 257
 1219.20410156 -411 l 257
 1241.04199219 -351 l 257
 700.041992188 -351 l 257
827.795898438 0 m 257
 678.204101562 -411 l 257
 738.204101562 -411 l 257
 887.795898438 0 l 257
 827.795898438 0 l 257
827.795898438 0 m 257
 806.321289062 -59 l 257
 1348.32128906 -59 l 257
 1369.79589844 0 l 257
 827.795898438 0 l 257
EndSplineSet
EndChar

StartChar: uni0331
Encoding: 817 817 401
GlifName: uni0331
Width: 2048
VWidth: 0
Flags: HW
LayerCount: 2
Fore
SplineSet
752.0078125 -204 m 257
 735.9921875 -248 l 257
 1295.9921875 -248 l 257
 1312.0078125 -204 l 257
 752.0078125 -204 l 257
EndSplineSet
EndChar

StartChar: uni0900
Encoding: 2304 2304 402
GlifName: uni0900
Width: 2048
VWidth: 0
Flags: HW
LayerCount: 2
Fore
SplineSet
506.1875 1550 m 257
 483.62109375 1488 l 257
 1510.62109375 1488 l 257
 1533.1875 1550 l 257
 506.1875 1550 l 257
899.013671875 2121 m 257
 723.580078125 1639 l 257
 783.580078125 1639 l 257
 959.013671875 2121 l 257
 899.013671875 2121 l 257
913.37890625 2122 m 257
 891.17578125 2061 l 257
 1504.17578125 2061 l 257
 1526.37890625 2122 l 257
 913.37890625 2122 l 257
1111.4921875 1919 m 257
 1066.72460938 1796 l 257
 1183.72460938 1796 l 257
 1228.4921875 1919 l 257
 1111.4921875 1919 l 257
1504.37890625 2122 m 257
 1327.48828125 1636 l 257
 1387.48828125 1636 l 257
 1564.37890625 2122 l 257
 1504.37890625 2122 l 257
EndSplineSet
EndChar

StartChar: uni0901
Encoding: 2305 2305 403
GlifName: uni0901
Width: 2048
VWidth: 0
Flags: HW
LayerCount: 2
Fore
SplineSet
512.732421875 1550 m 257
 490.166015625 1488 l 257
 1517.16601562 1488 l 257
 1539.73242188 1550 l 257
 512.732421875 1550 l 257
857.650390625 2124 m 257
 681.125 1639 l 257
 741.125 1639 l 257
 917.650390625 2124 l 257
 857.650390625 2124 l 257
737.962890625 1699 m 257
 716.125 1639 l 257
 1350.125 1639 l 257
 1371.96289062 1699 l 257
 737.962890625 1699 l 257
1100.6875 1962 m 257
 1055.91796875 1839 l 257
 1172.91796875 1839 l 257
 1217.6875 1962 l 257
 1100.6875 1962 l 257
1497.83398438 2130 m 257
 1319.125 1639 l 257
 1379.125 1639 l 257
 1557.83398438 2130 l 257
 1497.83398438 2130 l 257
EndSplineSet
EndChar

StartChar: uni0902
Encoding: 2306 2306 404
GlifName: uni0902
Width: 2048
VWidth: 0
Flags: HW
LayerCount: 2
Fore
SplineSet
826.377929688 1700 m 257
 782.702148438 1580 l 257
 902.702148438 1580 l 257
 946.377929688 1700 l 257
 826.377929688 1700 l 257
521.783203125 1550 m 257
 499.216796875 1488 l 257
 1526.21679688 1488 l 257
 1548.78320312 1550 l 257
 521.783203125 1550 l 257
EndSplineSet
EndChar

StartChar: uni0903
Encoding: 2307 2307 405
GlifName: uni0903
Width: 2048
VWidth: 0
Flags: HW
LayerCount: 2
Fore
SplineSet
842.506835938 410 m 257
 798.831054688 290 l 257
 918.831054688 290 l 257
 962.506835938 410 l 257
 842.506835938 410 l 257
1129.16894531 1302 m 257
 1085.4921875 1182 l 257
 1205.4921875 1182 l 257
 1249.16894531 1302 l 257
 1129.16894531 1302 l 257
EndSplineSet
EndChar

StartChar: uni0904
Encoding: 2308 2308 406
GlifName: uni0904
Width: 2048
VWidth: 0
Flags: HW
LayerCount: 2
Fore
SplineSet
1214.421875 2062 m 257
 1127.43359375 1823 l 257
 1188.43359375 1823 l 257
 1275.421875 2062 l 257
 1214.421875 2062 l 257
1142.08398438 1866 m 257
 1121.33789062 1809 l 257
 1804.33789062 1809 l 257
 1825.08398438 1866 l 257
 1142.08398438 1866 l 257
1763.9921875 1863 m 257
 1648.25 1545 l 257
 1708.25 1545 l 257
 1823.9921875 1863 l 257
 1763.9921875 1863 l 257
1498.0703125 1550 m 257
 1475.50390625 1488 l 257
 1772.50390625 1488 l 257
 1795.0703125 1550 l 257
 1498.0703125 1550 l 257
1665.421875 1518 m 257
 1112.91601562 0 l 257
 1173.91601562 0 l 257
 1726.421875 1518 l 257
 1665.421875 1518 l 257
812.0703125 1550 m 257
 789.138671875 1487 l 257
 1312.13867188 1487 l 257
 1335.0703125 1550 l 257
 812.0703125 1550 l 257
1302.0703125 1550 m 257
 750.291015625 34 l 257
 809.291015625 34 l 257
 1361.0703125 1550 l 257
 1302.0703125 1550 l 257
657.3046875 894 m 257
 635.830078125 835 l 257
 1443.83007812 835 l 257
 1465.3046875 894 l 257
 657.3046875 894 l 257
246.57421875 65 m 257
 222.916015625 0 l 257
 796.916015625 0 l 257
 820.57421875 65 l 257
 246.57421875 65 l 257
EndSplineSet
EndChar

StartChar: uni0905
Encoding: 2309 2309 407
GlifName: uni0905
Width: 2048
VWidth: 0
Flags: HW
LayerCount: 2
Fore
SplineSet
1512.57714844 1550 m 257
 1490.01074219 1488 l 257
 1787.01074219 1488 l 257
 1809.57714844 1550 l 257
 1512.57714844 1550 l 257
1680.9296875 1518 m 257
 1128.42285156 0 l 257
 1189.42285156 0 l 257
 1741.9296875 1518 l 257
 1680.9296875 1518 l 257
827.577148438 1550 m 257
 804.646484375 1487 l 257
 1327.64648438 1487 l 257
 1350.57714844 1550 l 257
 827.577148438 1550 l 257
1317.57714844 1550 m 257
 765.797851562 34 l 257
 824.797851562 34 l 257
 1376.57714844 1550 l 257
 1317.57714844 1550 l 257
672.8125 894 m 257
 651.337890625 835 l 257
 1459.33789062 835 l 257
 1480.8125 894 l 257
 672.8125 894 l 257
262.081054688 65 m 257
 238.422851562 0 l 257
 812.422851562 0 l 257
 836.081054688 65 l 257
 262.081054688 65 l 257
EndSplineSet
EndChar

StartChar: uni0906
Encoding: 2310 2310 408
GlifName: uni0906
Width: 2048
VWidth: 0
Flags: HW
LayerCount: 2
Fore
SplineSet
1310.07714844 1550 m 257
 1287.51074219 1488 l 257
 1788.51074219 1488 l 257
 1811.07714844 1550 l 257
 1310.07714844 1550 l 257
1481.4296875 1518 m 257
 928.922851562 0 l 257
 989.922851562 0 l 257
 1542.4296875 1518 l 257
 1481.4296875 1518 l 257
826.077148438 1550 m 257
 803.146484375 1487 l 257
 1126.14648438 1487 l 257
 1149.07714844 1550 l 257
 826.077148438 1550 l 257
1116.07714844 1550 m 257
 564.297851562 34 l 257
 623.297851562 34 l 257
 1175.07714844 1550 l 257
 1116.07714844 1550 l 257
671.3125 894 m 257
 649.837890625 835 l 257
 1257.83789062 835 l 257
 1279.3125 894 l 257
 671.3125 894 l 257
260.581054688 65 m 257
 236.922851562 0 l 257
 610.922851562 0 l 257
 634.581054688 65 l 257
 260.581054688 65 l 257
1664.4296875 1518 m 257
 1111.92285156 0 l 257
 1172.92285156 0 l 257
 1725.4296875 1518 l 257
 1664.4296875 1518 l 257
EndSplineSet
EndChar

StartChar: uni0907
Encoding: 2311 2311 409
GlifName: uni0907
Width: 2048
VWidth: 0
Flags: HW
LayerCount: 2
Fore
SplineSet
699.481445312 1550 m 257
 676.915039062 1488 l 257
 1710.91503906 1488 l 257
 1733.48144531 1550 l 257
 699.481445312 1550 l 257
1383.83398438 1518 m 257
 1258.26464844 1173 l 257
 1317.26464844 1173 l 257
 1442.83398438 1518 l 257
 1383.83398438 1518 l 257
747.911132812 1205 m 257
 725.708984375 1144 l 257
 1305.70898438 1144 l 257
 1327.91113281 1205 l 257
 747.911132812 1205 l 257
739.17578125 1181 m 257
 616.881835938 845 l 257
 674.881835938 845 l 257
 797.17578125 1181 l 257
 739.17578125 1181 l 257
629.985351562 881 m 257
 607.418945312 819 l 257
 1253.41894531 819 l 257
 1275.98535156 881 l 257
 629.985351562 881 l 257
1241.98535156 881 m 257
 1025.05859375 285 l 257
 1085.05859375 285 l 257
 1301.98535156 881 l 257
 1241.98535156 881 l 257
395.790039062 298 m 257
 373.587890625 237 l 257
 1068.58789062 237 l 257
 1090.79003906 298 l 257
 395.790039062 298 l 257
511.790039062 298 m 257
 314.518554688 -244 l 257
 374.518554688 -244 l 257
 571.790039062 298 l 257
 511.790039062 298 l 257
EndSplineSet
EndChar

StartChar: uni0908
Encoding: 2312 2312 410
GlifName: uni0908
Width: 2048
VWidth: 0
Flags: HW
LayerCount: 2
Fore
SplineSet
696.981445312 1550 m 257
 674.415039062 1488 l 257
 1711.41503906 1488 l 257
 1733.98144531 1550 l 257
 696.981445312 1550 l 257
1387.33789062 1529 m 257
 1261.40429688 1183 l 257
 1321.40429688 1183 l 257
 1447.33789062 1529 l 257
 1387.33789062 1529 l 257
748.139648438 1207 m 257
 725.9375 1146 l 257
 1307.9375 1146 l 257
 1330.13964844 1207 l 257
 748.139648438 1207 l 257
738.67578125 1181 m 257
 617.837890625 849 l 257
 677.837890625 849 l 257
 798.67578125 1181 l 257
 738.67578125 1181 l 257
629.485351562 881 m 257
 607.646484375 821 l 257
 1259.64648438 821 l 257
 1281.48535156 881 l 257
 629.485351562 881 l 257
1243.48535156 881 m 257
 1026.55859375 285 l 257
 1086.55859375 285 l 257
 1303.48535156 881 l 257
 1243.48535156 881 l 257
395.290039062 298 m 257
 373.087890625 237 l 257
 1071.08789062 237 l 257
 1093.29003906 298 l 257
 395.290039062 298 l 257
511.290039062 298 m 257
 314.018554688 -244 l 257
 374.018554688 -244 l 257
 571.290039062 298 l 257
 511.290039062 298 l 257
1131.81152344 1860 m 257
 1249.98144531 1550 l 257
 1353.98144531 1550 l 257
 1227.28222656 1908 l 257
 1131.81152344 1860 l 257
EndSplineSet
EndChar

StartChar: uni0909
Encoding: 2313 2313 411
GlifName: uni0909
Width: 2048
VWidth: 0
Flags: HW
LayerCount: 2
Fore
SplineSet
727.077148438 1550 m 257
 704.510742188 1488 l 257
 1729.51074219 1488 l 257
 1752.07714844 1550 l 257
 727.077148438 1550 l 257
1342.796875 1530 m 257
 1150.25683594 1001 l 257
 1209.25683594 1001 l 257
 1401.796875 1530 l 257
 1342.796875 1530 l 257
780.908203125 1044 m 257
 759.43359375 985 l 257
 1401.43359375 985 l 257
 1422.90820312 1044 l 257
 780.908203125 1044 l 257
1345.70898438 994 m 257
 983.922851562 0 l 257
 1042.92285156 0 l 257
 1404.70898438 994 l 257
 1345.70898438 994 l 257
318.125 61 m 257
 295.922851562 0 l 257
 1032.92285156 0 l 257
 1055.125 61 l 257
 318.125 61 l 257
421.856445312 346 m 257
 302.837890625 19 l 257
 361.837890625 19 l 257
 480.856445312 346 l 257
 421.856445312 346 l 257
EndSplineSet
EndChar

StartChar: uni090A
Encoding: 2314 2314 412
GlifName: uni090A_
Width: 2048
VWidth: 0
Flags: HW
LayerCount: 2
Fore
SplineSet
769.077148438 1550 m 257
 746.510742188 1488 l 257
 1771.51074219 1488 l 257
 1794.07714844 1550 l 257
 769.077148438 1550 l 257
1095.796875 1530 m 257
 903.256835938 1001 l 257
 964.256835938 1001 l 257
 1156.796875 1530 l 257
 1095.796875 1530 l 257
738.908203125 1044 m 257
 716.706054688 983 l 257
 1521.70605469 983 l 257
 1543.90820312 1044 l 257
 738.908203125 1044 l 257
1195.70898438 994 m 257
 845.93359375 33 l 257
 906.93359375 33 l 257
 1256.70898438 994 l 257
 1195.70898438 994 l 257
276.125 61 m 257
 253.922851562 0 l 257
 894.922851562 0 l 257
 917.125 61 l 257
 276.125 61 l 257
379.856445312 346 m 257
 260.837890625 19 l 257
 321.837890625 19 l 257
 440.856445312 346 l 257
 379.856445312 346 l 257
1476.26464844 1023 m 257
 1175.625 197 l 257
 1235.625 197 l 257
 1536.26464844 1023 l 257
 1476.26464844 1023 l 257
EndSplineSet
EndChar

StartChar: uni090B
Encoding: 2315 2315 413
GlifName: uni090B_
Width: 2048
VWidth: 0
Flags: HW
LayerCount: 2
Fore
SplineSet
679.779296875 1550 m 257
 657.212890625 1488 l 257
 1674.21289062 1488 l 257
 1696.77929688 1550 l 257
 679.779296875 1550 l 257
1181.59179688 1533 m 257
 623.625 0 l 257
 671.625 0 l 257
 1233.95898438 1545 l 257
 1181.59179688 1533 l 257
513.24609375 1043 m 257
 491.408203125 983 l 257
 794.408203125 983 l 257
 816.24609375 1043 l 257
 513.24609375 1043 l 257
816.0546875 471 m 257
 351.220703125 422 l 257
 419.477539062 376 l 257
 831.400390625 417 l 257
 816.0546875 471 l 257
816.24609375 1043 m 257
 794.408203125 983 l 257
 998.92578125 902 l 257
 1019.30859375 958 l 257
 816.24609375 1043 l 257
997.106445312 897 m 257
 975.268554688 837 l 257
 1316.26855469 837 l 257
 1338.10644531 897 l 257
 997.106445312 897 l 257
1296.10644531 897 m 257
 1066.07714844 265 l 257
 1127.07714844 265 l 257
 1357.10644531 897 l 257
 1296.10644531 897 l 257
1087.55175781 324 m 257
 1065.71289062 264 l 257
 1235.71289062 264 l 257
 1257.55175781 324 l 257
 1087.55175781 324 l 257
EndSplineSet
EndChar

StartChar: uni090C
Encoding: 2316 2316 414
GlifName: uni090C_
Width: 2048
VWidth: 0
Flags: HW
LayerCount: 2
Fore
SplineSet
712.216796875 1550 m 257
 689.650390625 1488 l 257
 1728.65039062 1488 l 257
 1751.21679688 1550 l 257
 712.216796875 1550 l 257
1425.21679688 1550 m 257
 1137.31542969 759 l 257
 1197.31542969 759 l 257
 1485.21679688 1550 l 257
 1425.21679688 1550 l 257
1406.96289062 791 m 257
 490.962890625 791 l 257
 469.125 731 l 257
 1385.125 731 l 257
 1406.96289062 791 l 257
487.8671875 777 m 257
 296.783203125 252 l 257
 356.783203125 252 l 257
 547.8671875 777 l 257
 487.8671875 777 l 257
914.962890625 791 m 257
 784.661132812 433 l 257
 844.661132812 433 l 257
 974.962890625 791 l 257
 914.962890625 791 l 257
1337.32714844 792 m 257
 1075.6328125 73 l 257
 1135.6328125 73 l 257
 1397.32714844 792 l 257
 1337.32714844 792 l 257
1141.10644531 132 m 257
 1118.90429688 71 l 257
 1210.90429688 71 l 257
 1233.10644531 132 l 257
 1141.10644531 132 l 257
EndSplineSet
EndChar

StartChar: uni090D
Encoding: 2317 2317 415
GlifName: uni090D_
Width: 2048
VWidth: 0
Flags: HW
LayerCount: 2
Fore
SplineSet
660.112304688 1550 m 257
 637.545898438 1488 l 257
 1672.54589844 1488 l 257
 1695.11230469 1550 l 257
 660.112304688 1550 l 257
1531.29199219 1545 m 257
 1252.49121094 779 l 257
 1312.49121094 779 l 257
 1591.29199219 1545 l 257
 1531.29199219 1545 l 257
1040.32910156 839 m 257
 1018.49121094 779 l 257
 1312.49121094 779 l 257
 1334.32910156 839 l 257
 1040.32910156 839 l 257
804.200195312 1542 m 257
 365.979492188 338 l 257
 425.979492188 338 l 257
 864.200195312 1542 l 257
 804.200195312 1542 l 257
373.259765625 358 m 257
 351.057617188 297 l 257
 951.057617188 297 l 257
 973.259765625 358 l 257
 373.259765625 358 l 257
919.259765625 358 m 257
 753.2890625 -98 l 257
 813.2890625 -98 l 257
 979.259765625 358 l 257
 919.259765625 358 l 257
473.126953125 -38 m 257
 451.2890625 -98 l 257
 811.2890625 -98 l 257
 833.126953125 -38 l 257
 473.126953125 -38 l 257
1030.03125 2124 m 257
 853.504882812 1639 l 257
 913.504882812 1639 l 257
 1090.03125 2124 l 257
 1030.03125 2124 l 257
922.435546875 1702 m 257
 900.233398438 1641 l 257
 1494.23339844 1641 l 257
 1516.43554688 1702 l 257
 922.435546875 1702 l 257
1636.94238281 2132 m 257
 1458.23339844 1641 l 257
 1518.23339844 1641 l 257
 1696.94238281 2132 l 257
 1636.94238281 2132 l 257
EndSplineSet
EndChar

StartChar: uni090E
Encoding: 2318 2318 416
GlifName: uni090E_
Width: 2048
VWidth: 0
Flags: HW
LayerCount: 2
Fore
SplineSet
642.51953125 1550 m 257
 619.953125 1488 l 257
 1654.953125 1488 l 257
 1677.51953125 1550 l 257
 642.51953125 1550 l 257
1513.69921875 1545 m 257
 1234.8984375 779 l 257
 1294.8984375 779 l 257
 1573.69921875 1545 l 257
 1513.69921875 1545 l 257
1022.73632812 839 m 257
 1000.8984375 779 l 257
 1294.8984375 779 l 257
 1316.73632812 839 l 257
 1022.73632812 839 l 257
786.607421875 1542 m 257
 348.38671875 338 l 257
 408.38671875 338 l 257
 846.607421875 1542 l 257
 786.607421875 1542 l 257
355.66796875 358 m 257
 333.46484375 297 l 257
 933.46484375 297 l 257
 955.66796875 358 l 257
 355.66796875 358 l 257
901.66796875 358 m 257
 735.697265625 -98 l 257
 795.697265625 -98 l 257
 961.66796875 358 l 257
 901.66796875 358 l 257
455.53515625 -38 m 257
 433.697265625 -98 l 257
 793.697265625 -98 l 257
 815.53515625 -38 l 257
 455.53515625 -38 l 257
1103.87304688 2062 m 257
 1016.8828125 1823 l 257
 1076.8828125 1823 l 257
 1163.87304688 2062 l 257
 1103.87304688 2062 l 257
1030.53515625 1866 m 257
 1009.78710938 1809 l 257
 1693.78710938 1809 l 257
 1714.53515625 1866 l 257
 1030.53515625 1866 l 257
1653.62304688 1858 m 257
 1537.88085938 1540 l 257
 1597.88085938 1540 l 257
 1713.62304688 1858 l 257
 1653.62304688 1858 l 257
EndSplineSet
EndChar

StartChar: uni090F
Encoding: 2319 2319 417
GlifName: uni090F_
Width: 2048
VWidth: 0
Flags: HW
LayerCount: 2
Fore
SplineSet
661.02734375 1550 m 257
 638.4609375 1488 l 257
 1673.4609375 1488 l 257
 1696.02734375 1550 l 257
 661.02734375 1550 l 257
1532.20703125 1545 m 257
 1253.40625 779 l 257
 1313.40625 779 l 257
 1592.20703125 1545 l 257
 1532.20703125 1545 l 257
1041.24414062 839 m 257
 1019.40625 779 l 257
 1313.40625 779 l 257
 1335.24414062 839 l 257
 1041.24414062 839 l 257
805.115234375 1542 m 257
 366.89453125 338 l 257
 426.89453125 338 l 257
 865.115234375 1542 l 257
 805.115234375 1542 l 257
374.174804688 358 m 257
 351.97265625 297 l 257
 951.97265625 297 l 257
 974.174804688 358 l 257
 374.174804688 358 l 257
920.174804688 358 m 257
 754.204101562 -98 l 257
 814.204101562 -98 l 257
 980.174804688 358 l 257
 920.174804688 358 l 257
474.041992188 -38 m 257
 452.204101562 -98 l 257
 812.204101562 -98 l 257
 834.041992188 -38 l 257
 474.041992188 -38 l 257
EndSplineSet
EndChar

StartChar: uni0910
Encoding: 2320 2320 418
GlifName: uni0910
Width: 2048
VWidth: 0
Flags: HW
LayerCount: 2
Fore
SplineSet
660.845703125 1549 m 257
 639.0078125 1489 l 257
 1674.0078125 1489 l 257
 1695.84570312 1549 l 257
 660.845703125 1549 l 257
1530.38867188 1545 m 257
 1251.58789062 779 l 257
 1313.58789062 779 l 257
 1592.38867188 1545 l 257
 1530.38867188 1545 l 257
1041.79101562 840 m 257
 1019.58789062 779 l 257
 1313.58789062 779 l 257
 1335.79101562 840 l 257
 1041.79101562 840 l 257
805.296875 1542 m 257
 367.076171875 338 l 257
 427.076171875 338 l 257
 865.296875 1542 l 257
 805.296875 1542 l 257
374.720703125 359 m 257
 352.154296875 297 l 257
 952.154296875 297 l 257
 974.720703125 359 l 257
 374.720703125 359 l 257
934.357421875 358 m 257
 768.38671875 -98 l 257
 826.38671875 -98 l 257
 992.357421875 358 l 257
 934.357421875 358 l 257
474.587890625 -37 m 257
 452.38671875 -98 l 257
 812.38671875 -98 l 257
 834.587890625 -37 l 257
 474.587890625 -37 l 257
1372.1640625 1962 m 257
 1520.20898438 1550 l 257
 1592.20898438 1550 l 257
 1439.26757812 1998 l 257
 1372.1640625 1962 l 257
EndSplineSet
EndChar

StartChar: uni0911
Encoding: 2321 2321 419
GlifName: uni0911
Width: 2048
VWidth: 0
Flags: HW
LayerCount: 2
Fore
SplineSet
1232.35058594 1548 m 257
 1210.51269531 1488 l 257
 1698.51269531 1488 l 257
 1720.35058594 1548 l 257
 1232.35058594 1548 l 257
1225.06445312 1506 m 257
 676.924804688 0 l 257
 738.924804688 0 l 257
 1287.06445312 1506 l 257
 1225.06445312 1506 l 257
723.079101562 1550 m 257
 700.512695312 1488 l 257
 1060.51269531 1488 l 257
 1083.07910156 1550 l 257
 723.079101562 1550 l 257
1049.07910156 1550 m 257
 495.84375 30 l 257
 555.84375 30 l 257
 1109.07910156 1550 l 257
 1049.07910156 1550 l 257
568.314453125 894 m 257
 546.475585938 834 l 257
 1018.47558594 834 l 257
 1040.31445312 894 l 257
 568.314453125 894 l 257
155.126953125 61 m 257
 132.924804688 0 l 257
 544.924804688 0 l 257
 567.126953125 61 l 257
 155.126953125 61 l 257
1492.3359375 1504 m 257
 944.924804688 0 l 257
 1004.92480469 0 l 257
 1552.3359375 1504 l 257
 1492.3359375 1504 l 257
1417.80273438 2085 m 257
 1255.47167969 1639 l 257
 1317.47167969 1639 l 257
 1479.80273438 2085 l 257
 1417.80273438 2085 l 257
1284.03808594 1701 m 257
 1262.20019531 1641 l 257
 1754.20019531 1641 l 257
 1776.03808594 1701 l 257
 1284.03808594 1701 l 257
1843.07519531 2083 m 257
 1682.20019531 1641 l 257
 1754.20019531 1641 l 257
 1915.07519531 2083 l 257
 1843.07519531 2083 l 257
EndSplineSet
EndChar

StartChar: uni0912
Encoding: 2322 2322 420
GlifName: uni0912
Width: 2048
VWidth: 0
Flags: HW
LayerCount: 2
Fore
SplineSet
1279.16210938 1553 m 257
 1257.6875 1494 l 257
 1758.6875 1494 l 257
 1780.16210938 1553 l 257
 1279.16210938 1553 l 257
1467.421875 1518 m 257
 914.916015625 0 l 257
 975.916015625 0 l 257
 1528.421875 1518 l 257
 1467.421875 1518 l 257
812.0703125 1550 m 257
 789.138671875 1487 l 257
 1112.13867188 1487 l 257
 1135.0703125 1550 l 257
 812.0703125 1550 l 257
1102.0703125 1550 m 257
 550.291015625 34 l 257
 609.291015625 34 l 257
 1161.0703125 1550 l 257
 1102.0703125 1550 l 257
657.3046875 894 m 257
 635.830078125 835 l 257
 1243.83007812 835 l 257
 1265.3046875 894 l 257
 657.3046875 894 l 257
246.57421875 65 m 257
 222.916015625 0 l 257
 596.916015625 0 l 257
 620.57421875 65 l 257
 246.57421875 65 l 257
1650.421875 1518 m 257
 1097.91601562 0 l 257
 1158.91601562 0 l 257
 1711.421875 1518 l 257
 1650.421875 1518 l 257
1214.421875 2062 m 257
 1127.43359375 1823 l 257
 1188.43359375 1823 l 257
 1275.421875 2062 l 257
 1214.421875 2062 l 257
1142.08398438 1866 m 257
 1121.33789062 1809 l 257
 1804.33789062 1809 l 257
 1825.08398438 1866 l 257
 1142.08398438 1866 l 257
1763.9921875 1863 m 257
 1648.25 1545 l 257
 1708.25 1545 l 257
 1823.9921875 1863 l 257
 1763.9921875 1863 l 257
EndSplineSet
EndChar

StartChar: uni0913
Encoding: 2323 2323 421
GlifName: uni0913
Width: 2048
VWidth: 0
Flags: HW
LayerCount: 2
Fore
SplineSet
1308.89453125 1549 m 257
 1287.05664062 1489 l 257
 1788.05664062 1489 l 257
 1809.89453125 1549 l 257
 1308.89453125 1549 l 257
1482.61132812 1518 m 257
 930.10546875 0 l 257
 991.10546875 0 l 257
 1543.61132812 1518 l 257
 1482.61132812 1518 l 257
827.259765625 1550 m 257
 804.328125 1487 l 257
 1127.328125 1487 l 257
 1150.25976562 1550 l 257
 827.259765625 1550 l 257
1117.25976562 1550 m 257
 565.48046875 34 l 257
 624.48046875 34 l 257
 1176.25976562 1550 l 257
 1117.25976562 1550 l 257
672.494140625 894 m 257
 651.01953125 835 l 257
 1259.01953125 835 l 257
 1280.49414062 894 l 257
 672.494140625 894 l 257
261.763671875 65 m 257
 238.10546875 0 l 257
 612.10546875 0 l 257
 635.763671875 65 l 257
 261.763671875 65 l 257
1665.61132812 1518 m 257
 1113.10546875 0 l 257
 1174.10546875 0 l 257
 1726.61132812 1518 l 257
 1665.61132812 1518 l 257
1568.79882812 1807 m 257
 1548.61523438 1529 l 257
 1632.25976562 1550 l 257
 1648.71484375 1826 l 257
 1568.79882812 1807 l 257
EndSplineSet
EndChar

StartChar: uni0914
Encoding: 2324 2324 422
GlifName: uni0914
Width: 2048
VWidth: 0
Flags: HW
LayerCount: 2
Fore
SplineSet
1301.62304688 1553 m 257
 1280.1484375 1494 l 257
 1781.1484375 1494 l 257
 1802.62304688 1553 l 257
 1301.62304688 1553 l 257
1489.88378906 1518 m 257
 937.376953125 0 l 257
 998.376953125 0 l 257
 1550.88378906 1518 l 257
 1489.88378906 1518 l 257
834.53125 1550 m 257
 811.600585938 1487 l 257
 1134.60058594 1487 l 257
 1157.53125 1550 l 257
 834.53125 1550 l 257
1124.53125 1550 m 257
 572.751953125 34 l 257
 631.751953125 34 l 257
 1183.53125 1550 l 257
 1124.53125 1550 l 257
679.766601562 894 m 257
 658.291992188 835 l 257
 1266.29199219 835 l 257
 1287.76660156 894 l 257
 679.766601562 894 l 257
269.03515625 65 m 257
 245.376953125 0 l 257
 619.376953125 0 l 257
 643.03515625 65 l 257
 269.03515625 65 l 257
1672.88378906 1518 m 257
 1120.37695312 0 l 257
 1181.37695312 0 l 257
 1733.88378906 1518 l 257
 1672.88378906 1518 l 257
1198.51269531 1767 m 257
 1488.43164062 1525 l 257
 1557.89160156 1540 l 257
 1257.34667969 1816 l 257
 1198.51269531 1767 l 257
1497.74023438 1905 m 257
 1571.53125 1550 l 257
 1652.53125 1550 l 257
 1562.38769531 1937 l 257
 1497.74023438 1905 l 257
EndSplineSet
EndChar

StartChar: uni0915
Encoding: 2325 2325 423
GlifName: uni0915
Width: 2048
VWidth: 0
Flags: HW
LayerCount: 2
Fore
SplineSet
616.810546875 1553 m 257
 594.608398438 1492 l 257
 1618.60839844 1492 l 257
 1640.81054688 1553 l 257
 616.810546875 1553 l 257
1198.79589844 1509 m 257
 649.564453125 0 l 257
 709.564453125 0 l 257
 1258.79589844 1509 l 257
 1198.79589844 1509 l 257
621.6484375 1069 m 257
 599.446289062 1008 l 257
 958.446289062 1008 l 257
 980.6484375 1069 l 257
 621.6484375 1069 l 257
610.284179688 1068 m 257
 407.189453125 510 l 257
 467.189453125 510 l 257
 670.284179688 1068 l 257
 610.284179688 1068 l 257
444.755859375 572 m 257
 422.553710938 511 l 257
 882.553710938 511 l 257
 904.755859375 572 l 257
 444.755859375 572 l 257
1038.17089844 999 m 257
 1015.96875 938 l 257
 1280.96875 938 l 257
 1303.17089844 999 l 257
 1038.17089844 999 l 257
1253.53515625 1000 m 257
 1173.09765625 779 l 257
 1235.09765625 779 l 257
 1315.53515625 1000 l 257
 1253.53515625 1000 l 257
EndSplineSet
EndChar

StartChar: uni0915_uni0930_uni094D.vatu
Encoding: 65537 -1 424
GlifName: uni0915_uni0930_uni094D_.vatu
Width: 2048
VWidth: 0
Flags: HW
LayerCount: 2
Fore
SplineSet
766.123046875 1553 m 257
 743.920898438 1492 l 257
 1767.92089844 1492 l 257
 1790.12304688 1553 l 257
 766.123046875 1553 l 257
1348.10839844 1509 m 257
 798.876953125 0 l 257
 858.876953125 0 l 257
 1408.10839844 1509 l 257
 1348.10839844 1509 l 257
770.9609375 1069 m 257
 748.758789062 1008 l 257
 1092.75878906 1008 l 257
 1114.9609375 1069 l 257
 770.9609375 1069 l 257
759.596679688 1068 m 257
 556.501953125 510 l 257
 616.501953125 510 l 257
 819.596679688 1068 l 257
 759.596679688 1068 l 257
594.068359375 572 m 257
 571.866210938 511 l 257
 1031.86621094 511 l 257
 1054.06835938 572 l 257
 594.068359375 572 l 257
1187.48339844 999 m 257
 1165.28125 938 l 257
 1430.28125 938 l 257
 1452.48339844 999 l 257
 1187.48339844 999 l 257
1402.84765625 1000 m 257
 1322.41015625 779 l 257
 1384.41015625 779 l 257
 1464.84765625 1000 l 257
 1402.84765625 1000 l 257
257.876953125 0 m 257
 377.876953125 0 l 257
 933.130859375 215 l 257
 958.608398438 285 l 257
 257.876953125 0 l 257
EndSplineSet
EndChar

StartChar: uni0915_uni094D.half
Encoding: 65538 -1 425
GlifName: uni0915_uni094D_.half
Width: 2048
VWidth: 0
Flags: HW
LayerCount: 2
Fore
SplineSet
616.810546875 1553 m 257
 594.608398438 1492 l 257
 1618.60839844 1492 l 257
 1640.81054688 1553 l 257
 616.810546875 1553 l 257
1198.79589844 1509 m 257
 649.564453125 0 l 257
 709.564453125 0 l 257
 1258.79589844 1509 l 257
 1198.79589844 1509 l 257
621.6484375 1069 m 257
 599.446289062 1008 l 257
 953.446289062 1008 l 257
 975.6484375 1069 l 257
 621.6484375 1069 l 257
610.284179688 1068 m 257
 407.189453125 510 l 257
 467.189453125 510 l 257
 670.284179688 1068 l 257
 610.284179688 1068 l 257
444.755859375 572 m 257
 422.553710938 511 l 257
 882.553710938 511 l 257
 904.755859375 572 l 257
 444.755859375 572 l 257
1038.17089844 999 m 257
 1015.96875 938 l 257
 1423.96875 938 l 257
 1446.17089844 999 l 257
 1038.17089844 999 l 257
EndSplineSet
EndChar

StartChar: uni0915_uni094D_uni0937.akhn
Encoding: 65540 -1 427
GlifName: uni0915_uni094D__uni0937.akhn
Width: 2048
VWidth: 0
Flags: HW
LayerCount: 2
Fore
SplineSet
1349.8671875 1550 m 257
 1328.39257812 1491 l 257
 1687.39257812 1491 l 257
 1708.8671875 1550 l 257
 1349.8671875 1550 l 257
1532.671875 1511 m 257
 982.712890625 0 l 257
 1041.71289062 0 l 257
 1591.671875 1511 l 257
 1532.671875 1511 l 257
639.07421875 1078 m 257
 617.234375 1018 l 257
 1412.234375 1018 l 257
 1434.07421875 1078 l 257
 639.07421875 1078 l 257
619.0546875 1023 m 257
 679.0546875 1023 l 257
 824.279296875 1422 l 257
 764.279296875 1422 l 257
 619.0546875 1023 l 257
770.009765625 1435 m 257
 747.80859375 1374 l 257
 1187.80859375 1374 l 257
 1210.00976562 1435 l 257
 770.009765625 1435 l 257
1144.27929688 1422 m 257
 1001.60351562 1030 l 257
 1061.60351562 1030 l 257
 1204.27929688 1422 l 257
 1144.27929688 1422 l 257
514.201171875 647 m 257
 574.201171875 647 l 257
 1059.875 1028 l 257
 1001.875 1028 l 257
 514.201171875 647 l 257
514.201171875 647 m 257
 351.5078125 200 l 257
 411.5078125 200 l 257
 574.201171875 647 l 257
 514.201171875 647 l 257
360.970703125 226 m 257
 339.1328125 166 l 257
 1063.1328125 166 l 257
 1084.97070312 226 l 257
 360.970703125 226 l 257
EndSplineSet
EndChar

StartChar: uni0915_uni094D_uni0937.half
Encoding: 65541 -1 428
GlifName: uni0915_uni094D__uni0937.half
Width: 2048
VWidth: 0
Flags: HW
LayerCount: 2
Fore
SplineSet
1349.8671875 1550 m 257
 1328.39257812 1491 l 257
 1687.39257812 1491 l 257
 1708.8671875 1550 l 257
 1349.8671875 1550 l 257
639.07421875 1078 m 257
 617.234375 1018 l 257
 1512.234375 1018 l 257
 1534.07421875 1078 l 257
 639.07421875 1078 l 257
619.0546875 1023 m 257
 679.0546875 1023 l 257
 824.279296875 1422 l 257
 764.279296875 1422 l 257
 619.0546875 1023 l 257
770.009765625 1435 m 257
 747.80859375 1374 l 257
 1187.80859375 1374 l 257
 1210.00976562 1435 l 257
 770.009765625 1435 l 257
1144.27929688 1422 m 257
 1001.60351562 1030 l 257
 1061.60351562 1030 l 257
 1204.27929688 1422 l 257
 1144.27929688 1422 l 257
514.201171875 647 m 257
 574.201171875 647 l 257
 1059.875 1028 l 257
 1001.875 1028 l 257
 514.201171875 647 l 257
514.201171875 647 m 257
 351.5078125 200 l 257
 411.5078125 200 l 257
 574.201171875 647 l 257
 514.201171875 647 l 257
360.970703125 226 m 257
 339.1328125 166 l 257
 1163.1328125 166 l 257
 1184.97070312 226 l 257
 360.970703125 226 l 257
EndSplineSet
EndChar

StartChar: uni0916
Encoding: 2326 2326 430
GlifName: uni0916
Width: 2048
VWidth: 0
Flags: HW
LayerCount: 2
Fore
SplineSet
687.884765625 1553 m 257
 667.13671875 1496 l 257
 1693.13671875 1496 l 257
 1713.88476562 1553 l 257
 687.884765625 1553 l 257
1505.68945312 1514 m 257
 954.638671875 0 l 257
 1016.63867188 0 l 257
 1567.68945312 1514 l 257
 1505.68945312 1514 l 257
892.96484375 979 m 257
 871.126953125 919 l 257
 1133.12695312 919 l 257
 1154.96484375 979 l 257
 892.96484375 979 l 257
862.96484375 979 m 257
 657.322265625 414 l 257
 717.322265625 414 l 257
 922.96484375 979 l 257
 862.96484375 979 l 257
662.78125 429 m 257
 640.580078125 368 l 257
 1104.58007812 368 l 257
 1126.78125 429 l 257
 662.78125 429 l 257
858.232421875 1510 m 257
 352.314453125 120 l 257
 414.314453125 120 l 257
 920.232421875 1510 l 257
 858.232421875 1510 l 257
398.513671875 714 m 257
 376.673828125 654 l 257
 606.673828125 654 l 257
 628.513671875 714 l 257
 398.513671875 714 l 257
355.955078125 130 m 257
 334.115234375 70 l 257
 978.115234375 70 l 257
 999.955078125 130 l 257
 355.955078125 130 l 257
EndSplineSet
EndChar

StartChar: uni0916_uni0930_uni094D.vatu
Encoding: 65543 -1 431
GlifName: uni0916_uni0930_uni094D_.vatu
Width: 2048
VWidth: 0
Flags: HW
LayerCount: 2
Fore
SplineSet
347.876953125 0 m 257
 467.876953125 0 l 257
 1023.13085938 215 l 257
 1048.60839844 285 l 257
 347.876953125 0 l 257
674.123046875 1553 m 257
 653.375976562 1496 l 257
 1679.37597656 1496 l 257
 1700.12304688 1553 l 257
 674.123046875 1553 l 257
1491.92773438 1514 m 257
 940.876953125 0 l 257
 1002.87695312 0 l 257
 1553.92773438 1514 l 257
 1491.92773438 1514 l 257
988.39453125 1279 m 257
 966.556640625 1219 l 257
 1228.55664062 1219 l 257
 1250.39453125 1279 l 257
 988.39453125 1279 l 257
958.39453125 1279 m 257
 752.751953125 714 l 257
 812.751953125 714 l 257
 1018.39453125 1279 l 257
 958.39453125 1279 l 257
758.2109375 729 m 257
 736.008789062 668 l 257
 1200.00878906 668 l 257
 1222.2109375 729 l 257
 758.2109375 729 l 257
844.471679688 1510 m 257
 447.744140625 420 l 257
 509.744140625 420 l 257
 906.471679688 1510 l 257
 844.471679688 1510 l 257
493.942382812 1014 m 257
 472.104492188 954 l 257
 702.104492188 954 l 257
 723.942382812 1014 l 257
 493.942382812 1014 l 257
451.383789062 430 m 257
 429.545898438 370 l 257
 1073.54589844 370 l 257
 1095.38378906 430 l 257
 451.383789062 430 l 257
EndSplineSet
EndChar

StartChar: uni0916_uni094D.half
Encoding: 65544 -1 432
GlifName: uni0916_uni094D_.half
Width: 2048
VWidth: 0
Flags: HW
LayerCount: 2
Fore
SplineSet
687.884765625 1553 m 257
 667.13671875 1496 l 257
 1693.13671875 1496 l 257
 1713.88476562 1553 l 257
 687.884765625 1553 l 257
892.96484375 979 m 257
 871.126953125 919 l 257
 1308.12695312 919 l 257
 1329.96484375 979 l 257
 892.96484375 979 l 257
862.96484375 979 m 257
 657.322265625 414 l 257
 717.322265625 414 l 257
 922.96484375 979 l 257
 862.96484375 979 l 257
662.78125 429 m 257
 640.580078125 368 l 257
 1280.58007812 368 l 257
 1302.78125 429 l 257
 662.78125 429 l 257
858.232421875 1510 m 257
 352.314453125 120 l 257
 414.314453125 120 l 257
 920.232421875 1510 l 257
 858.232421875 1510 l 257
398.513671875 714 m 257
 376.673828125 654 l 257
 606.673828125 654 l 257
 628.513671875 714 l 257
 398.513671875 714 l 257
355.955078125 130 m 257
 334.115234375 70 l 257
 1154.11523438 70 l 257
 1175.95507812 130 l 257
 355.955078125 130 l 257
EndSplineSet
EndChar

StartChar: uni0917
Encoding: 2327 2327 434
GlifName: uni0917
Width: 2048
VWidth: 0
Flags: HW
LayerCount: 2
Fore
SplineSet
449.072265625 853 m 257
 519.072265625 853 l 257
 588.58984375 1044 l 257
 518.58984375 1044 l 257
 449.072265625 853 l 257
459.626953125 882 m 257
 434.1484375 812 l 257
 781.1484375 812 l 257
 806.626953125 882 l 257
 459.626953125 882 l 257
980.8515625 1553 m 257
 711.1484375 812 l 257
 781.1484375 812 l 257
 1050.8515625 1553 l 257
 980.8515625 1553 l 257
1613.8515625 1553 m 257
 862.8515625 1553 l 257
 842.103515625 1496 l 257
 1593.10351562 1496 l 257
 1613.8515625 1553 l 257
1451.93164062 1523 m 257
 897.60546875 0 l 257
 967.60546875 0 l 257
 1521.93164062 1523 l 257
 1451.93164062 1523 l 257
EndSplineSet
EndChar

StartChar: uni0917_uni0930_uni094D.vatu
Encoding: 65546 -1 435
GlifName: uni0917_uni0930_uni094D_.vatu
Width: 2048
VWidth: 0
Flags: HW
LayerCount: 2
Fore
SplineSet
376.876953125 0 m 257
 496.876953125 0 l 257
 1052.13085938 215 l 257
 1077.60839844 285 l 257
 376.876953125 0 l 257
506.34375 853 m 257
 576.34375 853 l 257
 645.862304688 1044 l 257
 575.862304688 1044 l 257
 506.34375 853 l 257
516.8984375 882 m 257
 491.420898438 812 l 257
 838.420898438 812 l 257
 863.8984375 882 l 257
 516.8984375 882 l 257
1038.12304688 1553 m 257
 768.420898438 812 l 257
 838.420898438 812 l 257
 1108.12304688 1553 l 257
 1038.12304688 1553 l 257
1671.12304688 1553 m 257
 920.123046875 1553 l 257
 899.375976562 1496 l 257
 1650.37597656 1496 l 257
 1671.12304688 1553 l 257
1509.20410156 1523 m 257
 954.876953125 0 l 257
 1024.87695312 0 l 257
 1579.20410156 1523 l 257
 1509.20410156 1523 l 257
EndSplineSet
EndChar

StartChar: uni0917_uni094D.half
Encoding: 65547 -1 436
GlifName: uni0917_uni094D_.half
Width: 2048
VWidth: 0
Flags: HW
LayerCount: 2
Fore
SplineSet
449.072265625 853 m 257
 519.072265625 853 l 257
 588.58984375 1044 l 257
 518.58984375 1044 l 257
 449.072265625 853 l 257
459.626953125 882 m 257
 434.1484375 812 l 257
 781.1484375 812 l 257
 806.626953125 882 l 257
 459.626953125 882 l 257
980.8515625 1553 m 257
 711.1484375 812 l 257
 781.1484375 812 l 257
 1050.8515625 1553 l 257
 980.8515625 1553 l 257
1613.8515625 1553 m 257
 862.8515625 1553 l 257
 842.103515625 1496 l 257
 1593.10351562 1496 l 257
 1613.8515625 1553 l 257
EndSplineSet
EndChar

StartChar: uni0918
Encoding: 2328 2328 438
GlifName: uni0918
Width: 2048
VWidth: 0
Flags: HW
LayerCount: 2
Fore
SplineSet
659.668945312 1553 m 257
 638.55859375 1495 l 257
 1660.55859375 1495 l 257
 1681.66894531 1553 l 257
 659.668945312 1553 l 257
1490.38574219 1522 m 257
 941.154296875 13 l 257
 1001.15429688 13 l 257
 1550.38574219 1522 l 257
 1490.38574219 1522 l 257
819.837890625 1515 m 257
 581.073242188 859 l 257
 639.073242188 859 l 257
 877.837890625 1515 l 257
 819.837890625 1515 l 257
627.985351562 867 m 257
 606.146484375 807 l 257
 850.146484375 807 l 257
 871.985351562 867 l 257
 627.985351562 867 l 257
393.8046875 328 m 257
 372.331054688 269 l 257
 1070.33105469 269 l 257
 1091.8046875 328 l 257
 393.8046875 328 l 257
366.331054688 269 m 257
 426.331054688 269 l 257
 624.694335938 814 l 257
 564.694335938 814 l 257
 366.331054688 269 l 257
EndSplineSet
EndChar

StartChar: uni0918_uni0930_uni094D.vatu
Encoding: 65549 -1 439
GlifName: uni0918_uni0930_uni094D_.vatu
Width: 2048
VWidth: 0
Flags: HW
LayerCount: 2
Fore
SplineSet
360.876953125 0 m 257
 480.876953125 0 l 257
 1036.13085938 215 l 257
 1061.60839844 285 l 257
 360.876953125 0 l 257
665.123046875 1553 m 257
 644.012695312 1495 l 257
 1666.01269531 1495 l 257
 1687.12304688 1553 l 257
 665.123046875 1553 l 257
1495.83984375 1522 m 257
 946.608398438 13 l 257
 1006.60839844 13 l 257
 1555.83984375 1522 l 257
 1495.83984375 1522 l 257
825.291992188 1515 m 257
 586.52734375 859 l 257
 644.52734375 859 l 257
 883.291992188 1515 l 257
 825.291992188 1515 l 257
633.439453125 867 m 257
 611.600585938 807 l 257
 855.600585938 807 l 257
 877.439453125 867 l 257
 633.439453125 867 l 257
399.258789062 328 m 257
 377.78515625 269 l 257
 1075.78515625 269 l 257
 1097.25878906 328 l 257
 399.258789062 328 l 257
371.78515625 269 m 257
 431.78515625 269 l 257
 630.1484375 814 l 257
 570.1484375 814 l 257
 371.78515625 269 l 257
EndSplineSet
EndChar

StartChar: uni0918_uni094D.half
Encoding: 65550 -1 440
GlifName: uni0918_uni094D_.half
Width: 2048
VWidth: 0
Flags: HW
LayerCount: 2
Fore
SplineSet
659.668945312 1553 m 257
 638.55859375 1495 l 257
 1660.55859375 1495 l 257
 1681.66894531 1553 l 257
 659.668945312 1553 l 257
819.837890625 1515 m 257
 581.073242188 859 l 257
 639.073242188 859 l 257
 877.837890625 1515 l 257
 819.837890625 1515 l 257
627.985351562 867 m 257
 606.146484375 807 l 257
 850.146484375 807 l 257
 871.985351562 867 l 257
 627.985351562 867 l 257
393.8046875 328 m 257
 372.331054688 269 l 257
 1270.33105469 269 l 257
 1291.8046875 328 l 257
 393.8046875 328 l 257
366.331054688 269 m 257
 426.331054688 269 l 257
 624.694335938 814 l 257
 564.694335938 814 l 257
 366.331054688 269 l 257
EndSplineSet
EndChar

StartChar: uni0919
Encoding: 2329 2329 442
GlifName: uni0919
Width: 2048
VWidth: 0
Flags: HW
LayerCount: 2
Fore
SplineSet
736.623046875 1553 m 257
 715.1484375 1494 l 257
 1740.1484375 1494 l 257
 1761.62304688 1553 l 257
 736.623046875 1553 l 257
1384.98339844 1543 m 257
 1195.71875 1023 l 257
 1255.71875 1023 l 257
 1444.98339844 1543 l 257
 1384.98339844 1543 l 257
1269.6484375 1086 m 257
 806.6484375 1086 l 257
 783.71875 1023 l 257
 1246.71875 1023 l 257
 1269.6484375 1086 l 257
793.556640625 1083 m 257
 628.314453125 629 l 257
 700.314453125 629 l 257
 865.556640625 1083 l 257
 793.556640625 1083 l 257
652.876953125 680 m 257
 631.038085938 620 l 257
 1186.03808594 620 l 257
 1207.87695312 680 l 257
 652.876953125 680 l 257
1144.87695312 680 m 257
 907.931640625 29 l 257
 970.931640625 29 l 257
 1207.87695312 680 l 257
 1144.87695312 680 l 257
308.579101562 61 m 257
 286.376953125 0 l 257
 961.376953125 0 l 257
 983.579101562 61 l 257
 308.579101562 61 l 257
359.899414062 202 m 257
 289.2890625 8 l 257
 349.2890625 8 l 257
 419.899414062 202 l 257
 359.899414062 202 l 257
1284.23339844 931 m 257
 1249.29199219 835 l 257
 1345.29199219 835 l 257
 1380.23339844 931 l 257
 1284.23339844 931 l 257
EndSplineSet
EndChar

StartChar: uni0919_uni0930_uni094D.vatu
Encoding: 65552 -1 443
GlifName: uni0919_uni0930_uni094D_.vatu
Width: 2048
VWidth: 0
Flags: HW
LayerCount: 2
Fore
SplineSet
633.240234375 220 m 257
 692.85546875 -119 l 257
 760.85546875 -119 l 257
 701.626953125 287 l 257
 633.240234375 220 l 257
701.626953125 287 m 257
 298.5859375 -106 l 257
 366.5859375 -106 l 257
 710.15234375 228 l 257
 701.626953125 287 l 257
724.4140625 1553 m 257
 702.939453125 1494 l 257
 1727.93945312 1494 l 257
 1749.4140625 1553 l 257
 724.4140625 1553 l 257
1372.7734375 1543 m 257
 1293.79296875 1326 l 257
 1353.79296875 1326 l 257
 1432.7734375 1543 l 257
 1372.7734375 1543 l 257
1366.63085938 1386 m 257
 903.630859375 1386 l 257
 881.79296875 1326 l 257
 1344.79296875 1326 l 257
 1366.63085938 1386 l 257
890.5390625 1383 m 257
 725.294921875 929 l 257
 797.294921875 929 l 257
 962.5390625 1383 l 257
 890.5390625 1383 l 257
749.857421875 980 m 257
 728.01953125 920 l 257
 1283.01953125 920 l 257
 1304.85742188 980 l 257
 749.857421875 980 l 257
1241.85742188 980 m 257
 1004.9140625 329 l 257
 1067.9140625 329 l 257
 1304.85742188 980 l 257
 1241.85742188 980 l 257
405.560546875 361 m 257
 383.359375 300 l 257
 1058.359375 300 l 257
 1080.56054688 361 l 257
 405.560546875 361 l 257
456.880859375 502 m 257
 386.26953125 308 l 257
 446.26953125 308 l 257
 516.880859375 502 l 257
 456.880859375 502 l 257
1381.21484375 1231 m 257
 1346.2734375 1135 l 257
 1442.2734375 1135 l 257
 1477.21484375 1231 l 257
 1381.21484375 1231 l 257
EndSplineSet
EndChar

StartChar: uni0919_uni094D.half
Encoding: 65553 -1 444
GlifName: uni0919_uni094D_.half
Width: 2048
VWidth: 0
Flags: HW
LayerCount: 2
Fore
SplineSet
698.3125 1550 m 257
 676.837890625 1491 l 257
 1698.83789062 1491 l 257
 1720.3125 1550 l 257
 698.3125 1550 l 257
1344.76464844 1543 m 257
 1155.5 1023 l 257
 1215.5 1023 l 257
 1404.76464844 1543 l 257
 1344.76464844 1543 l 257
1228.33789062 1083 m 257
 754.337890625 1083 l 257
 732.5 1023 l 257
 1206.5 1023 l 257
 1228.33789062 1083 l 257
753.337890625 1083 m 257
 588.095703125 629 l 257
 655.095703125 629 l 257
 820.337890625 1083 l 257
 753.337890625 1083 l 257
610.297851562 690 m 257
 584.819335938 620 l 257
 1145.81933594 620 l 257
 1171.29785156 690 l 257
 610.297851562 690 l 257
1105.65820312 680 m 257
 950.606445312 254 l 257
 1012.60644531 254 l 257
 1167.65820312 680 l 257
 1105.65820312 680 l 257
349.525390625 284 m 257
 327.6875 224 l 257
 1002.6875 224 l 257
 1024.52539062 284 l 257
 349.525390625 284 l 257
449.6171875 559 m 257
 330.962890625 233 l 257
 391.962890625 233 l 257
 510.6171875 559 l 257
 449.6171875 559 l 257
1299.48144531 968 m 257
 1271.09179688 890 l 257
 1346.09179688 890 l 257
 1374.48144531 968 l 257
 1299.48144531 968 l 257
525.5703125 144 m 257
 379.368164062 83 l 257
 736.368164062 83 l 257
 882.5703125 144 l 257
 525.5703125 144 l 257
736.368164062 83 m 257
 999.393554688 -112 l 257
 1044.03710938 -91 l 257
 882.5703125 144 l 257
 736.368164062 83 l 257
EndSplineSet
EndChar

StartChar: uni091A
Encoding: 2330 2330 446
GlifName: uni091A_
Width: 2048
VWidth: 0
Flags: HW
LayerCount: 2
Fore
SplineSet
614.672851562 1553 m 257
 594.290039062 1497 l 257
 1617.29003906 1497 l 257
 1637.67285156 1553 l 257
 614.672851562 1553 l 257
1392.67285156 1553 m 257
 827.426757812 0 l 257
 886.426757812 0 l 257
 1451.67285156 1553 l 257
 1392.67285156 1553 l 257
1006.65820312 421 m 257
 1028.1328125 480 l 257
 521.1328125 480 l 257
 499.658203125 421 l 257
 1006.65820312 421 l 257
651.0703125 837 m 257
 499.658203125 421 l 257
 558.658203125 421 l 257
 710.0703125 837 l 257
 651.0703125 837 l 257
432.529296875 852 m 257
 410.327148438 791 l 257
 835.327148438 791 l 257
 857.529296875 852 l 257
 432.529296875 852 l 257
EndSplineSet
EndChar

StartChar: uni091A_uni0930_uni094D.vatu
Encoding: 65555 -1 447
GlifName: uni091A__uni0930_uni094D_.vatu
Width: 2048
VWidth: 0
Flags: HW
LayerCount: 2
Fore
SplineSet
333.876953125 0 m 257
 453.876953125 0 l 257
 1009.13085938 215 l 257
 1034.60839844 285 l 257
 333.876953125 0 l 257
691.123046875 1553 m 257
 670.740234375 1497 l 257
 1693.74023438 1497 l 257
 1714.12304688 1553 l 257
 691.123046875 1553 l 257
1469.12304688 1553 m 257
 903.876953125 0 l 257
 962.876953125 0 l 257
 1528.12304688 1553 l 257
 1469.12304688 1553 l 257
1083.10839844 421 m 257
 1104.58300781 480 l 257
 597.583007812 480 l 257
 576.108398438 421 l 257
 1083.10839844 421 l 257
727.520507812 837 m 257
 576.108398438 421 l 257
 635.108398438 421 l 257
 786.520507812 837 l 257
 727.520507812 837 l 257
508.979492188 852 m 257
 486.77734375 791 l 257
 911.77734375 791 l 257
 933.979492188 852 l 257
 508.979492188 852 l 257
EndSplineSet
EndChar

StartChar: uni091A_uni094D.half
Encoding: 65556 -1 448
GlifName: uni091A__uni094D_.half
Width: 2048
VWidth: 0
Flags: HW
LayerCount: 2
Fore
SplineSet
614.672851562 1553 m 257
 594.290039062 1497 l 257
 1617.29003906 1497 l 257
 1637.67285156 1553 l 257
 614.672851562 1553 l 257
1306.65820312 421 m 257
 1328.1328125 480 l 257
 521.1328125 480 l 257
 499.658203125 421 l 257
 1306.65820312 421 l 257
651.0703125 837 m 257
 499.658203125 421 l 257
 558.658203125 421 l 257
 710.0703125 837 l 257
 651.0703125 837 l 257
432.529296875 852 m 257
 410.327148438 791 l 257
 835.327148438 791 l 257
 857.529296875 852 l 257
 432.529296875 852 l 257
EndSplineSet
EndChar

StartChar: uni091B
Encoding: 2331 2331 450
GlifName: uni091B_
Width: 2048
VWidth: 0
Flags: HW
LayerCount: 2
Fore
SplineSet
724.123046875 1553 m 257
 703.012695312 1495 l 257
 1726.01269531 1495 l 257
 1747.12304688 1553 l 257
 724.123046875 1553 l 257
1106.43554688 1128 m 257
 721.435546875 1128 l 257
 699.9609375 1069 l 257
 1084.9609375 1069 l 257
 1106.43554688 1128 l 257
712.435546875 1128 m 257
 497.693359375 538 l 257
 557.693359375 538 l 257
 772.435546875 1128 l 257
 712.435546875 1128 l 257
531.96875 547 m 257
 510.130859375 487 l 257
 873.130859375 487 l 257
 894.96875 547 l 257
 531.96875 547 l 257
483.225585938 501 m 257
 300.876953125 0 l 257
 360.876953125 0 l 257
 543.225585938 501 l 257
 483.225585938 501 l 257
378.3515625 59 m 257
 356.876953125 0 l 257
 991.876953125 0 l 257
 1013.3515625 59 l 257
 378.3515625 59 l 257
935.060546875 6 m 257
 994.060546875 6 l 257
 1543.29199219 1515 l 257
 1484.29199219 1515 l 257
 935.060546875 6 l 257
1141.16699219 869 m 257
 1118.96484375 808 l 257
 1456.96484375 808 l 257
 1479.16699219 869 l 257
 1141.16699219 869 l 257
1419.80273438 868 m 257
 1275.30664062 471 l 257
 1334.30664062 471 l 257
 1478.80273438 868 l 257
 1419.80273438 868 l 257
EndSplineSet
EndChar

StartChar: uni091B_uni0930_uni094D.vatu
Encoding: 65558 -1 451
GlifName: uni091B__uni0930_uni094D_.vatu
Width: 2048
VWidth: 0
Flags: HW
LayerCount: 2
Fore
SplineSet
333.876953125 0 m 257
 453.876953125 0 l 257
 1009.13085938 215 l 257
 1034.60839844 285 l 257
 333.876953125 0 l 257
691.123046875 1553 m 257
 670.012695312 1495 l 257
 1693.01269531 1495 l 257
 1714.12304688 1553 l 257
 691.123046875 1553 l 257
1182.62597656 1428 m 257
 797.625976562 1428 l 257
 776.15234375 1369 l 257
 1161.15234375 1369 l 257
 1182.62597656 1428 l 257
788.625976562 1428 m 257
 573.883789062 838 l 257
 633.883789062 838 l 257
 848.625976562 1428 l 257
 788.625976562 1428 l 257
608.16015625 847 m 257
 586.321289062 787 l 257
 949.321289062 787 l 257
 971.16015625 847 l 257
 608.16015625 847 l 257
559.416992188 801 m 257
 377.068359375 300 l 257
 437.068359375 300 l 257
 619.416992188 801 l 257
 559.416992188 801 l 257
454.541992188 359 m 257
 433.068359375 300 l 257
 1068.06835938 300 l 257
 1089.54199219 359 l 257
 454.541992188 359 l 257
899.876953125 0 m 257
 958.876953125 0 l 257
 1504.10449219 1498 l 257
 1445.10449219 1498 l 257
 899.876953125 0 l 257
1217.35839844 1169 m 257
 1195.15625 1108 l 257
 1533.15625 1108 l 257
 1555.35839844 1169 l 257
 1217.35839844 1169 l 257
1495.99414062 1168 m 257
 1351.49804688 771 l 257
 1410.49804688 771 l 257
 1554.99414062 1168 l 257
 1495.99414062 1168 l 257
EndSplineSet
EndChar

StartChar: uni091B_uni094D.half
Encoding: 65559 -1 452
GlifName: uni091B__uni094D_.half
Width: 2048
VWidth: 0
Flags: HW
LayerCount: 2
Fore
SplineSet
724.123046875 1553 m 257
 703.012695312 1495 l 257
 1726.01269531 1495 l 257
 1747.12304688 1553 l 257
 724.123046875 1553 l 257
1106.43554688 1128 m 257
 721.435546875 1128 l 257
 699.9609375 1069 l 257
 1084.9609375 1069 l 257
 1106.43554688 1128 l 257
712.435546875 1128 m 257
 497.693359375 538 l 257
 557.693359375 538 l 257
 772.435546875 1128 l 257
 712.435546875 1128 l 257
531.96875 547 m 257
 510.130859375 487 l 257
 873.130859375 487 l 257
 894.96875 547 l 257
 531.96875 547 l 257
483.225585938 501 m 257
 300.876953125 0 l 257
 360.876953125 0 l 257
 543.225585938 501 l 257
 483.225585938 501 l 257
378.3515625 59 m 257
 356.876953125 0 l 257
 1291.87695312 0 l 257
 1313.3515625 59 l 257
 378.3515625 59 l 257
EndSplineSet
EndChar

StartChar: uni091C
Encoding: 2332 2332 454
GlifName: uni091C_
Width: 2048
VWidth: 0
Flags: HW
LayerCount: 2
Fore
SplineSet
647.12890625 1550 m 257
 626.018554688 1492 l 257
 1684.01855469 1492 l 257
 1705.12890625 1550 l 257
 647.12890625 1550 l 257
1497.12890625 1550 m 257
 928.607421875 -12 l 257
 989.607421875 -12 l 257
 1558.12890625 1550 l 257
 1497.12890625 1550 l 257
930.989257812 860 m 257
 909.514648438 801 l 257
 1245.51464844 801 l 257
 1266.98925781 860 l 257
 930.989257812 860 l 257
920.989257812 860 m 257
 794.327148438 512 l 257
 854.327148438 512 l 257
 980.989257812 860 l 257
 920.989257812 860 l 257
364.345703125 567 m 257
 342.87109375 508 l 257
 852.87109375 508 l 257
 874.345703125 567 l 257
 364.345703125 567 l 257
422.581054688 727 m 257
 343.235351562 509 l 257
 403.235351562 509 l 257
 482.581054688 727 l 257
 422.581054688 727 l 257
EndSplineSet
EndChar

StartChar: uni091C_uni0930_uni094D.vatu
Encoding: 65561 -1 455
GlifName: uni091C__uni0930_uni094D_.vatu
Width: 2048
VWidth: 0
Flags: HW
LayerCount: 2
Fore
SplineSet
325.422851562 0 m 257
 445.422851562 0 l 257
 1047.67675781 215 l 257
 1073.15429688 285 l 257
 325.422851562 0 l 257
664.577148438 1550 m 257
 643.466796875 1492 l 257
 1701.46679688 1492 l 257
 1722.57714844 1550 l 257
 664.577148438 1550 l 257
1514.57714844 1550 m 257
 946.055664062 -12 l 257
 1007.05566406 -12 l 257
 1575.57714844 1550 l 257
 1514.57714844 1550 l 257
948.4375 860 m 257
 926.962890625 801 l 257
 1262.96289062 801 l 257
 1284.4375 860 l 257
 948.4375 860 l 257
938.4375 860 m 257
 811.775390625 512 l 257
 871.775390625 512 l 257
 998.4375 860 l 257
 938.4375 860 l 257
381.793945312 567 m 257
 360.319335938 508 l 257
 870.319335938 508 l 257
 891.793945312 567 l 257
 381.793945312 567 l 257
440.029296875 727 m 257
 360.68359375 509 l 257
 420.68359375 509 l 257
 500.029296875 727 l 257
 440.029296875 727 l 257
EndSplineSet
EndChar

StartChar: uni091C_uni094D.half
Encoding: 65562 -1 456
GlifName: uni091C__uni094D_.half
Width: 2048
VWidth: 0
Flags: HW
LayerCount: 2
Fore
SplineSet
647.12890625 1550 m 257
 626.018554688 1492 l 257
 1684.01855469 1492 l 257
 1705.12890625 1550 l 257
 647.12890625 1550 l 257
930.989257812 860 m 257
 909.514648438 801 l 257
 1545.51464844 801 l 257
 1566.98925781 860 l 257
 930.989257812 860 l 257
920.989257812 860 m 257
 794.327148438 512 l 257
 854.327148438 512 l 257
 980.989257812 860 l 257
 920.989257812 860 l 257
364.345703125 567 m 257
 342.87109375 508 l 257
 852.87109375 508 l 257
 874.345703125 567 l 257
 364.345703125 567 l 257
422.581054688 727 m 257
 343.235351562 509 l 257
 403.235351562 509 l 257
 482.581054688 727 l 257
 422.581054688 727 l 257
EndSplineSet
EndChar

StartChar: uni091C_uni094D_uni091E.akhn
Encoding: 65564 -1 458
GlifName: uni091C__uni094D__uni091E_.akhn
Width: 2048
VWidth: 0
Flags: HW
LayerCount: 2
Fore
SplineSet
693.7890625 1550 m 257
 671.22265625 1488 l 257
 1708.22265625 1488 l 257
 1730.7890625 1550 l 257
 693.7890625 1550 l 257
1523.7890625 1550 m 257
 955.267578125 -12 l 257
 1015.26757812 -12 l 257
 1583.7890625 1550 l 257
 1523.7890625 1550 l 257
852.6484375 860 m 257
 830.810546875 800 l 257
 1270.81054688 800 l 257
 1292.6484375 860 l 257
 852.6484375 860 l 257
806.6484375 860 m 257
 643.953125 413 l 257
 702.953125 413 l 257
 865.6484375 860 l 257
 806.6484375 860 l 257
339.4140625 428 m 257
 317.2109375 367 l 257
 686.2109375 367 l 257
 708.4140625 428 l 257
 339.4140625 428 l 257
317.576171875 368 m 257
 358.931640625 75 l 257
 447.931640625 75 l 257
 391.576171875 368 l 257
 317.576171875 368 l 257
EndSplineSet
EndChar

StartChar: uni091C_uni094D_uni091E.half
Encoding: 65565 -1 459
GlifName: uni091C__uni094D__uni091E_.half
Width: 2048
VWidth: 0
Flags: HW
LayerCount: 2
Fore
SplineSet
593.7890625 1550 m 257
 571.22265625 1488 l 257
 1608.22265625 1488 l 257
 1630.7890625 1550 l 257
 593.7890625 1550 l 257
952.6484375 860 m 257
 930.810546875 800 l 257
 1370.81054688 800 l 257
 1392.6484375 860 l 257
 952.6484375 860 l 257
906.6484375 860 m 257
 743.953125 413 l 257
 802.953125 413 l 257
 965.6484375 860 l 257
 906.6484375 860 l 257
439.4140625 428 m 257
 417.2109375 367 l 257
 786.2109375 367 l 257
 808.4140625 428 l 257
 439.4140625 428 l 257
417.576171875 368 m 257
 458.931640625 75 l 257
 547.931640625 75 l 257
 491.576171875 368 l 257
 417.576171875 368 l 257
EndSplineSet
EndChar

StartChar: uni091D
Encoding: 2333 2333 461
GlifName: uni091D_
Width: 2048
VWidth: 0
Flags: HW
LayerCount: 2
Fore
SplineSet
742.556640625 1553 m 257
 721.08203125 1494 l 257
 1761.08203125 1494 l 257
 1782.55664062 1553 l 257
 742.556640625 1553 l 257
1578.55664062 1553 m 257
 1011.49023438 -5 l 257
 1073.49023438 -5 l 257
 1640.55664062 1553 l 257
 1578.55664062 1553 l 257
1340.73242188 1537 m 257
 1153.65234375 1023 l 257
 1213.65234375 1023 l 257
 1400.73242188 1537 l 257
 1340.73242188 1537 l 257
713.854492188 1084 m 257
 691.65234375 1023 l 257
 1213.65234375 1023 l 257
 1235.85449219 1084 l 257
 713.854492188 1084 l 257
714.217773438 1085 m 257
 556.254882812 651 l 257
 616.254882812 651 l 257
 774.217773438 1085 l 257
 714.217773438 1085 l 257
573.361328125 698 m 257
 551.5234375 638 l 257
 1301.5234375 638 l 257
 1323.36132812 698 l 257
 573.361328125 698 l 257
1004.81445312 691 m 257
 755.858398438 7 l 257
 815.858398438 7 l 257
 1064.81445312 691 l 257
 1004.81445312 691 l 257
342.240234375 63 m 257
 319.310546875 0 l 257
 813.310546875 0 l 257
 836.240234375 63 l 257
 342.240234375 63 l 257
342.240234375 63 m 257
 265.443359375 -148 l 257
 325.443359375 -148 l 257
 402.240234375 63 l 257
 342.240234375 63 l 257
EndSplineSet
EndChar

StartChar: uni091D_uni0930_uni094D.vatu
Encoding: 65567 -1 462
GlifName: uni091D__uni0930_uni094D_.vatu
Width: 2048
VWidth: 0
Flags: HW
LayerCount: 2
Fore
SplineSet
597.310546875 0 m 257
 717.310546875 0 l 257
 1138.56445312 215 l 257
 1164.04199219 285 l 257
 597.310546875 0 l 257
742.556640625 1553 m 257
 721.08203125 1494 l 257
 1761.08203125 1494 l 257
 1782.55664062 1553 l 257
 742.556640625 1553 l 257
1578.55664062 1553 m 257
 1011.49023438 -5 l 257
 1073.49023438 -5 l 257
 1640.55664062 1553 l 257
 1578.55664062 1553 l 257
1340.73242188 1537 m 257
 1153.65234375 1023 l 257
 1213.65234375 1023 l 257
 1400.73242188 1537 l 257
 1340.73242188 1537 l 257
713.854492188 1084 m 257
 691.65234375 1023 l 257
 1213.65234375 1023 l 257
 1235.85449219 1084 l 257
 713.854492188 1084 l 257
714.217773438 1085 m 257
 556.254882812 651 l 257
 616.254882812 651 l 257
 774.217773438 1085 l 257
 714.217773438 1085 l 257
573.361328125 698 m 257
 551.5234375 638 l 257
 1301.5234375 638 l 257
 1323.36132812 698 l 257
 573.361328125 698 l 257
738.814453125 691 m 257
 489.858398438 7 l 257
 549.858398438 7 l 257
 798.814453125 691 l 257
 738.814453125 691 l 257
342.240234375 63 m 257
 319.310546875 0 l 257
 547.310546875 0 l 257
 570.240234375 63 l 257
 342.240234375 63 l 257
342.240234375 63 m 257
 265.443359375 -148 l 257
 325.443359375 -148 l 257
 402.240234375 63 l 257
 342.240234375 63 l 257
EndSplineSet
EndChar

StartChar: uni091D_uni094D.half
Encoding: 65568 -1 463
GlifName: uni091D__uni094D_.half
Width: 2048
VWidth: 0
Flags: HW
LayerCount: 2
Fore
SplineSet
742.556640625 1553 m 257
 721.08203125 1494 l 257
 1761.08203125 1494 l 257
 1782.55664062 1553 l 257
 742.556640625 1553 l 257
1340.73242188 1537 m 257
 1153.65234375 1023 l 257
 1213.65234375 1023 l 257
 1400.73242188 1537 l 257
 1340.73242188 1537 l 257
713.854492188 1084 m 257
 691.65234375 1023 l 257
 1213.65234375 1023 l 257
 1235.85449219 1084 l 257
 713.854492188 1084 l 257
714.217773438 1085 m 257
 556.254882812 651 l 257
 616.254882812 651 l 257
 774.217773438 1085 l 257
 714.217773438 1085 l 257
573.361328125 698 m 257
 551.5234375 638 l 257
 1501.5234375 638 l 257
 1523.36132812 698 l 257
 573.361328125 698 l 257
1004.81445312 691 m 257
 755.858398438 7 l 257
 815.858398438 7 l 257
 1064.81445312 691 l 257
 1004.81445312 691 l 257
342.240234375 63 m 257
 319.310546875 0 l 257
 813.310546875 0 l 257
 836.240234375 63 l 257
 342.240234375 63 l 257
342.240234375 63 m 257
 265.443359375 -148 l 257
 325.443359375 -148 l 257
 402.240234375 63 l 257
 342.240234375 63 l 257
EndSplineSet
EndChar

StartChar: uni091E
Encoding: 2334 2334 465
GlifName: uni091E_
Width: 2048
VWidth: 0
Flags: HW
LayerCount: 2
Fore
SplineSet
709.306640625 1553 m 257
 687.46875 1493 l 257
 1721.46875 1493 l 257
 1743.30664062 1553 l 257
 709.306640625 1553 l 257
1583.84765625 1538 m 257
 1021.1484375 -8 l 257
 1081.1484375 -8 l 257
 1643.84765625 1538 l 257
 1583.84765625 1538 l 257
975.6484375 672 m 257
 953.810546875 612 l 257
 1267.81054688 612 l 257
 1289.6484375 672 l 257
 975.6484375 672 l 257
582.47265625 960 m 257
 560.634765625 900 l 257
 1057.63476562 900 l 257
 1079.47265625 960 l 257
 582.47265625 960 l 257
1049.47265625 960 m 257
 815.076171875 316 l 257
 875.076171875 316 l 257
 1109.47265625 960 l 257
 1049.47265625 960 l 257
326.53125 320 m 257
 304.693359375 260 l 257
 854.693359375 260 l 257
 876.53125 320 l 257
 326.53125 320 l 257
EndSplineSet
EndChar

StartChar: uni091E_uni0930_uni094D.vatu
Encoding: 65570 -1 466
GlifName: uni091E__uni0930_uni094D_.vatu
Width: 2048
VWidth: 0
Flags: HW
LayerCount: 2
Fore
SplineSet
438.060546875 0 m 257
 558.060546875 0 l 257
 1113.31445312 215 l 257
 1138.79296875 285 l 257
 438.060546875 0 l 257
709.306640625 1553 m 257
 687.46875 1493 l 257
 1721.46875 1493 l 257
 1743.30664062 1553 l 257
 709.306640625 1553 l 257
1583.84765625 1538 m 257
 1021.1484375 -8 l 257
 1081.1484375 -8 l 257
 1643.84765625 1538 l 257
 1583.84765625 1538 l 257
975.6484375 672 m 257
 953.810546875 612 l 257
 1267.81054688 612 l 257
 1289.6484375 672 l 257
 975.6484375 672 l 257
582.47265625 960 m 257
 560.634765625 900 l 257
 1057.63476562 900 l 257
 1079.47265625 960 l 257
 582.47265625 960 l 257
1049.47265625 960 m 257
 815.076171875 316 l 257
 875.076171875 316 l 257
 1109.47265625 960 l 257
 1049.47265625 960 l 257
326.53125 320 m 257
 304.693359375 260 l 257
 854.693359375 260 l 257
 876.53125 320 l 257
 326.53125 320 l 257
EndSplineSet
EndChar

StartChar: uni091E_uni094D.half
Encoding: 65571 -1 467
GlifName: uni091E__uni094D_.half
Width: 2048
VWidth: 0
Flags: HW
LayerCount: 2
Fore
SplineSet
709.306640625 1553 m 257
 687.46875 1493 l 257
 1721.46875 1493 l 257
 1743.30664062 1553 l 257
 709.306640625 1553 l 257
975.6484375 672 m 257
 953.810546875 612 l 257
 1467.81054688 612 l 257
 1489.6484375 672 l 257
 975.6484375 672 l 257
582.47265625 960 m 257
 560.634765625 900 l 257
 1057.63476562 900 l 257
 1079.47265625 960 l 257
 582.47265625 960 l 257
1049.47265625 960 m 257
 815.076171875 316 l 257
 875.076171875 316 l 257
 1109.47265625 960 l 257
 1049.47265625 960 l 257
326.53125 320 m 257
 304.693359375 260 l 257
 854.693359375 260 l 257
 876.53125 320 l 257
 326.53125 320 l 257
EndSplineSet
EndChar

StartChar: uni091F
Encoding: 2335 2335 469
GlifName: uni091F_
Width: 2048
VWidth: 0
Flags: HW
LayerCount: 2
Fore
SplineSet
755.123046875 1553 m 257
 733.6484375 1494 l 257
 1747.6484375 1494 l 257
 1769.12304688 1553 l 257
 755.123046875 1553 l 257
1445.0234375 1528 m 257
 1248.47949219 988 l 257
 1308.47949219 988 l 257
 1505.0234375 1528 l 257
 1445.0234375 1528 l 257
1321.21875 1023 m 257
 672.21875 1023 l 257
 650.379882812 963 l 257
 1299.37988281 963 l 257
 1321.21875 1023 l 257
651.21875 1023 m 257
 280.697265625 5 l 257
 340.697265625 5 l 257
 711.21875 1023 l 257
 651.21875 1023 l 257
300.71484375 60 m 257
 278.876953125 0 l 257
 991.876953125 0 l 257
 1013.71484375 60 l 257
 300.71484375 60 l 257
EndSplineSet
EndChar

StartChar: uni091F_uni0930_uni094D.vatu
Encoding: 65573 -1 470
GlifName: uni091F__uni0930_uni094D_.vatu
Width: 2048
VWidth: 0
Flags: HW
LayerCount: 2
Fore
SplineSet
636.240234375 220 m 257
 695.85546875 -119 l 257
 763.85546875 -119 l 257
 704.626953125 287 l 257
 636.240234375 220 l 257
704.626953125 287 m 257
 301.5859375 -106 l 257
 369.5859375 -106 l 257
 713.15234375 228 l 257
 704.626953125 287 l 257
732.4140625 1553 m 257
 710.939453125 1494 l 257
 1724.93945312 1494 l 257
 1746.4140625 1553 l 257
 732.4140625 1553 l 257
1422.31445312 1528 m 257
 1225.76953125 988 l 257
 1285.76953125 988 l 257
 1482.31445312 1528 l 257
 1422.31445312 1528 l 257
1298.50976562 1023 m 257
 649.509765625 1023 l 257
 627.669921875 963 l 257
 1276.66992188 963 l 257
 1298.50976562 1023 l 257
628.509765625 1023 m 257
 367.177734375 305 l 257
 427.177734375 305 l 257
 688.509765625 1023 l 257
 628.509765625 1023 l 257
387.197265625 360 m 257
 365.359375 300 l 257
 1078.359375 300 l 257
 1100.19726562 360 l 257
 387.197265625 360 l 257
EndSplineSet
EndChar

StartChar: uni0920
Encoding: 2336 2336 472
GlifName: uni0920
Width: 2048
VWidth: 0
Flags: HW
LayerCount: 2
Fore
SplineSet
757.577148438 1550 m 257
 735.73828125 1490 l 257
 1760.73828125 1490 l 257
 1782.57714844 1550 l 257
 757.577148438 1550 l 257
1340.01757812 1510 m 257
 1162.76464844 1023 l 257
 1221.76464844 1023 l 257
 1399.01757812 1510 l 257
 1340.01757812 1510 l 257
649.764648438 1023 m 257
 627.92578125 963 l 257
 1505.92578125 963 l 257
 1527.76464844 1023 l 257
 649.764648438 1023 l 257
636.764648438 1023 m 257
 269.154296875 13 l 257
 331.154296875 13 l 257
 698.764648438 1023 l 257
 636.764648438 1023 l 257
1448.75683594 1001 m 257
 1084.42285156 0 l 257
 1155.42285156 0 l 257
 1519.75683594 1001 l 257
 1448.75683594 1001 l 257
286.533203125 58 m 257
 265.422851562 0 l 257
 1135.42285156 0 l 257
 1156.53320312 58 l 257
 286.533203125 58 l 257
EndSplineSet
EndChar

StartChar: uni0920_uni0930_uni094D.vatu
Encoding: 65575 -1 473
GlifName: uni0920_uni0930_uni094D_.vatu
Width: 2048
VWidth: 0
Flags: HW
LayerCount: 2
Fore
SplineSet
714.446289062 220 m 257
 774.060546875 -119 l 257
 842.060546875 -119 l 257
 782.83203125 287 l 257
 714.446289062 220 l 257
782.83203125 287 m 257
 379.791992188 -106 l 257
 447.791992188 -106 l 257
 791.358398438 228 l 257
 782.83203125 287 l 257
703.52734375 1550 m 257
 681.688476562 1490 l 257
 1706.68847656 1490 l 257
 1728.52734375 1550 l 257
 703.52734375 1550 l 257
1198.96777344 1510 m 257
 1021.71484375 1023 l 257
 1080.71484375 1023 l 257
 1257.96777344 1510 l 257
 1198.96777344 1510 l 257
595.71484375 1023 m 257
 573.875976562 963 l 257
 1451.87597656 963 l 257
 1473.71484375 1023 l 257
 595.71484375 1023 l 257
582.71484375 1023 m 257
 324.295898438 313 l 257
 386.295898438 313 l 257
 644.71484375 1023 l 257
 582.71484375 1023 l 257
1394.70703125 1001 m 257
 1138.8359375 298 l 257
 1209.8359375 298 l 257
 1465.70703125 1001 l 257
 1394.70703125 1001 l 257
341.674804688 358 m 257
 319.47265625 297 l 257
 1189.47265625 297 l 257
 1211.67480469 358 l 257
 341.674804688 358 l 257
EndSplineSet
EndChar

StartChar: uni0921
Encoding: 2337 2337 475
GlifName: uni0921
Width: 2048
VWidth: 0
Flags: HW
LayerCount: 2
Fore
SplineSet
761.712890625 1548 m 257
 739.875 1488 l 257
 1765.875 1488 l 257
 1787.71289062 1548 l 257
 761.712890625 1548 l 257
979.37890625 1091 m 257
 793.025390625 579 l 257
 853.025390625 579 l 257
 1039.37890625 1091 l 257
 979.37890625 1091 l 257
799.577148438 597 m 257
 778.103515625 538 l 257
 1321.10351562 538 l 257
 1342.57714844 597 l 257
 799.577148438 597 l 257
1266.92675781 554 m 257
 1067.10742188 5 l 257
 1127.10742188 5 l 257
 1326.92675781 554 l 257
 1266.92675781 554 l 257
282.125 60 m 257
 260.287109375 0 l 257
 1125.28710938 0 l 257
 1147.125 60 l 257
 282.125 60 l 257
380.76171875 331 m 257
 262.107421875 5 l 257
 323.107421875 5 l 257
 441.76171875 331 l 257
 380.76171875 331 l 257
995.029296875 1134 m 257
 973.19140625 1074 l 257
 1516.19140625 1074 l 257
 1538.02929688 1134 l 257
 995.029296875 1134 l 257
1610.33398438 1503 m 257
 1462.92675781 1098 l 257
 1524.92675781 1098 l 257
 1672.33398438 1503 l 257
 1610.33398438 1503 l 257
EndSplineSet
EndChar

StartChar: uni0921_uni0930_uni094D.vatu
Encoding: 65577 -1 476
GlifName: uni0921_uni0930_uni094D_.vatu
Width: 2048
VWidth: 0
Flags: HW
LayerCount: 2
Fore
SplineSet
670.75 136 m 257
 745.287109375 -162 l 257
 820.56640625 -142 l 257
 734.76953125 191 l 257
 670.75 136 l 257
734.76953125 191 m 257
 357.5703125 -131 l 257
 417.927734375 -152 l 257
 747.298828125 143 l 257
 734.76953125 191 l 257
721.67578125 1548 m 257
 699.837890625 1488 l 257
 1725.83789062 1488 l 257
 1747.67578125 1548 l 257
 721.67578125 1548 l 257
939.341796875 1091 m 257
 833.0625 799 l 257
 893.0625 799 l 257
 999.341796875 1091 l 257
 939.341796875 1091 l 257
839.61328125 817 m 257
 818.140625 758 l 257
 1361.140625 758 l 257
 1382.61328125 817 l 257
 839.61328125 817 l 257
1306.96289062 774 m 257
 1107.14453125 225 l 257
 1167.14453125 225 l 257
 1366.96289062 774 l 257
 1306.96289062 774 l 257
322.162109375 280 m 257
 300.32421875 220 l 257
 1165.32421875 220 l 257
 1187.16210938 280 l 257
 322.162109375 280 l 257
420.798828125 551 m 257
 302.14453125 225 l 257
 363.14453125 225 l 257
 481.798828125 551 l 257
 420.798828125 551 l 257
954.9921875 1134 m 257
 933.154296875 1074 l 257
 1476.15429688 1074 l 257
 1497.9921875 1134 l 257
 954.9921875 1134 l 257
1570.296875 1503 m 257
 1422.890625 1098 l 257
 1484.890625 1098 l 257
 1632.296875 1503 l 257
 1570.296875 1503 l 257
EndSplineSet
EndChar

StartChar: uni0922
Encoding: 2338 2338 478
GlifName: uni0922
Width: 2048
VWidth: 0
Flags: HW
LayerCount: 2
Fore
SplineSet
744.577148438 1550 m 257
 722.010742188 1488 l 257
 1746.01074219 1488 l 257
 1768.57714844 1550 l 257
 744.577148438 1550 l 257
1423.56933594 1528 m 257
 1227.02539062 988 l 257
 1309.02539062 988 l 257
 1505.56933594 1528 l 257
 1423.56933594 1528 l 257
1321.76464844 1023 m 257
 672.764648438 1023 l 257
 650.5625 962 l 257
 1299.5625 962 l 257
 1321.76464844 1023 l 257
651.764648438 1023 m 257
 281.243164062 5 l 257
 341.243164062 5 l 257
 711.764648438 1023 l 257
 651.764648438 1023 l 257
301.260742188 60 m 257
 279.422851562 0 l 257
 992.422851562 0 l 257
 1014.26074219 60 l 257
 301.260742188 60 l 257
1132.42285156 544 m 257
 934.422851562 0 l 257
 994.422851562 0 l 257
 1192.42285156 544 l 257
 1132.42285156 544 l 257
1063.51464844 547 m 257
 1041.67675781 487 l 257
 1169.67675781 487 l 257
 1191.51464844 547 l 257
 1063.51464844 547 l 257
EndSplineSet
EndChar

StartChar: uni0922_uni0930_uni094D.vatu
Encoding: 65579 -1 479
GlifName: uni0922_uni0930_uni094D_.vatu
Width: 2048
VWidth: 0
Flags: HW
LayerCount: 2
Fore
SplineSet
659.287109375 220 m 257
 718.900390625 -119 l 257
 786.900390625 -119 l 257
 727.671875 287 l 257
 659.287109375 220 l 257
727.671875 287 m 257
 324.6328125 -106 l 257
 392.6328125 -106 l 257
 736.19921875 228 l 257
 727.671875 287 l 257
699.3671875 1550 m 257
 676.80078125 1488 l 257
 1700.80078125 1488 l 257
 1723.3671875 1550 l 257
 699.3671875 1550 l 257
1378.359375 1528 m 257
 1181.81640625 988 l 257
 1263.81640625 988 l 257
 1460.359375 1528 l 257
 1378.359375 1528 l 257
1276.5546875 1023 m 257
 627.5546875 1023 l 257
 605.353515625 962 l 257
 1254.35351562 962 l 257
 1276.5546875 1023 l 257
606.5546875 1023 m 257
 345.224609375 305 l 257
 405.224609375 305 l 257
 666.5546875 1023 l 257
 606.5546875 1023 l 257
365.2421875 360 m 257
 343.404296875 300 l 257
 1056.40429688 300 l 257
 1078.2421875 360 l 257
 365.2421875 360 l 257
1196.40429688 844 m 257
 997.67578125 298 l 257
 1057.67578125 298 l 257
 1256.40429688 844 l 257
 1196.40429688 844 l 257
1127.49609375 847 m 257
 1105.65820312 787 l 257
 1233.65820312 787 l 257
 1255.49609375 847 l 257
 1127.49609375 847 l 257
EndSplineSet
EndChar

StartChar: uni0923
Encoding: 2339 2339 481
GlifName: uni0923
Width: 2048
VWidth: 0
Flags: HW
LayerCount: 2
Fore
SplineSet
588.939453125 1550 m 257
 566.373046875 1488 l 257
 1593.37304688 1488 l 257
 1615.93945312 1550 l 257
 588.939453125 1550 l 257
1440.65917969 1530 m 257
 883.78515625 0 l 257
 943.78515625 0 l 257
 1500.65917969 1530 l 257
 1440.65917969 1530 l 257
693.391601562 1543 m 257
 442.979492188 855 l 257
 502.979492188 855 l 257
 753.391601562 1543 l 257
 693.391601562 1543 l 257
1183.93164062 1528 m 257
 934.975585938 844 l 257
 994.975585938 844 l 257
 1243.93164062 1528 l 257
 1183.93164062 1528 l 257
453.8984375 885 m 257
 432.060546875 825 l 257
 988.060546875 825 l 257
 1009.8984375 885 l 257
 453.8984375 885 l 257
EndSplineSet
EndChar

StartChar: uni0923_uni0930_uni094D.vatu
Encoding: 65581 -1 482
GlifName: uni0923_uni0930_uni094D_.vatu
Width: 2048
VWidth: 0
Flags: HW
LayerCount: 2
Fore
SplineSet
366.922851562 0 m 257
 486.922851562 0 l 257
 1042.17675781 215 l 257
 1067.65429688 285 l 257
 366.922851562 0 l 257
654.077148438 1550 m 257
 631.510742188 1488 l 257
 1658.51074219 1488 l 257
 1681.07714844 1550 l 257
 654.077148438 1550 l 257
1505.796875 1530 m 257
 948.922851562 0 l 257
 1008.92285156 0 l 257
 1565.796875 1530 l 257
 1505.796875 1530 l 257
758.529296875 1543 m 257
 508.1171875 855 l 257
 568.1171875 855 l 257
 818.529296875 1543 l 257
 758.529296875 1543 l 257
1249.06933594 1528 m 257
 1000.11328125 844 l 257
 1060.11328125 844 l 257
 1309.06933594 1528 l 257
 1249.06933594 1528 l 257
519.036132812 885 m 257
 497.198242188 825 l 257
 1053.19824219 825 l 257
 1075.03613281 885 l 257
 519.036132812 885 l 257
EndSplineSet
EndChar

StartChar: uni0923_uni094D.half
Encoding: 65582 -1 483
GlifName: uni0923_uni094D_.half
Width: 2048
VWidth: 0
Flags: HW
LayerCount: 2
Fore
SplineSet
521.783203125 1550 m 257
 499.216796875 1488 l 257
 1526.21679688 1488 l 257
 1548.78320312 1550 l 257
 521.783203125 1550 l 257
826.235351562 1543 m 257
 575.823242188 855 l 257
 635.823242188 855 l 257
 886.235351562 1543 l 257
 826.235351562 1543 l 257
1316.77539062 1528 m 257
 1067.81933594 844 l 257
 1127.81933594 844 l 257
 1376.77539062 1528 l 257
 1316.77539062 1528 l 257
586.7421875 885 m 257
 564.904296875 825 l 257
 1120.90429688 825 l 257
 1142.7421875 885 l 257
 586.7421875 885 l 257
EndSplineSet
EndChar

StartChar: uni0924
Encoding: 2340 2340 485
GlifName: uni0924
Width: 2048
VWidth: 0
Flags: HW
LayerCount: 2
Fore
SplineSet
709.391601562 1553 m 257
 689.008789062 1497 l 257
 1739.00878906 1497 l 257
 1759.39160156 1553 l 257
 709.391601562 1553 l 257
1502.47558594 1534 m 257
 944.145507812 0 l 257
 1003.14550781 0 l 257
 1561.47558594 1534 l 257
 1502.47558594 1534 l 257
1244.95410156 788 m 257
 565.954101562 788 l 257
 544.116210938 728 l 257
 1223.11621094 728 l 257
 1244.95410156 788 l 257
557.946289062 766 m 257
 288.608398438 26 l 257
 348.608398438 26 l 257
 617.946289062 766 l 257
 557.946289062 766 l 257
EndSplineSet
EndChar

StartChar: uni0924_uni0930_uni094D.vatu
Encoding: 65584 -1 486
GlifName: uni0924_uni0930_uni094D_.vatu
Width: 2048
VWidth: 0
Flags: HW
LayerCount: 2
Fore
SplineSet
348.169921875 117 m 257
 468.169921875 117 l 257
 1064.91601562 446 l 257
 1090.39257812 516 l 257
 348.169921875 117 l 257
649.830078125 1553 m 257
 629.447265625 1497 l 257
 1679.44726562 1497 l 257
 1699.83007812 1553 l 257
 649.830078125 1553 l 257
1442.9140625 1534 m 257
 884.583984375 0 l 257
 943.583984375 0 l 257
 1501.9140625 1534 l 257
 1442.9140625 1534 l 257
1110.77929688 583 m 257
 506.392578125 788 l 257
 484.5546875 728 l 257
 1088.94140625 523 l 257
 1110.77929688 583 l 257
EndSplineSet
EndChar

StartChar: uni0924_uni094D.half
Encoding: 65585 -1 487
GlifName: uni0924_uni094D_.half
Width: 2048
VWidth: 0
Flags: HW
LayerCount: 2
Fore
SplineSet
559.391601562 1553 m 257
 539.008789062 1497 l 257
 1589.00878906 1497 l 257
 1609.39160156 1553 l 257
 559.391601562 1553 l 257
1394.95410156 788 m 257
 715.954101562 788 l 257
 694.116210938 728 l 257
 1373.11621094 728 l 257
 1394.95410156 788 l 257
707.946289062 766 m 257
 438.608398438 26 l 257
 498.608398438 26 l 257
 767.946289062 766 l 257
 707.946289062 766 l 257
EndSplineSet
EndChar

StartChar: uni0924_uni094D_uni0924.pres
Encoding: 65587 -1 489
GlifName: uni0924_uni094D__uni0924.pres
Width: 2048
VWidth: 0
Flags: HW
LayerCount: 2
Fore
SplineSet
644.53515625 1553 m 257
 622.6953125 1493 l 257
 1672.6953125 1493 l 257
 1694.53515625 1553 l 257
 644.53515625 1553 l 257
1428.24804688 1511 m 257
 878.2890625 0 l 257
 938.2890625 0 l 257
 1488.24804688 1511 l 257
 1428.24804688 1511 l 257
1180.09765625 788 m 257
 501.09765625 788 l 257
 479.259765625 728 l 257
 1158.25976562 728 l 257
 1180.09765625 788 l 257
479.259765625 728 m 257
 353.46484375 -16 l 257
 428.296875 22 l 257
 553.08984375 766 l 257
 479.259765625 728 l 257
1285.08984375 1038 m 257
 563.08984375 1038 l 257
 541.251953125 978 l 257
 1263.25195312 978 l 257
 1285.08984375 1038 l 257
EndSplineSet
EndChar

StartChar: uni0925
Encoding: 2341 2341 490
GlifName: uni0925
Width: 2048
VWidth: 0
Flags: HW
LayerCount: 2
Fore
SplineSet
1394.0546875 1550 m 257
 1372.9453125 1492 l 257
 1756.9453125 1492 l 257
 1778.0546875 1550 l 257
 1394.0546875 1550 l 257
1666.77929688 1541 m 257
 1099.34960938 -18 l 257
 1158.34960938 -18 l 257
 1725.77929688 1541 l 257
 1666.77929688 1541 l 257
782.0546875 1550 m 257
 760.216796875 1490 l 257
 1205.21679688 1490 l 257
 1227.0546875 1550 l 257
 782.0546875 1550 l 257
1148.94726562 1503 m 257
 960.775390625 986 l 257
 1020.77539062 986 l 257
 1208.94726562 1503 l 257
 1148.94726562 1503 l 257
1033.421875 1018 m 257
 592.421875 1018 l 257
 570.220703125 957 l 257
 1011.22070312 957 l 257
 1033.421875 1018 l 257
579.68359375 983 m 257
 269.9453125 132 l 257
 328.9453125 132 l 257
 638.68359375 983 l 257
 579.68359375 983 l 257
291.419921875 191 m 257
 269.9453125 132 l 257
 1212.9453125 132 l 257
 1234.41992188 191 l 257
 291.419921875 191 l 257
EndSplineSet
EndChar

StartChar: uni0925_uni0930_uni094D.vatu
Encoding: 65588 -1 491
GlifName: uni0925_uni0930_uni094D_.vatu
Width: 2048
VWidth: 0
Flags: HW
LayerCount: 2
Fore
SplineSet
466.3046875 0 m 257
 586.3046875 0 l 257
 1140.10351562 211 l 257
 1165.58007812 281 l 257
 466.3046875 0 l 257
1339.45898438 1550 m 257
 1318.34960938 1492 l 257
 1702.34960938 1492 l 257
 1723.45898438 1550 l 257
 1339.45898438 1550 l 257
1612.18359375 1541 m 257
 1044.75390625 -18 l 257
 1103.75390625 -18 l 257
 1671.18359375 1541 l 257
 1612.18359375 1541 l 257
727.458984375 1550 m 257
 705.62109375 1490 l 257
 1150.62109375 1490 l 257
 1172.45898438 1550 l 257
 727.458984375 1550 l 257
1094.3515625 1503 m 257
 906.1796875 986 l 257
 966.1796875 986 l 257
 1154.3515625 1503 l 257
 1094.3515625 1503 l 257
978.826171875 1018 m 257
 537.826171875 1018 l 257
 515.625 957 l 257
 956.625 957 l 257
 978.826171875 1018 l 257
525.087890625 983 m 257
 324.541015625 432 l 257
 383.541015625 432 l 257
 584.087890625 983 l 257
 525.087890625 983 l 257
346.013671875 491 m 257
 324.541015625 432 l 257
 1267.54101562 432 l 257
 1289.01367188 491 l 257
 346.013671875 491 l 257
EndSplineSet
EndChar

StartChar: uni0925_uni094D.half
Encoding: 65589 -1 492
GlifName: uni0925_uni094D_.half
Width: 2048
VWidth: 0
Flags: HW
LayerCount: 2
Fore
SplineSet
1402.14453125 1545 m 257
 1383.21875 1493 l 257
 1715.21875 1493 l 257
 1734.14453125 1545 l 257
 1402.14453125 1545 l 257
825.96484375 1550 m 257
 804.126953125 1490 l 257
 1249.12695312 1490 l 257
 1270.96484375 1550 l 257
 825.96484375 1550 l 257
1192.85742188 1503 m 257
 1004.68554688 986 l 257
 1064.68554688 986 l 257
 1252.85742188 1503 l 257
 1192.85742188 1503 l 257
1077.33203125 1018 m 257
 636.33203125 1018 l 257
 614.130859375 957 l 257
 1055.13085938 957 l 257
 1077.33203125 1018 l 257
623.59375 983 m 257
 313.85546875 132 l 257
 372.85546875 132 l 257
 682.59375 983 l 257
 623.59375 983 l 257
335.330078125 191 m 257
 313.85546875 132 l 257
 1256.85546875 132 l 257
 1278.33007812 191 l 257
 335.330078125 191 l 257
EndSplineSet
EndChar

StartChar: uni0926
Encoding: 2342 2342 494
GlifName: uni0926
Width: 2048
VWidth: 0
Flags: HW
LayerCount: 2
Fore
SplineSet
715.7578125 1553 m 257
 693.91796875 1493 l 257
 1713.91796875 1493 l 257
 1735.7578125 1553 l 257
 715.7578125 1553 l 257
1323.92578125 1515 m 257
 1124.10742188 966 l 257
 1184.10742188 966 l 257
 1383.92578125 1515 l 257
 1323.92578125 1515 l 257
1202.85351562 1023 m 257
 580.853515625 1023 l 257
 559.013671875 963 l 257
 1181.01367188 963 l 257
 1202.85351562 1023 l 257
576.484375 1011 m 257
 324.25390625 318 l 257
 384.25390625 318 l 257
 636.484375 1011 l 257
 576.484375 1011 l 257
334.4453125 346 m 257
 312.2421875 285 l 257
 1064.2421875 285 l 257
 1086.4453125 346 l 257
 334.4453125 346 l 257
1018.80078125 325 m 257
 897.962890625 -7 l 257
 957.962890625 -7 l 257
 1078.80078125 325 l 257
 1018.80078125 325 l 257
EndSplineSet
EndChar

StartChar: uni0926_uni0930_uni094D.vatu
Encoding: 65591 -1 495
GlifName: uni0926_uni0930_uni094D_.vatu
Width: 2048
VWidth: 0
Flags: HW
LayerCount: 2
Fore
SplineSet
335.376953125 0 m 257
 455.376953125 0 l 257
 1010.63085938 215 l 257
 1036.10839844 285 l 257
 335.376953125 0 l 257
692.623046875 1553 m 257
 670.784179688 1493 l 257
 1690.78417969 1493 l 257
 1712.62304688 1553 l 257
 692.623046875 1553 l 257
1300.79199219 1515 m 257
 1173.76660156 1166 l 257
 1233.76660156 1166 l 257
 1360.79199219 1515 l 257
 1300.79199219 1515 l 257
1252.51269531 1223 m 257
 630.512695312 1223 l 257
 608.674804688 1163 l 257
 1230.67480469 1163 l 257
 1252.51269531 1223 l 257
626.14453125 1211 m 257
 373.913085938 518 l 257
 433.913085938 518 l 257
 686.14453125 1211 l 257
 626.14453125 1211 l 257
384.104492188 546 m 257
 361.90234375 485 l 257
 1113.90234375 485 l 257
 1136.10449219 546 l 257
 384.104492188 546 l 257
1068.4609375 525 m 257
 874.829101562 -7 l 257
 934.829101562 -7 l 257
 1128.4609375 525 l 257
 1068.4609375 525 l 257
EndSplineSet
EndChar

StartChar: uni0926_uni094D.half
Encoding: 65592 -1 496
GlifName: uni0926_uni094D_.half
Width: 2048
VWidth: 0
Flags: HW
LayerCount: 2
Fore
SplineSet
679.360351562 1553 m 257
 657.521484375 1493 l 257
 1677.52148438 1493 l 257
 1699.36035156 1553 l 257
 679.360351562 1553 l 257
1287.52929688 1515 m 257
 1087.70996094 966 l 257
 1147.70996094 966 l 257
 1347.52929688 1515 l 257
 1287.52929688 1515 l 257
1166.45605469 1023 m 257
 544.456054688 1023 l 257
 522.6171875 963 l 257
 1144.6171875 963 l 257
 1166.45605469 1023 l 257
540.087890625 1011 m 257
 360.650390625 518 l 257
 420.650390625 518 l 257
 600.087890625 1011 l 257
 540.087890625 1011 l 257
370.841796875 546 m 257
 348.639648438 485 l 257
 1100.63964844 485 l 257
 1122.84179688 546 l 257
 370.841796875 546 l 257
1055.19824219 525 m 257
 934.360351562 193 l 257
 994.360351562 193 l 257
 1115.19824219 525 l 257
 1055.19824219 525 l 257
549.084960938 184 m 257
 526.8828125 123 l 257
 870.8828125 123 l 257
 893.084960938 184 l 257
 549.084960938 184 l 257
844.06640625 129 m 257
 1027.76855469 -218 l 257
 1076.6953125 -166 l 257
 893.44921875 185 l 257
 844.06640625 129 l 257
EndSplineSet
EndChar

StartChar: uni0926_uni094D_uni0926.pres
Encoding: 65594 -1 498
GlifName: uni0926_uni094D__uni0926.pres
Width: 2048
VWidth: 0
Flags: HW
LayerCount: 2
Fore
SplineSet
677.5078125 1550 m 257
 655.3046875 1489 l 257
 1670.3046875 1489 l 257
 1692.5078125 1550 l 257
 677.5078125 1550 l 257
1280.58398438 1509 m 257
 1155.01367188 1164 l 257
 1214.01367188 1164 l 257
 1339.58398438 1509 l 257
 1280.58398438 1509 l 257
1225.02539062 1197 m 257
 739.025390625 1197 l 257
 717.1875 1137 l 257
 1203.1875 1137 l 257
 1225.02539062 1197 l 257
731.291015625 1173 m 257
 572.234375 736 l 257
 631.234375 736 l 257
 790.291015625 1173 l 257
 731.291015625 1173 l 257
376.966796875 205 m 257
 355.4921875 146 l 257
 968.4921875 146 l 257
 989.966796875 205 l 257
 376.966796875 205 l 257
1008.125 406 m 257
 857.8046875 -7 l 257
 916.8046875 -7 l 257
 1067.125 406 l 257
 1008.125 406 l 257
1061.96679688 749 m 257
 625.966796875 749 l 257
 603.763671875 688 l 257
 1039.76367188 688 l 257
 1061.96679688 749 l 257
559.49609375 701 m 257
 369.140625 178 l 257
 428.140625 178 l 257
 618.49609375 701 l 257
 559.49609375 701 l 257
EndSplineSet
EndChar

StartChar: uni0926_uni094D_uni0927.pres
Encoding: 65595 -1 499
GlifName: uni0926_uni094D__uni0927.pres
Width: 2048
VWidth: 0
Flags: HW
LayerCount: 2
Fore
SplineSet
752.28125 1550 m 257
 720.250976562 1462 l 257
 1748.25097656 1462 l 257
 1780.28125 1550 l 257
 752.28125 1550 l 257
1509.35839844 1509 m 257
 1317.91015625 983 l 257
 1376.91015625 983 l 257
 1568.35839844 1509 l 257
 1509.35839844 1509 l 257
1390.46875 1023 m 257
 941.46875 1023 l 257
 918.174804688 959 l 257
 1367.17480469 959 l 257
 1390.46875 1023 l 257
931.641601562 996 m 257
 628.818359375 164 l 257
 687.818359375 164 l 257
 990.641601562 996 l 257
 931.641601562 996 l 257
1236.8984375 406 m 257
 1086.57910156 -7 l 257
 1145.57910156 -7 l 257
 1295.8984375 406 l 257
 1236.8984375 406 l 257
544.08984375 978 m 257
 522.251953125 918 l 257
 824.251953125 918 l 257
 846.08984375 978 l 257
 544.08984375 978 l 257
533.8984375 950 m 257
 449.458007812 718 l 257
 508.458007812 718 l 257
 592.8984375 950 l 257
 533.8984375 950 l 257
444.821289062 719 m 257
 422.983398438 659 l 257
 821.983398438 659 l 257
 843.821289062 719 l 257
 444.821289062 719 l 257
463.443359375 674 m 257
 283.641601562 180 l 257
 343.641601562 180 l 257
 523.443359375 674 l 257
 463.443359375 674 l 257
289.193359375 198 m 257
 267.71875 139 l 257
 1155.71875 139 l 257
 1177.19335938 198 l 257
 289.193359375 198 l 257
EndSplineSet
EndChar

StartChar: uni0926_uni094D_uni092F.pres
Encoding: 65596 -1 500
GlifName: uni0926_uni094D__uni092F_.pres
Width: 2048
VWidth: 0
Flags: HW
LayerCount: 2
Fore
SplineSet
1652.48632812 1531 m 257
 1095.24804688 0 l 257
 1155.24804688 0 l 257
 1712.48632812 1531 l 257
 1652.48632812 1531 l 257
932.071289062 288 m 257
 910.59765625 229 l 257
 1144.19238281 107 l 257
 1168.21484375 173 l 257
 932.071289062 288 l 257
712.40234375 1550 m 257
 690.200195312 1489 l 257
 1732.20019531 1489 l 257
 1754.40234375 1550 l 257
 712.40234375 1550 l 257
1327.47949219 1509 m 257
 1137.12304688 986 l 257
 1196.12304688 986 l 257
 1386.47949219 1509 l 257
 1327.47949219 1509 l 257
932.071289062 288 m 257
 315.071289062 288 l 257
 293.59765625 229 l 257
 910.59765625 229 l 257
 932.071289062 288 l 257
572.762695312 996 m 257
 309.612304688 273 l 257
 368.612304688 273 l 257
 631.762695312 996 l 257
 572.762695312 996 l 257
1209.58984375 1023 m 257
 581.58984375 1023 l 257
 558.659179688 960 l 257
 1186.65917969 960 l 257
 1209.58984375 1023 l 257
EndSplineSet
EndChar

StartChar: uni0926_uni094D_uni0935.pres
Encoding: 65597 -1 501
GlifName: uni0926_uni094D__uni0935.pres
Width: 2048
VWidth: 0
Flags: HW
LayerCount: 2
Fore
SplineSet
750.110351562 1550 m 257
 728.271484375 1490 l 257
 1743.27148438 1490 l 257
 1765.11035156 1550 l 257
 750.110351562 1550 l 257
1351.1875 1509 m 257
 1237.62890625 1197 l 257
 1298.62890625 1197 l 257
 1412.1875 1509 l 257
 1351.1875 1509 l 257
1313.64355469 1241 m 257
 691.643554688 1241 l 257
 670.168945312 1182 l 257
 1292.16894531 1182 l 257
 1313.64355469 1241 l 257
688.37109375 1243 m 257
 475.8125 659 l 257
 535.8125 659 l 257
 748.37109375 1243 l 257
 688.37109375 1243 l 257
484.912109375 684 m 257
 463.4375 625 l 257
 1215.4375 625 l 257
 1236.91210938 684 l 257
 484.912109375 684 l 257
1239.875 846 m 257
 929.408203125 -7 l 257
 989.408203125 -7 l 257
 1299.875 846 l 257
 1239.875 846 l 257
428.93359375 478 m 257
 292.081054688 102 l 257
 352.081054688 102 l 257
 488.93359375 478 l 257
 428.93359375 478 l 257
304.728515625 134 m 257
 282.889648438 74 l 257
 1017.88964844 74 l 257
 1039.72851562 134 l 257
 304.728515625 134 l 257
442.037109375 514 m 257
 420.5625 455 l 257
 856.5625 455 l 257
 878.037109375 514 l 257
 442.037109375 514 l 257
EndSplineSet
EndChar

StartChar: uni0927
Encoding: 2343 2343 502
GlifName: uni0927
Width: 2048
VWidth: 0
Flags: HW
LayerCount: 2
Fore
SplineSet
1426.69335938 1553 m 257
 1404.85351562 1493 l 257
 1706.85351562 1493 l 257
 1728.69335938 1553 l 257
 1426.69335938 1553 l 257
1601.76953125 1512 m 257
 1049.26367188 -6 l 257
 1107.26367188 -6 l 257
 1659.76953125 1512 l 257
 1601.76953125 1512 l 257
806.693359375 1553 m 257
 784.490234375 1492 l 257
 1176.49023438 1492 l 257
 1198.69335938 1553 l 257
 806.693359375 1553 l 257
787.765625 1501 m 257
 548.63671875 844 l 257
 608.63671875 844 l 257
 847.765625 1501 l 257
 787.765625 1501 l 257
560.46875 882 m 257
 538.994140625 823 l 257
 938.994140625 823 l 257
 960.46875 882 l 257
 560.46875 882 l 257
575.54296875 830 m 257
 332.7734375 163 l 257
 392.7734375 163 l 257
 635.54296875 830 l 257
 575.54296875 830 l 257
341.14453125 186 m 257
 319.306640625 126 l 257
 1115.30664062 126 l 257
 1137.14453125 186 l 257
 341.14453125 186 l 257
EndSplineSet
EndChar

StartChar: uni0927_uni0930_uni094D.vatu
Encoding: 65598 -1 503
GlifName: uni0927_uni0930_uni094D_.vatu
Width: 2048
VWidth: 0
Flags: HW
LayerCount: 2
Fore
SplineSet
428.961914062 8 m 257
 548.961914062 8 l 257
 1104.21484375 223 l 257
 1129.69335938 293 l 257
 428.961914062 8 l 257
1390.29589844 1553 m 257
 1368.45703125 1493 l 257
 1670.45703125 1493 l 257
 1692.29589844 1553 l 257
 1390.29589844 1553 l 257
1565.37304688 1512 m 257
 1012.86621094 -6 l 257
 1070.86621094 -6 l 257
 1623.37304688 1512 l 257
 1565.37304688 1512 l 257
770.295898438 1553 m 257
 748.09375 1492 l 257
 1140.09375 1492 l 257
 1162.29589844 1553 l 257
 770.295898438 1553 l 257
751.369140625 1501 m 257
 585.03515625 1044 l 257
 645.03515625 1044 l 257
 811.369140625 1501 l 257
 751.369140625 1501 l 257
596.865234375 1082 m 257
 575.391601562 1023 l 257
 975.391601562 1023 l 257
 996.865234375 1082 l 257
 596.865234375 1082 l 257
611.939453125 1030 m 257
 369.170898438 363 l 257
 429.170898438 363 l 257
 671.939453125 1030 l 257
 611.939453125 1030 l 257
377.541992188 386 m 257
 355.704101562 326 l 257
 1151.70410156 326 l 257
 1173.54199219 386 l 257
 377.541992188 386 l 257
EndSplineSet
EndChar

StartChar: uni0927_uni094D.half
Encoding: 65599 -1 504
GlifName: uni0927_uni094D_.half
Width: 2048
VWidth: 0
Flags: HW
LayerCount: 2
Fore
SplineSet
1071.69335938 1553 m 257
 1049.49023438 1492 l 257
 1441.49023438 1492 l 257
 1463.69335938 1553 l 257
 1071.69335938 1553 l 257
1052.765625 1501 m 257
 813.63671875 844 l 257
 873.63671875 844 l 257
 1112.765625 1501 l 257
 1052.765625 1501 l 257
825.46875 882 m 257
 803.994140625 823 l 257
 1203.99414062 823 l 257
 1225.46875 882 l 257
 825.46875 882 l 257
840.54296875 830 m 257
 597.7734375 163 l 257
 657.7734375 163 l 257
 900.54296875 830 l 257
 840.54296875 830 l 257
606.14453125 186 m 257
 584.306640625 126 l 257
 1380.30664062 126 l 257
 1402.14453125 186 l 257
 606.14453125 186 l 257
EndSplineSet
EndChar

StartChar: uni0928
Encoding: 2344 2344 506
GlifName: uni0928
Width: 2048
VWidth: 0
Flags: HW
LayerCount: 2
Fore
SplineSet
663.091796875 1550 m 257
 642.344726562 1493 l 257
 1662.34472656 1493 l 257
 1683.09179688 1550 l 257
 663.091796875 1550 l 257
1505.09179688 1550 m 257
 940.9375 0 l 257
 1002.9375 0 l 257
 1567.09179688 1550 l 257
 1505.09179688 1550 l 257
469.731445312 744 m 257
 447.529296875 683 l 257
 1221.52929688 683 l 257
 1243.73144531 744 l 257
 469.731445312 744 l 257
468.639648438 741 m 257
 364.908203125 456 l 257
 424.908203125 456 l 257
 528.639648438 741 l 257
 468.639648438 741 l 257
EndSplineSet
EndChar

StartChar: uni0928_uni0930_uni094D.vatu
Encoding: 65601 -1 507
GlifName: uni0928_uni0930_uni094D_.vatu
Width: 2048
VWidth: 0
Flags: HW
LayerCount: 2
Fore
SplineSet
374.12890625 28 m 257
 494.12890625 28 l 257
 1049.38183594 243 l 257
 1074.86035156 313 l 257
 374.12890625 28 l 257
663.091796875 1550 m 257
 642.344726562 1493 l 257
 1662.34472656 1493 l 257
 1683.09179688 1550 l 257
 663.091796875 1550 l 257
1505.09179688 1550 m 257
 940.9375 0 l 257
 1002.9375 0 l 257
 1567.09179688 1550 l 257
 1505.09179688 1550 l 257
469.731445312 744 m 257
 447.529296875 683 l 257
 1221.52929688 683 l 257
 1243.73144531 744 l 257
 469.731445312 744 l 257
468.639648438 741 m 257
 364.908203125 456 l 257
 424.908203125 456 l 257
 528.639648438 741 l 257
 468.639648438 741 l 257
EndSplineSet
EndChar

StartChar: uni0928_uni094D.half
Encoding: 65602 -1 508
GlifName: uni0928_uni094D_.half
Width: 2048
VWidth: 0
Flags: HW
LayerCount: 2
Fore
SplineSet
588.091796875 1550 m 257
 567.344726562 1493 l 257
 1587.34472656 1493 l 257
 1608.09179688 1550 l 257
 588.091796875 1550 l 257
544.731445312 744 m 257
 522.529296875 683 l 257
 1296.52929688 683 l 257
 1318.73144531 744 l 257
 544.731445312 744 l 257
543.639648438 741 m 257
 439.908203125 456 l 257
 499.908203125 456 l 257
 603.639648438 741 l 257
 543.639648438 741 l 257
EndSplineSet
EndChar

StartChar: uni0929
Encoding: 2345 2345 510
GlifName: uni0929
Width: 2048
VWidth: 0
Flags: HW
LayerCount: 2
Fore
SplineSet
664.591796875 1550 m 257
 643.844726562 1493 l 257
 1661.84472656 1493 l 257
 1682.59179688 1550 l 257
 664.591796875 1550 l 257
1505.59179688 1550 m 257
 941.4375 0 l 257
 1002.4375 0 l 257
 1566.59179688 1550 l 257
 1505.59179688 1550 l 257
469.231445312 744 m 257
 447.029296875 683 l 257
 1221.02929688 683 l 257
 1243.23144531 744 l 257
 469.231445312 744 l 257
469.139648438 741 m 257
 365.408203125 456 l 257
 425.408203125 456 l 257
 529.139648438 741 l 257
 469.139648438 741 l 257
575.790039062 -32 m 257
 534.297851562 -146 l 257
 677.297851562 -146 l 257
 718.790039062 -32 l 257
 575.790039062 -32 l 257
EndSplineSet
EndChar

StartChar: uni0929_uni0930_uni094D.vatu
Encoding: 65604 -1 511
GlifName: uni0929_uni0930_uni094D_.vatu
Width: 2048
VWidth: 0
Flags: HW
LayerCount: 2
Fore
SplineSet
386.172851562 24 m 257
 506.172851562 24 l 257
 1061.42675781 239 l 257
 1086.90429688 309 l 257
 386.172851562 24 l 257
664.591796875 1550 m 257
 643.844726562 1493 l 257
 1661.84472656 1493 l 257
 1682.59179688 1550 l 257
 664.591796875 1550 l 257
1505.59179688 1550 m 257
 941.4375 0 l 257
 1002.4375 0 l 257
 1566.59179688 1550 l 257
 1505.59179688 1550 l 257
469.231445312 744 m 257
 447.029296875 683 l 257
 1221.02929688 683 l 257
 1243.23144531 744 l 257
 469.231445312 744 l 257
469.139648438 741 m 257
 365.408203125 456 l 257
 425.408203125 456 l 257
 529.139648438 741 l 257
 469.139648438 741 l 257
575.790039062 -32 m 257
 534.297851562 -146 l 257
 677.297851562 -146 l 257
 718.790039062 -32 l 257
 575.790039062 -32 l 257
EndSplineSet
EndChar

StartChar: uni0929_uni094D.half
Encoding: 65605 -1 512
GlifName: uni0929_uni094D_.half
Width: 2048
VWidth: 0
Flags: HW
LayerCount: 2
Fore
SplineSet
589.591796875 1550 m 257
 568.844726562 1493 l 257
 1586.84472656 1493 l 257
 1607.59179688 1550 l 257
 589.591796875 1550 l 257
544.231445312 744 m 257
 522.029296875 683 l 257
 1296.02929688 683 l 257
 1318.23144531 744 l 257
 544.231445312 744 l 257
544.139648438 741 m 257
 440.408203125 456 l 257
 500.408203125 456 l 257
 604.139648438 741 l 257
 544.139648438 741 l 257
650.790039062 -32 m 257
 609.297851562 -146 l 257
 752.297851562 -146 l 257
 793.790039062 -32 l 257
 650.790039062 -32 l 257
EndSplineSet
EndChar

StartChar: uni092A
Encoding: 2346 2346 514
GlifName: uni092A_
Width: 2048
VWidth: 0
Flags: HW
LayerCount: 2
Fore
SplineSet
559.4609375 1550 m 257
 537.986328125 1491 l 257
 1577.98632812 1491 l 257
 1599.4609375 1550 l 257
 559.4609375 1550 l 257
1393.45703125 1539 m 257
 833.306640625 0 l 257
 895.306640625 0 l 257
 1455.45703125 1539 l 257
 1393.45703125 1539 l 257
661.4609375 1550 m 257
 448.5390625 965 l 257
 508.5390625 965 l 257
 721.4609375 1550 l 257
 661.4609375 1550 l 257
469.6484375 1023 m 257
 448.90234375 966 l 257
 1212.90234375 966 l 257
 1233.6484375 1023 l 257
 469.6484375 1023 l 257
EndSplineSet
EndChar

StartChar: uni092A_uni0930_uni094D.vatu
Encoding: 65607 -1 515
GlifName: uni092A__uni0930_uni094D_.vatu
Width: 2048
VWidth: 0
Flags: HW
LayerCount: 2
Fore
SplineSet
352.922851562 0 m 257
 472.922851562 0 l 257
 1080.32324219 383 l 257
 1105.80175781 453 l 257
 352.922851562 0 l 257
655.077148438 1550 m 257
 633.602539062 1491 l 257
 1673.60253906 1491 l 257
 1695.07714844 1550 l 257
 655.077148438 1550 l 257
1489.07324219 1539 m 257
 928.922851562 0 l 257
 990.922851562 0 l 257
 1551.07324219 1539 l 257
 1489.07324219 1539 l 257
757.077148438 1550 m 257
 544.154296875 965 l 257
 604.154296875 965 l 257
 817.077148438 1550 l 257
 757.077148438 1550 l 257
565.264648438 1023 m 257
 544.518554688 966 l 257
 1308.51855469 966 l 257
 1329.26464844 1023 l 257
 565.264648438 1023 l 257
EndSplineSet
EndChar

StartChar: uni092A_uni094D.half
Encoding: 65608 -1 516
GlifName: uni092A__uni094D_.half
Width: 2048
VWidth: 0
Flags: HW
LayerCount: 2
Fore
SplineSet
514.737304688 1550 m 257
 493.262695312 1491 l 257
 1533.26269531 1491 l 257
 1554.73730469 1550 l 257
 514.737304688 1550 l 257
816.737304688 1550 m 257
 603.814453125 965 l 257
 663.814453125 965 l 257
 876.737304688 1550 l 257
 816.737304688 1550 l 257
624.924804688 1023 m 257
 604.178710938 966 l 257
 1368.17871094 966 l 257
 1388.92480469 1023 l 257
 624.924804688 1023 l 257
EndSplineSet
EndChar

StartChar: uni092B
Encoding: 2347 2347 518
GlifName: uni092B_
Width: 2048
VWidth: 0
Flags: HW
LayerCount: 2
Fore
SplineSet
572.143554688 1550 m 257
 550.668945312 1491 l 257
 1577.66894531 1491 l 257
 1599.14355469 1550 l 257
 572.143554688 1550 l 257
1217.13964844 1539 m 257
 656.989257812 0 l 257
 716.989257812 0 l 257
 1277.13964844 1539 l 257
 1217.13964844 1539 l 257
662.143554688 1550 m 257
 449.220703125 965 l 257
 509.220703125 965 l 257
 722.143554688 1550 l 257
 662.143554688 1550 l 257
470.331054688 1023 m 257
 448.856445312 964 l 257
 1325.85644531 964 l 257
 1347.33105469 1023 l 257
 470.331054688 1023 l 257
1296.33105469 1023 m 257
 1173.67285156 686 l 257
 1233.67285156 686 l 257
 1356.33105469 1023 l 257
 1296.33105469 1023 l 257
EndSplineSet
EndChar

